<svg xmlns="http://www.w3.org/2000/svg" viewBox="0 0 25.77 24.12"><defs><style>.cls-1{fill:#1d382e;}</style></defs><title>b0</title><g id="Capa_2" data-name="Capa 2"><g id="Capa_1-2" data-name="Capa 1"><g id="_Grupo_" data-name="&lt;Grupo&gt;"><path id="_Trazado_compuesto_" data-name="&lt;Trazado compuesto&gt;" class="cls-1" d="M22.32,11.73l-8.74-7a1.13,1.13,0,0,0-1.39,0l-8.74,7a1,1,0,0,0-.4.82V23.06a1.08,1.08,0,0,0,1.09,1.06H21.63a1.08,1.08,0,0,0,1.1-1.06V12.54a1,1,0,0,0-.4-.82ZM14,22H11.73V16.14H14Zm6.49,0h-4.3V15.08A1.08,1.08,0,0,0,15.14,14h-4.5a1.08,1.08,0,0,0-1.09,1.06V22H5.24V13l7.65-6.1L20.53,13Zm0,0"/><path id="_Trazado_compuesto_2" data-name="&lt;Trazado compuesto&gt;" class="cls-1" d="M25.36,9.6c-2.44-1.89-4.74-3.69-7.23-5.68-.75-.65-1.53-1.26-2.29-1.85S14.33.89,13.62.27a1.12,1.12,0,0,0-1.47,0c-.71.62-1.48,1.22-2.22,1.8S8.39,3.28,7.64,3.92c-2.5,2-4.8,3.79-7.23,5.68a1,1,0,0,0-.17,1.49,1.12,1.12,0,0,0,1.54.17c2.45-1.9,4.76-3.71,7.28-5.71l0,0c.71-.62,1.48-1.22,2.22-1.8.52-.41,1.05-.82,1.57-1.25.52.43,1.05.85,1.57,1.25.74.58,1.51,1.18,2.22,1.8l0,0c2.51,2,4.82,3.81,7.28,5.71a1.12,1.12,0,0,0,.68.23,1.1,1.1,0,0,0,.85-.4,1,1,0,0,0-.17-1.49Zm0,0"/></g></g></g></svg>