<svg xmlns="http://www.w3.org/2000/svg" viewBox="0 0 62.51 62.37"><defs><style>.cls-1{fill:#f3705a;}.cls-2{fill:#ecedef;}.cls-3{fill:#66c6b9;}.cls-4{fill:#68727e;}</style></defs><title>b1</title><g id="Capa_2" data-name="Capa 2"><g id="Capa_1-2" data-name="Capa 1"><ellipse class="cls-1" cx="31.26" cy="31.18" rx="31.26" ry="31.18"/><path class="cls-2" d="M31.26,56.37A25.18,25.18,0,1,1,56.51,31.18,25.25,25.25,0,0,1,31.26,56.37Z"/><path class="cls-1" d="M31.26,50.37A19.18,19.18,0,1,1,50.51,31.18,19.24,19.24,0,0,1,31.26,50.37Z"/><path class="cls-2" d="M31.26,44.37A13.19,13.19,0,1,1,44.51,31.18,13.24,13.24,0,0,1,31.26,44.37Z"/><ellipse class="cls-1" cx="31.26" cy="31.18" rx="7.26" ry="7.18"/><polygon class="cls-3" points="42.39 18.12 41.17 11.41 52.61 0 53.83 6.71 42.39 18.12"/><polygon class="cls-3" points="44.35 20.07 51.08 21.29 62.51 9.88 55.79 8.66 44.35 20.07"/><path class="cls-4" d="M31.87,32.52s-.68.32-1.5-.5-.46-1.45-.46-1.45l24-23.9a1.39,1.39,0,0,1,2,0h0a1.38,1.38,0,0,1,0,2Z"/></g></g></svg>