<svg xmlns="http://www.w3.org/2000/svg" viewBox="0 0 62.37 62.37"><defs><style>.cls-1{fill:#f3705a;}.cls-2{fill:#ecedef;}.cls-3{fill:#68727e;}.cls-4{fill:#66c6b9;}.cls-5{fill:#ffd15c;}</style></defs><title>b3</title><g id="Capa_2" data-name="Capa 2"><g id="Capa_1-2" data-name="Capa 1"><path class="cls-1" d="M33.19,47.17V44.31L29.3,43.4a9.75,9.75,0,0,0-.52-2.08l3-2.73-1.43-2.47-3.76,1.17L25,35.73,26.19,32l-2.46-1.43-2.72,3A12.12,12.12,0,0,0,18.93,33L18,29.11H15.17L14.26,33a9.7,9.7,0,0,0-2.07.52l-2.72-3L7,32l1.17,3.77L6.61,37.29,2.85,36.12,1.43,38.59l3,2.73a12.19,12.19,0,0,0-.52,2.08L0,44.31v2.86l3.89.91a9.75,9.75,0,0,0,.52,2.08l-3,2.73,1.43,2.47,3.76-1.17,1.56,1.56L7,59.51l2.46,1.43,2.72-3a12.12,12.12,0,0,0,2.07.52l.91,3.9H18l.91-3.9A9.7,9.7,0,0,0,21,58l2.72,3,2.46-1.43L25,55.74l1.56-1.56,3.76,1.17,1.43-2.47-3-2.73a12.19,12.19,0,0,0,.52-2.08Z"/><path class="cls-2" d="M16.6,53.53a7.8,7.8,0,1,1,7.78-7.8A7.81,7.81,0,0,1,16.6,53.53Z"/><path class="cls-3" d="M16.6,43a2.73,2.73,0,1,0,2.72,2.73A2.66,2.66,0,0,0,16.6,43Z"/><path class="cls-4" d="M61.33,26.64l.91-3.25-4.15-2.21a8.71,8.71,0,0,0,0-2.6l4.28-2.21-1-3.38-4.8.26a21,21,0,0,0-1.3-2.34l2.59-4L55.37,4.42l-4,2.6a12.3,12.3,0,0,0-2.2-1.3L49.4.91,46,0l-2.2,4.29a8.66,8.66,0,0,0-2.59,0L39.16,0,35.79.91,36,5.72A21,21,0,0,0,33.71,7l-4-2.6L27.23,6.76l2.59,4A12.34,12.34,0,0,0,28.53,13l-4.8-.26-.91,3.38,4.28,2.21a8.71,8.71,0,0,0,0,2.6l-4.28,2.21.91,3.38,4.8-.26a21,21,0,0,0,1.3,2.34l-2.59,4,2.46,2.47,4-2.6a12.3,12.3,0,0,0,2.2,1.3l-.26,4.81L39,39.5l2.2-4.16a8.66,8.66,0,0,0,2.59,0L46,39.63l3.37-.91-.26-4.81a21,21,0,0,0,2.33-1.3l4,2.6L58,32.74l-2.59-4a12.34,12.34,0,0,0,1.3-2.21Z"/><path class="cls-2" d="M40.58,27a7.53,7.53,0,1,1,9.21-5.33A7.64,7.64,0,0,1,40.58,27Z"/><path class="cls-3" d="M43.44,16.5a3.37,3.37,0,1,0,2.33,4.16A3.56,3.56,0,0,0,43.44,16.5Z"/><path class="cls-5" d="M22.17,20.14V16.89l-3-.65a4.56,4.56,0,0,0-.78-1.82l1.69-2.6L17.76,9.49l-2.59,1.69a4.54,4.54,0,0,0-1.82-.78l-.65-3H9.47l-.65,3A4.54,4.54,0,0,0,7,11.17L4.41,9.49,2.07,11.82l1.69,2.47A5.13,5.13,0,0,0,3,16.24l-3,.65v3.25l3,.65a4.56,4.56,0,0,0,.78,1.82L2.07,25.08l2.33,2.34L7,25.73a4.54,4.54,0,0,0,1.82.78l.65,3h3.24l.65-3a6.11,6.11,0,0,0,1.94-.78l2.46,1.69,2.33-2.34-1.69-2.6a4.56,4.56,0,0,0,.78-1.82Zm-11,1.43a3,3,0,1,1,3-3A3,3,0,0,1,11.15,21.57Z"/></g></g></svg>