<svg xmlns="http://www.w3.org/2000/svg" viewBox="0 0 72.02 62.37"><defs><style>.cls-1{fill:#66c6b9;}.cls-2{fill:#ecedef;}.cls-3{fill:#d9d9db;}.cls-4{fill:#68727e;}.cls-5{fill:#b3b9bf;}.cls-6{fill:#ffd791;}.cls-7{fill:#ff8c78;}.cls-8{fill:#ffd15c;}</style></defs><title>b4</title><g id="Capa_2" data-name="Capa 2"><g id="Capa_1-2" data-name="Capa 1"><path class="cls-1" d="M57.64,0H9.54A3.54,3.54,0,0,0,6,3.53V58.84a3.54,3.54,0,0,0,3.53,3.53H57.64a3.54,3.54,0,0,0,3.53-3.53V3.53A3.54,3.54,0,0,0,57.64,0Z"/><path class="cls-2" d="M55.12,4.81H11.95a1.13,1.13,0,0,0-1.13,1.13v50.5a1.13,1.13,0,0,0,1.13,1.13H55.12a1.24,1.24,0,0,0,1.24-1.24V6A1.24,1.24,0,0,0,55.12,4.81Z"/><path class="cls-3" d="M20.29,4.81H11.95a1.13,1.13,0,0,0-1.13,1.13v50.5a1.13,1.13,0,0,0,1.13,1.13h8.34Z"/><path class="cls-4" d="M0,49.22a3.54,3.54,0,0,0,3.53,3.53h9.62a3.53,3.53,0,1,0,0-7.06H3.53A3.54,3.54,0,0,0,0,49.22Z"/><path class="cls-4" d="M0,31.18a3.54,3.54,0,0,0,3.53,3.53h9.62a3.53,3.53,0,1,0,0-7.06H3.53A3.54,3.54,0,0,0,0,31.18Z"/><path class="cls-4" d="M16.68,13.15a3.54,3.54,0,0,0-3.53-3.53H3.53a3.53,3.53,0,1,0,0,7.06h9.62A3.54,3.54,0,0,0,16.68,13.15Z"/><path class="cls-5" d="M48.82,13.62H28.38a1.13,1.13,0,1,1,0-2.25H48.82a1.13,1.13,0,0,1,0,2.25Z"/><path class="cls-5" d="M48.82,20.83H28.38a1.13,1.13,0,0,1,0-2.25H48.82a1.13,1.13,0,0,1,0,2.25Z"/><path class="cls-5" d="M40.41,28h-12a1.13,1.13,0,0,1,0-2.25h12a1.13,1.13,0,0,1,0,2.25Z"/><path class="cls-6" d="M36,40.11a1.13,1.13,0,0,0-.83.56l-6.8,11.9a1.13,1.13,0,0,0,1.54,1.54l11.9-6.8a1.14,1.14,0,0,0,.24-1.78L37,40.43A1.13,1.13,0,0,0,36,40.11Z"/><path class="cls-7" d="M35.39,40.43l6.69,6.7L71,18.22a3.53,3.53,0,0,0,0-5l-1.7-1.7a3.54,3.54,0,0,0-5,0Z"/><rect class="cls-8" x="33.45" y="26.29" width="36.07" height="9.47" transform="translate(-6.86 45.49) rotate(-45)"/><path class="cls-4" d="M28.4,52.57a1.13,1.13,0,0,0,1.54,1.54l5-2.83-3.66-3.66Z"/></g></g></svg>