<svg xmlns="http://www.w3.org/2000/svg" viewBox="0 0 61.09 64.41"><defs><style>.cls-1{fill:#66c6b9;}.cls-2{fill:#ecedef;}.cls-3{fill:#d9d9db;}.cls-4{fill:#b3b9bf;}.cls-5{fill:#f3705a;}</style></defs><title>b5</title><g id="Capa_2" data-name="Capa 2"><g id="Capa_1-2" data-name="Capa 1"><path class="cls-1" d="M57.44,0H3.65A3.65,3.65,0,0,0,0,3.65V60.77a3.65,3.65,0,0,0,3.65,3.65H57.44a3.65,3.65,0,0,0,3.65-3.65V3.65A3.65,3.65,0,0,0,57.44,0Z"/><path class="cls-2" d="M54.84,5H6.13A1.16,1.16,0,0,0,5,6.13V58.28a1.16,1.16,0,0,0,1.16,1.16H54.84a1.28,1.28,0,0,0,1.28-1.28V6.25A1.28,1.28,0,0,0,54.84,5Z"/><path class="cls-3" d="M5,48.45v9.83a1.16,1.16,0,0,0,1.16,1.16H55a1.16,1.16,0,0,0,1.16-1.16V48.45Z"/><path class="cls-4" d="M51.15,55.11H20a1.16,1.16,0,1,1,0-2.33H51.15a1.16,1.16,0,0,1,0,2.33Z"/><path class="cls-4" d="M12.94,56.5V51.39a1.16,1.16,0,1,1,2.33,0V56.5a1.16,1.16,0,0,1-2.33,0Z"/><path class="cls-4" d="M8.49,56.5V51.39a1.16,1.16,0,1,1,2.33,0V56.5a1.16,1.16,0,0,1-2.33,0Z"/><path class="cls-5" d="M41,26.53c1.48.74,1.48,1.94,0,2.68L22.68,38.37A1.71,1.71,0,0,1,20,36.71V19a1.71,1.71,0,0,1,2.68-1.66Z"/></g></g></svg>