<svg xmlns="http://www.w3.org/2000/svg" viewBox="0 0 49.9 44.91"><defs><style>.cls-1{fill:#cca74a;}.cls-2{fill:#ffd15c;}.cls-3{fill:#68727e;}.cls-4{fill:#f3705a;}</style></defs><title>dl</title><g id="Capa_2" data-name="Capa 2"><g id="Capa_1-2" data-name="Capa 1"><path class="cls-1" d="M15.47.68l3,3a2.32,2.32,0,0,0,1.64.68H47.58A2.32,2.32,0,0,1,49.9,6.67V42.59a2.32,2.32,0,0,1-2.32,2.32H2.32A2.32,2.32,0,0,1,0,42.59V2.32A2.32,2.32,0,0,1,2.32,0H13.83A2.32,2.32,0,0,1,15.47.68Z"/><path class="cls-2" d="M24.36,9.79,21.2,13a2,2,0,0,1-1.42.59H2a2,2,0,0,0-2,2V42.9a2,2,0,0,0,2,2H47.89a2,2,0,0,0,2-2V11.22a2,2,0,0,0-2-2H25.78A2,2,0,0,0,24.36,9.79Z"/><polygon class="cls-3" points="34.99 31.31 34.99 35.58 14.91 35.58 14.91 31.31 11.25 31.31 11.25 35.58 11.25 39.23 14.91 39.23 34.99 39.23 38.65 39.23 38.65 35.58 38.65 31.31 34.99 31.31"/><polygon class="cls-4" points="28.57 26.66 28.57 17.53 21.34 17.53 21.34 26.66 18.17 26.66 24.95 33.87 31.73 26.66 28.57 26.66"/></g></g></svg>