<svg xmlns="http://www.w3.org/2000/svg" viewBox="0 0 1049.04 618"><defs><style>.cls-1{opacity:0.08;}</style></defs><title>i1</title><g id="Capa_2" data-name="Capa 2"><g id="Capa_1-2" data-name="Capa 1"><g class="cls-1"><polygon points="551.71 143.11 747.08 143.11 788.23 80.41 1026.22 80.41 1028.69 78.51 785.91 78.51 744.96 141.81 554.68 141.81 555.3 100.71 472.64 100.71 473 102.37 551.92 102.37 551.71 143.11"/><path d="M1017.9,79.45c-3.53,2.74-2.23,5,3,5s12.31-2.24,16-5,2.53-5.09-2.79-5.09S1021.46,76.67,1017.9,79.45Z"/><path d="M778.65,79.45c-1.74,2.74,1.12,5,6.29,5s11-2.24,12.85-5-.91-5.09-6.26-5.09S780.38,76.67,778.65,79.45Z"/><path d="M466.59,101.54c.47,2,4.08,3.57,8.11,3.57s6.91-1.58,6.5-3.57-4-3.64-8.11-3.64S466.09,99.55,466.59,101.54Z"/><path d="M739,142.47c-1.15,1.88,1.41,3.4,5.7,3.4s8.88-1.52,10.14-3.4-1.23-3.47-5.64-3.47S740.23,140.57,739,142.47Z"/><path d="M544.36,142.47c0,1.88,3.58,3.4,7.85,3.4s7.85-1.52,7.94-3.4-3.5-3.47-7.91-3.47S544.3,140.57,544.36,142.47Z"/><path d="M546.95,102.09c0,1.54,2.56,2.74,5.56,2.74s5.61-1.2,5.64-2.74-2.53-2.74-5.61-2.74S546.92,100.56,546.95,102.09Z"/><polygon points="167.25 164.88 348.49 164.88 310.01 111.74 527.46 111.74 527.37 110.2 305.61 110.2 344.96 163.77 168.52 163.77 120.73 128.78 44.75 128.78 47.01 130.19 119.55 130.19 167.25 164.88"/><path d="M519.17,111.16c.2,2.27,4.17,4.11,9,4.11s8.58-1.84,8.49-4.11-4.17-4.24-9.05-4.24S518.94,108.83,519.17,111.16Z"/><path d="M300.11,111c1.73,2.29,7,4.13,11.76,4.13s7.35-1.84,5.76-4.13-7-4.23-11.85-4.23S298.38,108.64,300.11,111Z"/><path d="M40.19,129.49a26,26,0,0,0,11.55,3c3.67,0,4.53-1.33,1.88-3A25.55,25.55,0,0,0,42,126.41C38.31,126.41,37.43,127.78,40.19,129.49Z"/><path d="M340.26,164.33c1.21,1.6,5.5,2.91,9.46,2.91s6.35-1.31,5.23-2.91-5.44-3-9.52-3S339,162.7,340.26,164.33Z"/><path d="M159.64,164.33c2.26,1.6,7.38,2.91,11.37,2.91s5.5-1.31,3.32-2.91-7.35-3-11.43-3S157.38,162.7,159.64,164.33Z"/><path d="M114.64,130a16.8,16.8,0,0,0,8.29,2.27c2.76,0,3.76-1,2-2.27a16.58,16.58,0,0,0-8.38-2.35C113.76,127.63,112.82,128.66,114.64,130Z"/><polygon points="444.93 193.82 607.17 193.82 616.76 152.01 807.77 152.01 808.87 150.79 614.14 150.79 604.91 192.94 447.01 192.94 435.61 165.23 368.36 165.23 369.09 166.36 433.35 166.36 444.93 193.82"/><path d="M800.63,151.41c-1.53,1.75.65,3.19,4.82,3.19s8.91-1.45,10.49-3.19-.5-3.29-4.76-3.29S802.19,149.61,800.63,151.41Z"/><path d="M608.76,151.41c-.35,1.75,2.71,3.19,7,3.19s7.93-1.45,8.38-3.19-2.65-3.29-6.94-3.29S609.14,149.61,608.76,151.41Z"/><path d="M363.77,165.78c.85,1.3,4.2,2.35,7.44,2.35s5.17-1.05,4.35-2.35-4.17-2.37-7.41-2.37S362.89,164.48,363.77,165.78Z"/><path d="M600.33,193.37c-.26,1.33,2.38,2.35,6.05,2.35s6.76-1,7.12-2.35-2.38-2.39-6-2.39S600.59,192.07,600.33,193.37Z"/><path d="M438.52,193.37c.59,1.33,4,2.35,7.58,2.35s6.08-1,5.56-2.35S447.75,191,444.1,191,437.93,192.07,438.52,193.37Z"/><path d="M429.11,166.17c.41,1,2.85,1.8,5.32,1.8s4.2-.83,3.79-1.8-2.76-1.84-5.32-1.84S428.64,165.14,429.11,166.17Z"/><polygon points="826.47 233.6 828.56 233.6 849.54 217.79 911.8 217.79 1008.79 157.34 894.63 157.34 1022.34 51.41 1018.52 51.41 890.46 158.49 1004.18 158.49 910.74 217.07 848.28 217.07 826.47 233.6"/><path d="M1013.52,57.16c5.58,0,13.32-2.57,17.19-5.75s2.53-5.92-3.21-5.92-13.61,2.69-17.37,5.92S1007.94,57.16,1013.52,57.16Z"/><path d="M889.37,160.58c4.08,0,9.05-1.33,11.17-3.06s.44-3.14-3.74-3.14-9.29,1.43-11.29,3.14S885.26,160.58,889.37,160.58Z"/><path d="M826,234.73c2.44,0,5.26-.6,6.29-1.35s-.18-1.37-2.71-1.37-5.32.62-6.32,1.37S823.62,234.73,826,234.73Z"/><path d="M1002.24,160.58c4.08,0,9.64-1.33,12.43-3.06s1.67-3.14-2.5-3.14-9.85,1.43-12.55,3.14S998.15,160.58,1002.24,160.58Z"/><path d="M907.77,219.61c3.23,0,7.32-.86,9-1.92s.44-1.93-2.82-1.93-7.32.85-9.05,1.93S904.57,219.61,907.77,219.61Z"/><path d="M847.78,218.88c2,0,4.44-.53,5.29-1.18s-.06-1.22-2.09-1.22a10.71,10.71,0,0,0-5.35,1.22C844.78,218.35,845.69,218.88,847.78,218.88Z"/><polygon points="388.26 233.6 390.34 233.6 378.29 217.79 440.55 217.79 411.18 157.34 296.99 157.34 203.2 51.41 199.32 51.41 295.2 158.49 408.95 158.49 437.99 217.07 375.53 217.07 388.26 233.6"/><path d="M206.38,57.16c5.58,0,7.94-2.57,5.2-5.75s-9.85-5.92-15.58-5.92-8,2.69-5.08,5.92S200.79,57.16,206.38,57.16Z"/><path d="M298.46,160.58c4.09,0,6.29-1.33,4.79-3.06s-6.14-3.14-10.32-3.14-6.29,1.43-4.73,3.14S294.38,160.58,298.46,160.58Z"/><path d="M390.17,234.73c2.47,0,4-.6,3.47-1.35s-3.06-1.37-5.56-1.37-4,.62-3.44,1.37S387.7,234.73,390.17,234.73Z"/><path d="M411.36,160.58c4.09,0,6.82-1.33,6-3.06s-4.88-3.14-9.05-3.14-6.88,1.43-6,3.14S407.27,160.58,411.36,160.58Z"/><path d="M440.34,219.61c3.23,0,5.5-.86,5-1.92s-3.62-1.93-6.88-1.93-5.56.85-5,1.93S437.11,219.61,440.34,219.61Z"/><path d="M378.73,218.88c2.06,0,3.29-.53,2.79-1.18s-2.53-1.22-4.64-1.22-3.26.54-2.73,1.22S376.71,218.88,378.73,218.88Z"/><polygon points="552.3 258.13 554.12 258.13 554.38 245.94 608.85 245.94 622.22 201.13 525.58 201.13 518.32 129.26 515.23 129.26 523.29 201.95 619.61 201.95 607.09 245.38 552.47 245.38 552.3 258.13"/><path d="M517.17,133c4.47,0,8-1.65,7.85-3.7s-4.06-3.78-8.64-3.78-8.14,1.67-7.88,3.78S512.59,133,517.17,133Z"/><path d="M522.84,203.48c3.47,0,6.2-1,6.12-2.2s-3.09-2.25-6.62-2.25-6.29,1-6.11,2.25S519.38,203.48,522.84,203.48Z"/><path d="M553.21,259c2.18,0,4-.47,4-1s-1.74-1.07-3.94-1.07-4,.47-4,1.07S551,259,553.21,259Z"/><path d="M620.34,203.48c3.47,0,6.64-1,7-2.2s-2.2-2.25-5.7-2.25-6.7,1-7,2.25S616.87,203.48,620.34,203.48Z"/><path d="M607.49,247.32c2.82,0,5.38-.66,5.64-1.47s-1.91-1.5-4.79-1.5-5.41.68-5.62,1.5S604.67,247.32,607.49,247.32Z"/><path d="M554.09,246.77c1.76,0,3.21-.41,3.23-.92s-1.41-.94-3.2-.94-3.26.43-3.26.94S552.27,246.77,554.09,246.77Z"/><polygon points="274.16 247.22 276.07 247.22 256.84 233.49 314.81 233.49 257.14 182.1 152.74 182.1 22.47 96.51 19.06 96.51 151.68 183.08 255.61 183.08 311.95 232.87 253.93 232.87 274.16 247.22"/><path d="M27.64,101c5.06,0,6-2,2.26-4.49s-11-4.62-16.17-4.62-5.91,2.08-2,4.62A34.53,34.53,0,0,0,27.64,101Z"/><path d="M155.62,184.82c3.82,0,5.08-1.16,3-2.57s-7-2.61-10.85-2.61-5.06,1.2-2.82,2.61S151.88,184.82,155.62,184.82Z"/><path d="M276.51,248.22c2.26,0,3.44-.53,2.53-1.18s-3.59-1.18-5.85-1.18-3.47.53-2.53,1.18S274.19,248.22,276.51,248.22Z"/><path d="M258.84,184.82c3.82,0,5.53-1.16,4-2.57s-5.91-2.61-9.79-2.61-5.5,1.2-3.85,2.61S255.11,184.82,258.84,184.82Z"/><path d="M315.45,235c3.09,0,4.64-.75,3.64-1.65s-4.29-1.69-7.41-1.69-4.64.77-3.56,1.69S312.43,235,315.45,235Z"/><path d="M257.78,234.41c1.88,0,2.82-.45,2-1a10.48,10.48,0,0,0-4.91-1.05c-1.91,0-2.82.47-2,1.05A10.69,10.69,0,0,0,257.78,234.41Z"/><polygon points="412.62 280.73 414.24 280.73 406.42 271.39 453.89 271.39 435.4 238.38 353.57 238.38 306.37 189.16 303.87 189.16 352.13 238.98 433.73 238.98 451.98 270.98 404.37 270.98 412.62 280.73"/><path d="M307.46,191.59c3.62,0,5.61-1.07,4.35-2.42s-5.38-2.46-9.08-2.46-5.61,1.13-4.29,2.46S303.81,191.59,307.46,191.59Z"/><path d="M354.16,240c2.94,0,4.73-.69,3.88-1.58s-3.94-1.62-6.94-1.62-4.7.73-3.85,1.62S351.25,240,354.16,240Z"/><path d="M414,281.41c1.91,0,3.17-.38,2.79-.81s-2.23-.83-4.17-.83-3.17.36-2.79.83S412.12,281.41,414,281.41Z"/><path d="M435.34,240c2.91,0,5-.69,4.5-1.58s-3.32-1.62-6.32-1.62-5,.73-4.47,1.62S432.4,240,435.34,240Z"/><path d="M453.63,272.45c2.47,0,4.23-.51,3.91-1.11s-2.68-1.15-5.17-1.15-4.26.51-3.88,1.15S451.19,272.45,453.63,272.45Z"/><path d="M406.72,272c1.53,0,2.56-.3,2.23-.68s-1.88-.71-3.41-.71-2.59.32-2.23.71S405.13,272,406.72,272Z"/><polygon points="520.85 245.76 521.7 245.76 520.85 239.71 546.27 239.71 545.89 220.47 505.71 220.47 501.04 197.07 499.89 197.07 504.74 220.81 544.89 220.81 545.3 239.44 519.91 239.44 520.85 245.76"/><path d="M500.68,198.1c1.62,0,2.82-.45,2.71-1s-1.47-1-3.15-1-2.82.45-2.68,1S499.07,198.1,500.68,198.1Z"/><path d="M505.39,221.38c1.47,0,2.56-.36,2.47-.83s-1.32-.86-2.82-.86-2.56.38-2.47.86S503.89,221.38,505.39,221.38Z"/><path d="M521.38,246.23c1,0,1.85-.24,1.79-.54s-.94-.53-1.94-.53-1.91.23-1.88.53S520.29,246.23,521.38,246.23Z"/><path d="M545.39,221.38c1.5,0,2.65-.36,2.65-.83s-1.18-.86-2.68-.86-2.62.38-2.62.86S543.92,221.38,545.39,221.38Z"/><path d="M545.8,240.37c1.35,0,2.41-.32,2.41-.7s-1.06-.73-2.44-.73-2.41.34-2.38.73S544.45,240.37,545.8,240.37Z"/><path d="M520.79,240.1c.79,0,1.41-.21,1.38-.43s-.71-.45-1.53-.45-1.5.19-1.47.45S520,240.1,520.79,240.1Z"/><polygon points="328.47 231.39 327.56 231.39 334.47 237.94 308.87 237.94 328.18 254.36 362.19 254.36 376.21 268.45 377.03 268.45 362.86 254.13 328.74 254.13 310.07 238.21 335.62 238.21 328.47 231.39"/><path d="M376.12,267.92c-1.18,0-1.85.24-1.56.53a4.82,4.82,0,0,0,2.59.54c1.18,0,1.82-.24,1.53-.54A4.83,4.83,0,0,0,376.12,267.92Z"/><path d="M362,253.72c-1.26,0-2,.26-1.65.62a5.42,5.42,0,0,0,2.85.6c1.26,0,1.94-.28,1.62-.6A5,5,0,0,0,362,253.72Z"/><path d="M327.5,230.84c-1.18,0-1.82.26-1.44.64a5.13,5.13,0,0,0,2.73.6c1.09,0,1.73-.26,1.38-.6A4.74,4.74,0,0,0,327.5,230.84Z"/><path d="M327.8,253.72c-1.21,0-1.94.26-1.5.62a6.16,6.16,0,0,0,2.94.6c1.23,0,1.91-.28,1.53-.6A5.75,5.75,0,0,0,327.8,253.72Z"/><path d="M308.46,237.25c-1.29,0-2,.32-1.56.73a6.56,6.56,0,0,0,3.26.71c1.38,0,2.06-.32,1.59-.71A6.23,6.23,0,0,0,308.46,237.25Z"/><path d="M334.12,237.51c-.82,0-1.23.21-1,.47a3.5,3.5,0,0,0,1.94.45c.88,0,1.32-.21,1.06-.45A3.45,3.45,0,0,0,334.12,237.51Z"/><polygon points="930.55 109.81 928.23 109.81 900.33 134.37 839.52 134.37 789.94 187.27 862.89 187.27 816.8 224.94 818.39 224.94 865.53 186.61 792.32 186.61 840.75 135.33 901.45 135.33 930.55 109.81"/><path d="M819.15,223.65c-2.24,0-4.82.58-5.7,1.3s.35,1.3,2.56,1.3,4.76-.56,5.64-1.3S821.44,223.65,819.15,223.65Z"/><path d="M866.09,185.37c-2.62,0-5.82.81-7.05,1.8s.12,1.77,2.7,1.77,5.73-.79,6.94-1.77S868.77,185.37,866.09,185.37Z"/><path d="M931.69,107.76c-2.82,0-6.2,1.07-7.73,2.44s-.56,2.4,2.2,2.4,6.35-1.09,7.88-2.4S934.54,107.76,931.69,107.76Z"/><path d="M792.61,185.37c-2.67,0-5.58.81-6.5,1.8s.53,1.77,3.18,1.77,5.53-.79,6.47-1.77S795.31,185.37,792.61,185.37Z"/><path d="M842.9,131.93c-3.26,0-6.93,1.16-8.23,2.59s.17,2.57,3.35,2.57,6.88-1.15,8.26-2.57S846.16,131.93,842.9,131.93Z"/><path d="M902.39,132.91a9.7,9.7,0,0,0-5.44,1.62c-1,.86-.15,1.58,1.79,1.58a9.55,9.55,0,0,0,5.44-1.58C905.24,133.62,904.48,132.91,902.39,132.91Z"/><polygon points="552.39 226.94 552.36 227.41 587.98 227.41 585.8 239.88 680.24 239.88 692.12 221.32 795.87 221.32 796.43 220.83 690.85 220.83 679.07 239.44 587.36 239.44 589.66 226.94 552.39 226.94"/><path d="M793,220.91c-.79.73.41,1.33,2.71,1.33s4.85-.6,5.67-1.33-.35-1.33-2.67-1.33S793.82,220.17,793,220.91Z"/><path d="M687.86,221.08c-.47.73,1,1.33,3.35,1.33s4.5-.6,5-1.33-1-1.35-3.32-1.35S688.33,220.34,687.86,221.08Z"/><path d="M549.59,227.16c0,.56,1.47,1,3.26,1s3.23-.47,3.26-1-1.41-1-3.23-1S549.59,226.6,549.59,227.16Z"/><path d="M676.33,239.65c-.38.62,1,1.11,3.12,1.11s4.14-.49,4.53-1.11-.94-1.13-3.09-1.13S676.71,239,676.33,239.65Z"/><path d="M582.25,239.65c-.12.62,1.53,1.11,3.64,1.11s3.91-.49,4-1.11-1.5-1.13-3.62-1.13S582.34,239,582.25,239.65Z"/><path d="M585.78,227.31c-.09.45,1,.79,2.35.79s2.62-.34,2.67-.79-.94-.77-2.41-.77S585.83,226.9,585.78,227.31Z"/><polygon points="372.24 254.25 372.59 254.6 403.72 254.6 411.15 264.18 494.34 264.18 489.9 249.98 580.28 249.98 580.34 249.61 488.46 249.61 492.98 263.86 412.21 263.86 404.81 254.25 372.24 254.25"/><path d="M576.66,249.79c-.09.56,1.5,1,3.5,1s3.67-.45,3.76-1-1.41-1-3.44-1S576.75,249.23,576.66,249.79Z"/><path d="M486,249.79c.18.56,1.94,1,3.94,1s3.5-.45,3.32-1-1.91-1-3.94-1S485.81,249.23,486,249.79Z"/><path d="M369.95,254.42c.41.43,2.06.79,3.64.79s2.56-.36,2.15-.79-2.06-.79-3.62-.79S369.53,254,369.95,254.42Z"/><path d="M490.72,264c.14.47,1.76.86,3.61.86s3.23-.39,3.09-.86-1.73-.88-3.64-.88S490.54,263.54,490.72,264Z"/><path d="M407.92,264c.38.47,2.2.86,4,.86s3.06-.39,2.67-.86-2.15-.88-4-.88S407.57,263.54,407.92,264Z"/><path d="M401.72,254.55a4.57,4.57,0,0,0,2.65.6c1.23,0,2-.28,1.76-.6a4.45,4.45,0,0,0-2.7-.6C402.22,253.95,401.45,254.21,401.72,254.55Z"/><polygon points="70 58.21 71.82 59.69 135.19 59.69 175.96 97.35 336.59 97.35 301.26 40.1 489.93 40.1 489.69 38.47 297.44 38.47 333.44 96.15 177.16 96.15 136.36 58.21 70 58.21"/><path d="M482.22,39.28c.38,2.44,4.09,4.36,8.23,4.36s7.14-1.92,6.82-4.36-4-4.49-8.14-4.49S481.82,36.81,482.22,39.28Z"/><path d="M292.67,39.28c1.56,2.44,6.14,4.36,10.32,4.36s6.35-1.92,4.88-4.36-6.11-4.49-10.38-4.49S291.12,36.81,292.67,39.28Z"/><path d="M65.88,58.94a18.68,18.68,0,0,0,9.93,3.25c3.17,0,4.06-1.47,1.88-3.25a18.64,18.64,0,0,0-10-3.27C64.47,55.67,63.65,57.16,65.88,58.94Z"/><path d="M330.27,97.77c1.12,1.78,4.91,3.19,8.47,3.19s5.58-1.41,4.5-3.19-4.88-3.29-8.52-3.29S329.09,95.94,330.27,97.77Z"/><path d="M169.28,96.75c2,1.8,6.41,3.21,9.88,3.21s4.94-1.41,3.06-3.21-6.41-3.27-10.08-3.27C168.64,93.48,167.28,94.95,169.28,96.75Z"/><path d="M130.93,59.43a12,12,0,0,0,7.14,2.52c2.56,0,3.35-1.09,1.85-2.52A12.07,12.07,0,0,0,132.66,57C130.22,57,129.46,58.08,130.93,59.43Z"/><polygon points="844.81 166.92 844.46 167.24 863.89 167.24 853.72 176.18 906.59 176.18 924.08 163.09 979.93 163.09 980.46 162.74 923.67 162.74 906.18 175.87 854.92 175.87 865.12 166.92 844.81 166.92"/><path d="M977.93,162.89c-.79.53-.29.9.91.9a8,8,0,0,0,3.67-.9c.76-.49.29-.88-.91-.88A8.3,8.3,0,0,0,977.93,162.89Z"/><path d="M921.94,162.89c-.68.53-.18.9,1.06.9a6.42,6.42,0,0,0,3.38-.9c.67-.49.23-.88-1-.88A7.05,7.05,0,0,0,921.94,162.89Z"/><path d="M843.13,167.07c-.41.39,0,.75,1,.75a4.45,4.45,0,0,0,2.56-.75c.41-.38,0-.69-1-.69A4.41,4.41,0,0,0,843.13,167.07Z"/><path d="M904.54,176c-.62.45-.15.83,1,.83a6.38,6.38,0,0,0,3.2-.83c.62-.45.18-.81-1-.81A6.42,6.42,0,0,0,904.54,176Z"/><path d="M851.9,176c-.53.45.06.83,1.2.83a5.79,5.79,0,0,0,3.12-.83c.53-.45-.06-.81-1.23-.81A5.68,5.68,0,0,0,851.9,176Z"/><path d="M862.71,167.21c-.35.3-.06.54.73.54a3.4,3.4,0,0,0,2-.54c.36-.32.09-.56-.76-.56A3.3,3.3,0,0,0,862.71,167.21Z"/><polygon points="614.55 182.91 614.49 183.19 632.77 183.19 630.25 191.13 680.15 191.13 686.18 179.51 738.73 179.51 738.97 179.17 685.5 179.17 679.54 190.85 631.13 190.85 633.69 182.91 614.55 182.91"/><path d="M736.71,179.32c-.32.47.44.83,1.59.83a4,4,0,0,0,2.71-.83c.32-.43-.44-.77-1.59-.77A4.16,4.16,0,0,0,736.71,179.32Z"/><path d="M684,179.32c-.21.47.56.83,1.73.83s2.29-.36,2.53-.83-.56-.77-1.71-.77S684.21,178.89,684,179.32Z"/><path d="M613.08,183.06c-.06.34.59.64,1.5.64s1.82-.3,1.88-.64-.56-.64-1.56-.64S613.17,182.7,613.08,183.06Z"/><path d="M678.07,191c-.21.41.56.73,1.67.73a3.28,3.28,0,0,0,2.41-.73c.2-.39-.59-.71-1.68-.71S678.27,190.59,678.07,191Z"/><path d="M628.39,191c-.12.41.7.73,1.79.73s2.15-.32,2.29-.73-.73-.71-1.82-.71S628.54,190.59,628.39,191Z"/><path d="M631.66,183.13c-.09.3.35.51,1.12.51s1.35-.21,1.47-.51-.41-.49-1.18-.49S631.71,182.89,631.66,183.13Z"/><polygon points="333.06 134.41 333.38 134.88 358.16 134.88 366.01 147.5 433.02 147.5 425.64 128.91 497.27 128.91 497.19 128.42 424.35 128.42 431.79 147.07 366.77 147.07 358.95 134.41 333.06 134.41"/><path d="M494.42,128.66c.12.73,1.5,1.31,3,1.31s2.82-.58,2.7-1.31-1.5-1.31-3.15-1.31S494.31,128,494.42,128.66Z"/><path d="M422.44,128.66c.32.73,1.82,1.31,3.44,1.31s2.59-.58,2.29-1.31-1.79-1.31-3.32-1.31S422.18,128,422.44,128.66Z"/><path d="M331.24,134.64a4.13,4.13,0,0,0,3,1c1.26,0,1.91-.47,1.53-1a4.07,4.07,0,0,0-2.94-1C331.5,133.66,330.85,134.09,331.24,134.64Z"/><path d="M430,147.28c.29.68,1.68,1.18,3.23,1.18s2.44-.51,2.17-1.18-1.65-1.13-3.12-1.13S429.76,146.68,430,147.28Z"/><path d="M363.39,147.28c.41.68,1.94,1.18,3.38,1.18s2.44-.51,2-1.18-1.91-1.13-3.47-1.13S363,146.68,363.39,147.28Z"/><path d="M356.6,134.81a2.84,2.84,0,0,0,2.2.79c1,0,1.53-.36,1.26-.79a3,3,0,0,0-2.26-.79C356.81,134,356.34,134.37,356.6,134.81Z"/><polygon points="744.41 217.84 745.2 217.84 750.32 211.91 772.15 211.91 789.96 193.37 755.9 193.37 773.95 171.47 773.03 171.47 754.78 193.69 788.82 193.69 771.65 211.65 749.76 211.65 744.41 217.84"/><path d="M772.68,172.43a5.08,5.08,0,0,0,3.26-1c.41-.53-.32-1-1.67-1a4.93,4.93,0,0,0-3.24,1C770.63,172,771.36,172.43,772.68,172.43Z"/><path d="M754.75,194.23a4.62,4.62,0,0,0,2.94-.81c.35-.45-.35-.81-1.62-.81a4.52,4.52,0,0,0-2.91.81C752.81,193.88,753.52,194.23,754.75,194.23Z"/><path d="M744.41,218.3a3.63,3.63,0,0,0,2.17-.54c.26-.3-.32-.53-1.23-.53a3.33,3.33,0,0,0-2.09.53C743,218.05,743.5,218.3,744.41,218.3Z"/><path d="M788.67,194.23a5.12,5.12,0,0,0,3-.81c.41-.45-.26-.81-1.47-.81a5.12,5.12,0,0,0-3,.81C786.79,193.88,787.47,194.23,788.67,194.23Z"/><path d="M771.13,212.55a5,5,0,0,0,2.73-.68c.38-.39-.26-.69-1.41-.69a4.62,4.62,0,0,0-2.73.69C769.36,212.23,770,212.55,771.13,212.55Z"/><path d="M749.84,212.29a3.13,3.13,0,0,0,1.73-.41c.21-.26-.2-.45-1-.45a2.52,2.52,0,0,0-1.65.45C748.79,212.08,749.14,212.29,749.84,212.29Z"/><polygon points="486.1 213.49 485.31 213.49 486.96 219.38 465.88 219.38 471.5 234.35 500.01 234.35 503.18 247.56 503.86 247.56 500.68 234.15 472.14 234.15 466.74 219.63 487.81 219.63 486.1 213.49"/><path d="M503.42,247.05c-1,0-1.73.23-1.65.51s.91.49,1.85.49,1.7-.23,1.65-.49S504.36,247.05,503.42,247.05Z"/><path d="M500.24,233.75c-1,0-1.82.24-1.74.56s1,.56,2,.56,1.79-.24,1.74-.56S501.27,233.75,500.24,233.75Z"/><path d="M485.58,213.06c-.91,0-1.59.23-1.5.54s.88.56,1.82.56,1.59-.26,1.5-.56S486.52,213.06,485.58,213.06Z"/><path d="M471.65,233.75c-1,0-1.79.24-1.65.56s1.06.56,2.06.56,1.79-.24,1.68-.56S472.67,233.75,471.65,233.75Z"/><path d="M466,218.77c-1.09,0-1.91.3-1.76.66s1.15.64,2.26.64,1.88-.28,1.74-.64S467.12,218.77,466,218.77Z"/><path d="M487,219c-.68,0-1.2.15-1.15.39s.71.41,1.38.41,1.21-.19,1.15-.41S487.72,219,487,219Z"/><polygon points="167.61 101.07 166.7 101.07 178.04 111.19 153.68 111.19 184.07 136.66 216.69 136.66 240.62 158.68 241.38 158.68 217.1 136.31 184.45 136.31 155 111.61 179.39 111.61 167.61 101.07"/><path d="M240.06,157.85c-1.06,0-1.56.38-1.09.83a5.29,5.29,0,0,0,2.85.79c1.15,0,1.68-.36,1.21-.79A5.1,5.1,0,0,0,240.06,157.85Z"/><path d="M216,135.67c-1.12,0-1.68.39-1.09,1a5.64,5.64,0,0,0,3.15.94c1.26,0,1.76-.43,1.23-.94A5.44,5.44,0,0,0,216,135.67Z"/><path d="M166.31,100.28c-1.09,0-1.5.43-.94.92a5.21,5.21,0,0,0,3.06,1c1.06,0,1.41-.41.79-1A5.12,5.12,0,0,0,166.31,100.28Z"/><path d="M183.24,135.67c-1.18,0-1.65.39-1,1a6.14,6.14,0,0,0,3.26.94c1.23,0,1.59-.43,1-.94A5.55,5.55,0,0,0,183.24,135.67Z"/><path d="M152.76,110.12c-1.26,0-1.68.53-.91,1.16a6.56,6.56,0,0,0,3.62,1.11c1.35,0,1.68-.51,1-1.11A6.41,6.41,0,0,0,152.76,110.12Z"/><path d="M177.6,110.61c-.88,0-1.18.26-.68.68a3.67,3.67,0,0,0,2.2.68c.73,0,1.06-.32.65-.68A3.74,3.74,0,0,0,177.6,110.61Z"/><polygon points="637.8 82.36 636.89 82.36 634.19 93.58 608.38 93.58 603.68 121.75 638 121.75 631.42 145.83 632.16 145.83 638.92 121.32 604.67 121.32 609.29 94.08 634.92 94.08 637.8 82.36"/><path d="M632,144.93c-1.12,0-2.18.41-2.32.9s.73.9,1.82.9,2.29-.39,2.41-.9S633.19,144.93,632,144.93Z"/><path d="M638.65,120.62c-1.2,0-2.35.49-2.5,1s.73,1,1.94,1,2.47-.45,2.62-1S640,120.62,638.65,120.62Z"/><path d="M637.62,81.46c-1.17,0-2.23.47-2.38,1.07s.7,1,1.88,1,2.06-.43,2.21-1S638.74,81.46,637.62,81.46Z"/><path d="M604.32,120.62c-1.21,0-2.29.49-2.41,1s.88,1,2.06,1,2.29-.45,2.41-1S605.56,120.62,604.32,120.62Z"/><path d="M609.08,92.45c-1.32,0-2.53.51-2.65,1.22s.94,1.2,2.2,1.2,2.53-.54,2.65-1.2S610.41,92.45,609.08,92.45Z"/><path d="M634.51,92.9c-.88,0-1.68.36-1.76.77s.53.77,1.38.77,1.65-.36,1.76-.77S635.36,92.9,634.51,92.9Z"/><polygon points="361.25 167.98 360.28 167.98 366.04 176.33 340.91 176.33 357.4 197.37 390.9 197.37 402.6 215.44 403.37 215.44 391.55 197.07 358.01 197.07 342.11 176.69 367.24 176.69 361.25 167.98"/><path d="M402.54,214.78c-1.12,0-1.85.28-1.62.66a3.67,3.67,0,0,0,2.47.68c1.12,0,1.85-.3,1.62-.68S403.66,214.78,402.54,214.78Z"/><path d="M390.79,196.54c-1.23,0-2,.36-1.7.79a3.92,3.92,0,0,0,2.7.77c1.21,0,2-.36,1.7-.77A3.92,3.92,0,0,0,390.79,196.54Z"/><path d="M360.28,167.28c-1.09,0-1.73.38-1.41.83a3.62,3.62,0,0,0,2.53.77c1.12,0,1.76-.34,1.47-.77A3.69,3.69,0,0,0,360.28,167.28Z"/><path d="M357.16,196.54c-1.21,0-1.94.36-1.59.79a4.48,4.48,0,0,0,2.82.77c1.21,0,1.94-.36,1.59-.77A4.36,4.36,0,0,0,357.16,196.54Z"/><path d="M340.7,175.47c-1.32,0-2.09.43-1.7.92a4.68,4.68,0,0,0,3.14.92c1.29,0,2.09-.38,1.65-.92A4.75,4.75,0,0,0,340.7,175.47Z"/><path d="M365.86,175.83c-.85,0-1.35.28-1.15.56a2.78,2.78,0,0,0,1.94.6c.85,0,1.29-.26,1.06-.6A2.7,2.7,0,0,0,365.86,175.83Z"/><polygon points="20.94 88.83 21.88 89.44 49.8 89.44 72.76 105.67 147.86 105.67 119.23 81.65 200.15 81.65 199.59 81.07 117.26 81.07 145.97 105.11 73.11 105.11 50.16 88.83 20.94 88.83"/><path d="M196.62,81.33A7.71,7.71,0,0,0,201.47,83c1.79,0,2.5-.75,1.62-1.69a7.78,7.78,0,0,0-4.88-1.69C196.41,79.64,195.71,80.41,196.62,81.33Z"/><path d="M115.41,81.33A9.41,9.41,0,0,0,120.64,83c1.76,0,2.32-.75,1.23-1.69a9.5,9.5,0,0,0-5.26-1.69C114.82,79.64,114.29,80.41,115.41,81.33Z"/><path d="M19.15,89.13a9.44,9.44,0,0,0,4.5,1.31c1.44,0,1.79-.56.71-1.31a9.6,9.6,0,0,0-4.59-1.3C18.41,87.83,18,88.39,19.15,89.13Z"/><path d="M144.3,105.41a8.93,8.93,0,0,0,4.79,1.47c1.65,0,2.2-.68,1.26-1.47a8.78,8.78,0,0,0-4.79-1.48C143.89,103.93,143.33,104.6,144.3,105.41Z"/><path d="M69.53,105.41a10.59,10.59,0,0,0,5.11,1.47c1.65,0,2.09-.68.94-1.47a10.31,10.31,0,0,0-5.11-1.48C68.79,103.93,68.38,104.6,69.53,105.41Z"/><path d="M47.92,89.35a6.65,6.65,0,0,0,3.35,1c1.12,0,1.35-.45.62-1a6.84,6.84,0,0,0-3.5-1C47.25,88.32,47.1,88.75,47.92,89.35Z"/><polygon points="713.49 221.02 715.63 221.02 760.51 160.78 647.74 160.78 681.51 63.09 786.53 63.09 822.65 5.01 818.3 5.01 784.03 61.03 678.48 61.03 644.59 161.91 756.93 161.91 713.49 221.02"/><path d="M716,219.12c-3.24,0-6.5.85-7.23,1.9s1.26,1.86,4.47,1.86,6.43-.85,7.23-1.86S719.19,219.12,716,219.12Z"/><path d="M760.69,158.7c-4.11,0-8.44,1.33-9.61,3s1.15,3,5.17,3,8.35-1.3,9.64-3S764.8,158.7,760.69,158.7Z"/><path d="M823.59,0c-5.26,0-11.14,2.69-13.08,6s.64,5.82,5.82,5.82c4.94,0,10.76-2.65,12.76-5.82S828.68,0,823.59,0Z"/><path d="M647.06,158.7c-4.11,0-7.91,1.33-8.41,3s2.35,3,6.35,3,7.82-1.3,8.44-3S651.17,158.7,647.06,158.7Z"/><path d="M682.18,55.73c-5.61,0-11,2.54-12,5.6s2.73,5.47,8.17,5.47,10.76-2.37,11.9-5.47S687.77,55.73,682.18,55.73Z"/><path d="M786.53,57.83c-3.44,0-7.29,1.6-8.44,3.49s.79,3.44,4.2,3.44,7.2-1.5,8.43-3.44S790.11,57.83,786.53,57.83Z"/><polygon points="419.53 61.7 676.39 61.7 676.71 60.67 419.21 60.67 419.53 61.7"/><path d="M408.54,61.14c1.23,3.32,7,5.88,12.82,5.88s9.88-2.55,8.85-5.88-6.85-6-12.9-6S407.3,57.83,408.54,61.14Z"/><polygon points="797.9 221.08 799.02 221.08 826.5 196.54 864.12 187.32 863.62 187 825.47 196.38 797.9 221.08"/><polygon points="434.7 238.92 451.31 238.92 441.43 218.52 440.34 218.52 450.16 238.62 434.52 238.62 434.7 238.92"/><polygon points="691.06 221.08 692.67 221.08 705.58 200.94 621.11 200.94 620.9 201.58 703.43 201.58 691.06 221.08"/><polygon points="255.05 182.25 256.93 182.25 245.03 171.64 174.46 171.64 164.61 164.52 162.58 164.52 173.57 172.43 243.91 172.43 255.05 182.25"/><polygon points="363.6 218.07 378.12 218.07 377.71 217.54 364.86 217.54 341.26 188.82 304.78 188.82 305.46 189.52 339.94 189.52 363.6 218.07"/><polygon points="587.51 227.31 589.07 227.31 592.09 210.58 523.58 210.58 522.52 201.28 520.7 201.28 521.91 211.14 590.33 211.14 587.51 227.31"/><polygon points="472.26 214.01 485.87 214.01 485.75 213.64 473.26 213.64 467.74 197.07 500.48 197.07 500.39 196.64 466.35 196.64 472.26 214.01"/><polygon points="1006.91 157.51 1008.29 157.51 1023.81 147.84 938.4 147.84 1028.34 79.45 1026.48 79.45 936.13 148.46 1021.4 148.46 1006.91 157.51"/><polygon points="843.25 54.47 1017.99 54.47 1019.32 53.38 846.01 53.38 882.17 5.75 820.06 5.75 819.24 7.08 878.97 7.08 843.25 54.47"/><polygon points="472.61 101.54 475.2 101.54 470.62 80.62 368.98 80.62 377.85 98.4 336.85 98.4 337.64 99.68 381.09 99.68 372.42 82.04 468.2 82.04 472.61 101.54"/><polygon points="332.38 62.27 416 62.27 415.62 61.14 333.62 61.14 324.45 44.98 310.6 44.98 301.9 39.8 300.64 40.42 310.25 46.11 323.12 46.11 332.38 62.27"/><polygon points="839.14 134.52 840.64 134.52 863.5 110.24 930.08 110.24 930.99 109.43 862.62 109.43 839.14 134.52"/><polygon points="550.47 151.71 616.4 151.71 616.52 151.11 551.92 151.11 551.97 142.47 550.47 142.47 550.47 151.71"/><polygon points="70.58 58.94 72.47 58.94 35.58 29.28 180.48 29.28 200.23 51.41 202.14 51.41 181.45 28.08 32.05 28.08 70.58 58.94"/><polygon points="132.63 183.3 153.32 183.3 152.59 182.83 133.16 182.83 47.72 129.49 46.19 129.49 132.63 183.3"/><polygon points="372.53 254.55 373.91 254.55 370.3 250.7 365.18 250.7 353.43 238.47 351.87 238.47 364.1 251.07 369.27 251.07 372.53 254.55"/><polygon points="644.5 248.5 675.48 248.5 681.04 239.88 679.48 239.88 674.25 248.1 646.15 248.1 647.26 245.83 609.26 245.83 609.14 246.23 645.59 246.23 644.5 248.5"/><polygon points="291.67 137.91 280.06 124.17 248.88 124.17 261.84 137.91 291.67 137.91"/><polygon points="418.77 278.12 415.65 274.19 399.13 274.19 402.66 278.12 418.77 278.12"/><polygon points="596.5 73.07 599.06 52.7 560.91 52.7 560.32 73.07 596.5 73.07"/><polygon points="744.76 195.85 751.78 186.93 726.74 186.93 720.6 195.85 744.76 195.85"/><polygon points="445.13 207.4 441.52 199.29 417.68 199.29 422.09 207.4 445.13 207.4"/><polygon points="678.98 118.52 685.18 102.95 651.88 102.95 647.21 118.52 678.98 118.52"/><polygon points="171.9 186.4 157.7 176.75 131.66 176.75 146.8 186.4 171.9 186.4"/><polygon points="413.06 118.44 406.48 102.84 373.21 102.84 381.29 118.44 413.06 118.44"/><polygon points="825.82 228.5 834.44 221.79 812.8 221.79 804.84 228.5 825.82 228.5"/><polygon points="455.19 254.32 452.6 249.16 433.61 249.16 436.73 254.32 455.19 254.32"/><polygon points="563.05 253.38 563.44 248.18 544.39 248.18 544.54 253.38 563.05 253.38"/><polygon points="307.84 219.38 299.93 212.08 277.33 212.08 285.94 219.38 307.84 219.38"/><polygon points="620.02 180.77 622.34 172.18 599.56 172.18 598 180.77 620.02 180.77"/><polygon points="146.71 138.34 128.6 124.64 97.48 124.64 116.91 138.34 146.71 138.34"/><polygon points="533.66 174.12 533.01 163.52 505.68 163.52 507.36 174.12 533.66 174.12"/><polygon points="104 69.97 79.2 49.23 40.66 49.23 67.47 69.97 104 69.97"/><polygon points="624.75 225.45 627.1 218.56 605.14 218.56 603.44 225.45 624.75 225.45"/><polygon points="907.45 89.13 926.2 70.55 889.78 70.55 872.85 89.13 907.45 89.13"/><path d="M276.71,201.9c-6.35,0-13.64-1.78-16.31-4s.38-4.23,6.94-4.23,14,1.9,16.49,4.23S283.06,201.9,276.71,201.9Zm-.62-.54c5.53,0,8.29-1.56,6.17-3.49s-8.61-3.66-14.28-3.66-8.38,1.65-6,3.66S270.57,201.35,276.1,201.35Z"/><path d="M173.75,169.42c-7.2,0-16.25-2.31-20.43-5.24s-1.73-5.45,5.73-5.45,16.87,2.48,20.84,5.45S181,169.42,173.75,169.42Zm-.94-.69c6.26,0,8.64-2,5.29-4.55s-11.55-4.71-18-4.71-8.64,2.14-5,4.71S166.61,168.73,172.81,168.73Z"/><path d="M33.28,104.83c-8.91,0-21.6-3.53-28.66-8-7.29-4.64-5.85-8.47,3.5-8.47s22.6,3.83,29.45,8.47C44.22,101.3,42.19,104.83,33.28,104.83Zm-1.62-1.07c7.76,0,9.44-3.1,3.7-6.93-6-4-17.43-7.33-25.51-7.33S.51,92.81,6.8,96.83C12.83,100.66,24,103.76,31.67,103.76Z"/><path d="M57.89,136c-8.08,0-19.52-2.95-25.6-6.63-6.26-3.79-4.56-6.95,3.88-6.95s20.19,3.16,26.1,6.95C68,133,66,136,57.89,136Zm-1.38-.86c7.05,0,8.76-2.55,3.76-5.77s-15.25-6-22.57-6-8.79,2.7-3.41,6S49.48,135.09,56.5,135.09Z"/><path d="M261.08,236.5c-5.44,0-11.79-1.31-14.17-3s.12-3.08,5.7-3.08,12,1.39,14.31,3.08S266.51,236.5,261.08,236.5Zm-.56-.38c4.73,0,7-1.16,5.08-2.59s-7.55-2.67-12.4-2.67-7.05,1.2-4.94,2.67S255.82,236.12,260.52,236.12Z"/><path d="M378.41,270.49c-4.56,0-9.23-.92-10.43-2.08s1.59-2.12,6.23-2.12,9.38,1,10.46,2.12S382.94,270.49,378.41,270.49Zm-.29-.28c4,0,6.41-.81,5.44-1.8s-5-1.84-9.05-1.84-6.44.83-5.41,1.84S374.18,270.21,378.12,270.21Z"/><path d="M413.54,266.31c-4.67,0-9.23-1-10.23-2.18s2.06-2.23,6.82-2.23,9.38,1,10.26,2.23S418.18,266.31,413.54,266.31Zm-.24-.28c4.06,0,6.73-.84,6-1.9s-4.76-1.93-8.91-1.93-6.79.88-5.91,1.93S409.24,266,413.3,266Z"/><path d="M405.54,257.1c-4.88,0-9.76-1.09-10.88-2.42s2.06-2.48,7.08-2.48,9.93,1.11,10.93,2.48S410.45,257.1,405.54,257.1Zm-.24-.34c4.26,0,7-.92,6.17-2.08s-5.11-2.16-9.46-2.16-7.11,1-6.14,2.16S401,256.76,405.31,256.76Z"/><path d="M433.58,151.5c-5.47,0-10.67-1.86-11.7-4.23s2.65-4.32,8.26-4.32,10.9,2,11.76,4.32S439,151.5,433.58,151.5Zm-.24-.58c4.73,0,8-1.6,7.2-3.64s-5.29-3.72-10.14-3.72-8.05,1.67-7.17,3.72S428.61,150.92,433.35,150.92Z"/><path d="M393.28,200c-4.56,0-9.11-1.28-10.2-2.91s1.7-3,6.41-3,9.26,1.37,10.26,3S397.78,200,393.28,200Zm-.24-.38c3.94,0,6.41-1.13,5.56-2.54s-4.85-2.57-8.88-2.57-6.47,1.16-5.5,2.57S389.11,199.63,393,199.63Z"/><path d="M343.79,179.94c-4.94,0-10.14-1.52-11.7-3.44s1.2-3.49,6.26-3.49,10.35,1.6,11.79,3.49S348.67,179.94,343.79,179.94Zm-.35-.47c4.29,0,6.7-1.31,5.47-3s-5.79-3-10.17-3-6.79,1.37-5.41,3S339.14,179.47,343.43,179.47Z"/><path d="M330.8,233.83c-3.94,0-8.11-1-9.41-2.18s.82-2.2,4.82-2.2,8.26,1,9.46,2.2S334.67,233.83,330.8,233.83Zm-.32-.3c3.41,0,5.29-.83,4.23-1.88s-4.7-1.9-8.17-1.9-5.32.85-4.2,1.9S327.09,233.53,330.47,233.53Z"/><path d="M222.28,140.91c-5.67,0-12.46-2-15.28-4.53s-.53-4.66,5.32-4.66,12.79,2.12,15.43,4.66S227.86,140.91,222.28,140.91Zm-.65-.6c4.91,0,7-1.73,4.7-3.93s-8.29-4-13.31-4-7.08,1.8-4.61,4S216.72,140.31,221.63,140.31Z"/><path d="M331,256.43c-4.91,0-10.17-1.07-11.82-2.42s1-2.5,6.05-2.5,10.4,1.13,12,2.5S335.88,256.43,331,256.43Zm-.38-.34c4.26,0,6.67-.92,5.38-2.08s-6-2.16-10.38-2.16-6.67,1-5.23,2.16S326.36,256.09,330.59,256.09Z"/><path d="M506.62,223.8c-5.76,0-10.85-1.48-11.29-3.34s4-3.47,9.94-3.47,11,1.58,11.31,3.47S512.41,223.8,506.62,223.8Zm-.09-.43c5,0,8.88-1.3,8.64-2.91s-4.64-3-9.82-3-9,1.37-8.61,3S501.51,223.37,506.53,223.37Z"/><path d="M473.08,237.27c-5.44,0-10.37-1.31-11.08-2.95s3.23-3.06,8.82-3.06,10.58,1.39,11.11,3.06S478.49,237.27,473.08,237.27Zm-.15-.39c4.7,0,8.14-1.13,7.67-2.55s-4.79-2.63-9.61-2.63-8.26,1.18-7.67,2.63S468.2,236.87,472.94,236.87Z"/><path d="M183.74,104.3c-8.91,0-20.22-3.59-25.34-8.1s-1.94-8.49,7.41-8.49,21,3.85,25.75,8.49S192.68,104.3,183.74,104.3Zm-1.15-1.07c7.79,0,10.85-3.1,6.76-7s-14.2-7.34-22.31-7.34-10.9,3.32-6.41,7.34S174.84,103.23,182.6,103.23Z"/><path d="M609.41,238.79c-5.38,0-9.38-1.3-9-2.89s5.17-3,10.7-3,9.58,1.37,9,3S614.78,238.79,609.41,238.79Zm.12-.39c4.67,0,8.82-1.13,9.29-2.5s-3-2.61-7.82-2.61-8.91,1.16-9.26,2.61S604.91,238.39,609.52,238.39Z"/><path d="M490.43,49.49c-10.37,0-19.64-4.79-20.84-10.89C468.32,32.27,476.05,27,487,27s20.4,5.26,21,11.59C508.71,44.7,500.77,49.49,490.43,49.49ZM490.19,48c9.05,0,15.9-4.21,15.31-9.45-.59-5.48-8.76-10-18.25-10s-16.17,4.55-15.11,10C473.14,43.84,481.29,48,490.19,48Z"/><path d="M779.29,71.45c-9.81,0-15.22-4.24-12.11-9.69,3.18-5.6,14.08-10.27,24.39-10.27s15.58,4.68,11.85,10.27C799.81,67.21,789.05,71.45,779.29,71.45Zm.76-1.26c8.52,0,17.9-3.76,21-8.43,3.21-4.85-1.38-8.87-10.29-8.87s-18.37,4-21.13,8.87C766.89,66.44,771.62,70.19,780.06,70.19Z"/><path d="M836.14,140.53c-8,0-11.82-2.82-8.61-6.41s12.67-6.72,21-6.72,12,3.06,8.38,6.72S844.11,140.53,836.14,140.53Zm.79-.85c6.94,0,15-2.48,18-5.56s-.09-5.8-7.29-5.8-15.28,2.63-18.16,5.8S830.08,139.69,836.93,139.69Z"/><path d="M788.26,191.17c-6.64,0-10.2-1.93-8-4.43s9.61-4.58,16.49-4.58,10.37,2.07,7.91,4.58S794.9,191.17,788.26,191.17Zm.56-.58c5.76,0,12.14-1.73,14.22-3.85s-.91-4-6.82-4-12.34,1.78-14.31,4S783.12,190.59,788.82,190.59Z"/><path d="M684,234.52c-5.5,0-9.08-1.35-8.08-3s6.38-3.12,12-3.12,9.26,1.41,8.08,3.12S689.53,234.52,684,234.52Zm.29-.41c4.73,0,9.41-1.18,10.4-2.63s-2.12-2.7-7-2.7-9.55,1.22-10.43,2.7S679.59,234.11,684.33,234.11Z"/><path d="M759,121.17c-8.49,0-13.4-3.17-11-7.25s11.7-7.61,20.61-7.61,13.64,3.46,10.73,7.61S767.42,121.17,759,121.17Zm.59-.94c7.38,0,15.28-2.82,17.69-6.31s-1.65-6.57-9.32-6.57-15.61,3-17.81,6.57S752.28,120.23,759.57,120.23Z"/><path d="M1006.7,61.76c-10.05,0-13-4.47-6.38-10.22,6.79-5.9,21-10.84,31.57-10.84s13.08,4.94,5.73,10.84C1030.45,57.29,1016.7,61.76,1006.7,61.76Zm1.56-1.33c8.76,0,20.72-4,26.84-8.88,6.35-5.11,4.17-9.35-5-9.35s-21.37,4.25-27.28,9.35C997.12,56.46,999.65,60.42,1008.26,60.42Z"/><path d="M858.36,191.49c-6.61,0-9.67-1.93-6.76-4.41s10.93-4.58,17.75-4.58,9.82,2.07,6.64,4.58S865,191.49,858.36,191.49Zm.7-.58c5.79,0,12.61-1.71,15.31-3.83s.21-4-5.76-4-12.79,1.8-15.37,4S853.39,190.91,859.07,190.91Z"/><path d="M792.43,224.23c-5.76,0-8.85-1.48-6.88-3.34s8.43-3.46,14.37-3.46,9,1.58,6.79,3.46S798.2,224.23,792.43,224.23Zm.47-.45c5,0,10.58-1.28,12.4-2.89s-.73-3-5.88-3-10.67,1.35-12.43,3S787.94,223.78,792.9,223.78Z"/><path d="M845.69,221.13c-5.88,0-8.61-1.5-6.17-3.42s9.44-3.55,15.46-3.55,8.7,1.6,6,3.55S851.54,221.13,845.69,221.13Zm.62-.45c5.06,0,11-1.31,13.26-3s0-3.08-5.2-3.08S843.16,216,841,217.71,841.28,220.68,846.31,220.68Z"/><path d="M885.78,163c-7.38,0-10.49-2.46-7-5.52s12.76-5.73,20.43-5.73,10.67,2.61,6.79,5.73S893.16,163,885.78,163Zm.85-.73c6.43,0,14.25-2.12,17.52-4.79s.79-4.94-5.85-4.94-14.55,2.24-17.66,4.94S880.29,162.23,886.64,162.23Z"/><path d="M1016,88.13c-9.38,0-12-3.93-5.73-8.88,6.47-5.11,19.81-9.35,29.66-9.35s12,4.24,5.09,9.35C1038.24,84.2,1025.31,88.13,1016,88.13Zm1.53-1.15c8.11,0,19.34-3.42,25.16-7.74,6-4.43,4.06-8.08-4.41-8.08s-20.08,3.64-25.72,8.08C1007.09,83.57,1009.35,87,1017.52,87Z"/><path d="M999,163c-7.41,0-9.52-2.46-4.76-5.52s15.08-5.73,22.75-5.73,9.61,2.61,4.44,5.73C1016.44,160.5,1006.41,163,999,163Zm1.12-.73c6.47,0,15.14-2.12,19.52-4.79s2.76-4.94-3.91-4.94-15.43,2.24-19.66,4.94S993.83,162.23,1000.15,162.23Z"/><path d="M905.21,221.09c-5.85,0-8.23-1.52-5.26-3.46s10.43-3.53,16.46-3.53,8.29,1.6,5.11,3.53S911,221.09,905.21,221.09Zm.74-.45c5.05,0,11.37-1.31,14.11-3s.79-3.06-4.41-3.06S904,216,901.42,217.64,900.86,220.64,905.95,220.64Z"/><path d="M823.65,236.59c-5.41,0-8.11-1.3-6-2.95s8.41-3.06,14-3.06,8.26,1.37,5.94,3.06S829.11,236.59,823.65,236.59Zm.53-.39c4.76,0,10.14-1.15,12.08-2.55S836,231,831.08,231s-10.23,1.18-12.08,2.65S819.53,236.2,824.18,236.2Z"/><path d="M743,148.63c-7.79,0-12.43-2.69-10.38-6.1s10.43-6.33,18.52-6.33,12.61,2.87,10.17,6.33S750.75,148.63,743,148.63Zm.53-.79c6.73,0,13.81-2.35,15.9-5.32s-1.88-5.48-8.85-5.48-14.22,2.5-16,5.48S736.77,147.84,743.55,147.84Z"/><path d="M278.86,249.66c-5.08,0-10.85-1.15-12.93-2.59s.29-2.69,5.53-2.69,11.14,1.22,13.14,2.69S284,249.66,278.86,249.66Zm-.47-.34c4.44,0,6.64-1,5-2.25s-6.85-2.31-11.37-2.31-6.64,1-4.79,2.31S274,249.33,278.39,249.33Z"/><path d="M454.07,273.55c-4.47,0-8.61-.88-9.29-2s2.41-2,7-2,8.76.94,9.35,2S458.53,273.55,454.07,273.55Zm-.15-.28c3.88,0,6.61-.77,6.11-1.73s-4.14-1.77-8.08-1.77-6.67.79-6.09,1.77S450.07,273.27,453.92,273.27Z"/><path d="M436.43,241.61c-5.29,0-10.32-1.26-11.29-2.82s2.59-2.93,8.05-2.93,10.58,1.31,11.4,2.93S441.75,241.61,436.43,241.61Zm-.21-.38c4.61,0,7.79-1.09,7.08-2.44s-5.14-2.54-9.88-2.54-7.82,1.15-7,2.54S431.67,241.23,436.23,241.23Z"/><path d="M378.91,220.81c-5.85,0-11.79-1.52-13.34-3.44s1.91-3.57,8-3.57,12.11,1.63,13.52,3.57S384.76,220.81,378.91,220.81Zm-.35-.45c5.09,0,8.23-1.33,7.05-3s-6.5-3.08-11.7-3.08-8.29,1.39-6.91,3.08S373.53,220.36,378.56,220.36Z"/><path d="M309.43,193.6c-6.55,0-13.76-1.92-16.22-4.34s.88-4.53,7.7-4.53,14.23,2,16.46,4.53S316,193.6,309.43,193.6Zm-.53-.58c5.7,0,8.79-1.69,6.88-3.76s-8.38-3.91-14.28-3.91-8.82,1.75-6.67,3.91S303.25,193,308.9,193Z"/><path d="M523.34,205.47c-6.26,0-11.55-1.73-11.9-3.94s4.53-4.08,11-4.08,11.84,1.84,12,4.08S529.6,205.47,523.34,205.47Zm-.06-.53c5.44,0,9.76-1.52,9.61-3.42s-4.79-3.53-10.4-3.53-9.82,1.6-9.52,3.53S517.91,204.94,523.29,204.94Z"/><path d="M604.85,197.47c-6.47,0-11.31-1.86-10.93-4.19s6.14-4.38,12.84-4.38,11.58,2,10.93,4.38S611.29,197.47,604.85,197.47Zm.12-.54c5.61,0,10.61-1.63,11.14-3.64s-3.71-3.79-9.5-3.79-10.73,1.73-11.11,3.79S599.41,196.92,605,196.92Z"/><path d="M210.87,61.83c-10.05,0-22.37-4.55-27.75-10.29-5.53-5.9-1.65-10.84,9-10.84s23.34,4.94,28.3,10.84C225.25,57.29,220.9,61.83,210.87,61.83Zm-1.21-1.37c8.73,0,12.46-3.93,8.23-8.92s-15.34-9.35-24.51-9.35-12.52,4.25-7.76,9.35S201,60.46,209.67,60.46Z"/><path d="M313.81,118.45c-8.52,0-17.93-3.29-21.13-7.44s1.15-7.78,10.08-7.78,18.63,3.53,21.52,7.78S322.39,118.45,313.81,118.45Zm-.68-1c7.44,0,11.52-2.86,9-6.46s-10.88-6.71-18.63-6.71-11.58,3-8.76,6.71S305.75,117.47,313.13,117.47Z"/><path d="M528.31,118.56c-8.55,0-15.78-3.29-16.26-7.4s6.29-7.78,15.23-7.78,16.31,3.53,16.4,7.78S536.84,118.56,528.31,118.56Zm-.09-1c7.47,0,13.41-2.85,13.32-6.44s-6.43-6.72-14.19-6.72-13.55,3-13.17,6.72S520.91,117.6,528.22,117.6Z"/><path d="M553.21,148.46c-7.73,0-14-2.7-14.17-6.12s6.23-6.33,14.31-6.33,14.49,2.87,14.25,6.33S561,148.46,553.21,148.46Zm0-.81c6.76,0,12.35-2.35,12.49-5.32s-5.38-5.48-12.38-5.48-12.46,2.5-12.37,5.48S546.56,147.65,553.21,147.65Z"/><polygon points="497.33 474.89 301.96 474.89 260.81 537.59 22.82 537.59 20.35 539.48 263.13 539.48 304.08 476.19 494.36 476.19 493.75 517.28 576.4 517.28 576.02 515.63 497.1 515.63 497.33 474.89"/><path d="M31.14,538.55c3.53-2.74,2.23-5-3-5s-12.32,2.23-16,5-2.53,5.09,2.79,5.09S27.58,541.33,31.14,538.55Z"/><path d="M270.39,538.55c1.73-2.74-1.12-5-6.29-5s-11,2.23-12.84,5,.91,5.09,6.26,5.09S268.66,541.33,270.39,538.55Z"/><path d="M582.45,516.46c-.47-2-4.11-3.57-8.11-3.57s-6.91,1.58-6.53,3.57,4,3.64,8.11,3.64S583,518.45,582.45,516.46Z"/><path d="M310,475.53c1.15-1.88-1.41-3.4-5.7-3.4s-8.88,1.52-10.14,3.4,1.23,3.48,5.64,3.48S308.81,477.42,310,475.53Z"/><path d="M504.68,475.53c0-1.88-3.58-3.4-7.85-3.4s-7.88,1.52-7.94,3.4,3.5,3.48,7.88,3.48S504.71,477.42,504.68,475.53Z"/><path d="M502.1,515.91c0-1.54-2.59-2.74-5.56-2.74s-5.61,1.2-5.64,2.74,2.53,2.74,5.59,2.74S502.13,517.43,502.1,515.91Z"/><polygon points="881.79 453.12 700.55 453.12 739.03 506.26 521.55 506.26 521.67 507.8 743.43 507.8 704.08 454.23 880.52 454.23 928.31 489.22 1004.29 489.22 1002.03 487.81 929.49 487.81 881.79 453.12"/><path d="M529.87,506.84c-.2-2.27-4.17-4.11-9-4.11s-8.55,1.84-8.46,4.11,4.17,4.24,9,4.24S530.08,509.17,529.87,506.84Z"/><path d="M748.93,507c-1.74-2.29-7-4.13-11.76-4.13s-7.35,1.84-5.76,4.13,7,4.23,11.85,4.23S750.67,509.36,748.93,507Z"/><path d="M1008.85,488.51a26,26,0,0,0-11.55-3c-3.67,0-4.53,1.33-1.88,3a25.55,25.55,0,0,0,11.64,3.08C1010.73,491.59,1011.61,490.22,1008.85,488.51Z"/><path d="M708.78,453.67c-1.21-1.6-5.5-2.91-9.47-2.91s-6.35,1.32-5.23,2.91,5.44,3,9.52,3S710,455.3,708.78,453.67Z"/><path d="M889.4,453.67c-2.26-1.6-7.38-2.91-11.37-2.91s-5.5,1.32-3.32,2.91,7.35,3,11.43,3S891.66,455.3,889.4,453.67Z"/><path d="M934.4,488a16.81,16.81,0,0,0-8.29-2.27c-2.76,0-3.76,1-2,2.27a16.58,16.58,0,0,0,8.38,2.35C935.28,490.37,936.22,489.33,934.4,488Z"/><polygon points="604.12 424.18 441.87 424.18 432.29 465.99 241.27 465.99 240.18 467.21 434.9 467.21 444.13 425.06 602.03 425.06 613.43 452.76 680.68 452.76 679.95 451.64 615.7 451.64 604.12 424.18"/><path d="M248.41,466.59c1.53-1.75-.65-3.19-4.82-3.19s-8.91,1.45-10.49,3.19.5,3.29,4.76,3.29S246.85,468.39,248.41,466.59Z"/><path d="M440.28,466.59c.35-1.75-2.7-3.19-7-3.19s-7.94,1.45-8.38,3.19,2.65,3.29,6.94,3.29S439.9,468.39,440.28,466.59Z"/><path d="M685.27,452.22c-.85-1.3-4.2-2.35-7.43-2.35s-5.17,1.05-4.35,2.35,4.17,2.37,7.41,2.37S686.15,453.52,685.27,452.22Z"/><path d="M448.72,424.63c.26-1.33-2.38-2.35-6.06-2.35s-6.76,1-7.11,2.35,2.38,2.38,6,2.38S448.45,425.92,448.72,424.63Z"/><path d="M610.52,424.63c-.59-1.33-4-2.35-7.58-2.35s-6.09,1-5.56,2.35,3.91,2.38,7.55,2.38S611.11,425.92,610.52,424.63Z"/><path d="M619.93,451.82c-.41-1-2.85-1.8-5.32-1.8s-4.2.83-3.79,1.8,2.76,1.84,5.32,1.84S620.4,452.86,619.93,451.82Z"/><polygon points="222.57 384.39 220.49 384.39 199.5 400.21 137.25 400.21 40.25 460.65 154.41 460.65 26.7 566.59 30.52 566.59 158.59 459.51 44.87 459.51 138.3 400.92 200.76 400.92 222.57 384.39"/><path d="M35.52,560.84c-5.58,0-13.31,2.57-17.19,5.75s-2.53,5.92,3.2,5.92,13.61-2.69,17.37-5.92S41.1,560.84,35.52,560.84Z"/><path d="M159.67,457.42c-4.09,0-9.05,1.33-11.17,3.06s-.44,3.14,3.73,3.14,9.29-1.43,11.29-3.14S163.79,457.42,159.67,457.42Z"/><path d="M223,383.27c-2.44,0-5.26.6-6.29,1.35s.18,1.37,2.7,1.37,5.32-.62,6.32-1.37S225.42,383.27,223,383.27Z"/><path d="M46.81,457.42c-4.09,0-9.64,1.33-12.43,3.06s-1.68,3.14,2.5,3.14,9.85-1.43,12.55-3.14S50.89,457.42,46.81,457.42Z"/><path d="M141.27,398.39c-3.23,0-7.32.86-9,1.92s-.44,1.93,2.82,1.93,7.32-.85,9.05-1.93S144.48,398.39,141.27,398.39Z"/><path d="M201.26,399.12c-2,0-4.44.53-5.29,1.18s.06,1.22,2.09,1.22a10.72,10.72,0,0,0,5.35-1.22C204.26,399.65,203.35,399.12,201.26,399.12Z"/><polygon points="660.78 384.39 658.7 384.39 670.75 400.21 608.49 400.21 637.86 460.65 752.05 460.65 845.84 566.59 849.72 566.59 753.84 459.51 640.09 459.51 611.05 400.92 673.51 400.92 660.78 384.39"/><path d="M842.66,560.84c-5.58,0-7.94,2.57-5.2,5.75s9.85,5.92,15.58,5.92,8-2.69,5.09-5.92S848.25,560.84,842.66,560.84Z"/><path d="M750.58,457.42c-4.08,0-6.29,1.33-4.79,3.06s6.14,3.14,10.31,3.14,6.29-1.43,4.73-3.14S754.66,457.42,750.58,457.42Z"/><path d="M658.88,383.27c-2.47,0-4,.6-3.47,1.35S658.46,386,661,386s4-.62,3.44-1.37S661.34,383.27,658.88,383.27Z"/><path d="M637.68,457.42c-4.09,0-6.82,1.33-6,3.06s4.88,3.14,9.05,3.14,6.88-1.43,6-3.14S641.77,457.42,637.68,457.42Z"/><path d="M608.7,398.39c-3.23,0-5.5.86-5,1.92s3.61,1.93,6.88,1.93,5.55-.85,5-1.93S611.93,398.39,608.7,398.39Z"/><path d="M670.31,399.12c-2.06,0-3.29.53-2.79,1.18s2.53,1.22,4.64,1.22,3.26-.54,2.73-1.22S672.33,399.12,670.31,399.12Z"/><polygon points="496.72 359.86 494.89 359.86 494.63 372.05 440.19 372.05 426.82 416.87 523.43 416.87 530.72 488.73 533.81 488.73 525.73 416.04 429.44 416.04 441.96 372.62 496.57 372.62 496.72 359.86"/><path d="M531.87,485c-4.5,0-8,1.65-7.88,3.7s4.06,3.78,8.67,3.78,8.14-1.67,7.85-3.78S536.42,485,531.87,485Z"/><path d="M526.2,414.52c-3.47,0-6.23,1-6.12,2.2s3.09,2.25,6.62,2.25,6.29-1,6.11-2.25S529.66,414.52,526.2,414.52Z"/><path d="M495.83,359c-2.21,0-4,.47-4,1s1.73,1.07,4,1.07,3.94-.47,3.94-1.07S498,359,495.83,359Z"/><path d="M428.7,414.52c-3.47,0-6.64,1-7,2.2s2.2,2.25,5.7,2.25,6.7-1,7-2.25S432.17,414.52,428.7,414.52Z"/><path d="M441.55,370.68c-2.82,0-5.38.66-5.64,1.47s1.91,1.5,4.79,1.5,5.41-.68,5.61-1.5S444.37,370.68,441.55,370.68Z"/><path d="M495,371.23c-1.79,0-3.21.41-3.23.92s1.41.94,3.17.94,3.26-.43,3.29-.94S496.74,371.23,495,371.23Z"/><polygon points="774.89 370.78 772.98 370.78 792.2 384.51 734.24 384.51 791.9 435.9 896.3 435.9 1026.58 521.49 1029.98 521.49 897.37 434.92 793.43 434.92 737.09 385.13 795.11 385.13 774.89 370.78"/><path d="M1021.4,517c-5.06,0-6,2-2.26,4.49s11,4.62,16.17,4.62,5.91-2.08,2-4.62A34.53,34.53,0,0,0,1021.4,517Z"/><path d="M893.42,433.17c-3.82,0-5.08,1.16-3,2.57s7,2.61,10.85,2.61,5.05-1.2,2.82-2.61S897.16,433.17,893.42,433.17Z"/><path d="M772.53,369.78c-2.26,0-3.44.53-2.53,1.18s3.58,1.18,5.85,1.18,3.47-.53,2.53-1.18S774.86,369.78,772.53,369.78Z"/><path d="M790.2,433.17c-3.82,0-5.52,1.16-4,2.57s5.91,2.61,9.79,2.61,5.5-1.2,3.85-2.61S793.93,433.17,790.2,433.17Z"/><path d="M733.59,383c-3.09,0-4.64.75-3.64,1.65s4.29,1.69,7.41,1.69,4.64-.77,3.56-1.69S736.62,383,733.59,383Z"/><path d="M791.26,383.59c-1.88,0-2.82.45-2,1a10.48,10.48,0,0,0,4.91,1.05c1.91,0,2.82-.47,2-1.05A10.72,10.72,0,0,0,791.26,383.59Z"/><polygon points="636.42 337.27 634.8 337.27 642.62 346.6 595.15 346.6 613.64 379.62 695.47 379.62 742.67 428.83 745.17 428.83 696.91 379.02 615.31 379.02 597.06 347.02 644.68 347.02 636.42 337.27"/><path d="M741.58,426.41c-3.61,0-5.61,1.07-4.35,2.42s5.38,2.46,9.08,2.46,5.62-1.13,4.29-2.46S745.23,426.41,741.58,426.41Z"/><path d="M694.88,378c-2.94,0-4.73.69-3.88,1.58s3.94,1.62,6.93,1.62,4.7-.73,3.85-1.62S697.79,378,694.88,378Z"/><path d="M635,336.59c-1.91,0-3.18.38-2.79.81s2.23.83,4.17.83,3.17-.36,2.79-.83S636.92,336.59,635,336.59Z"/><path d="M613.7,378c-2.91,0-5,.69-4.5,1.58s3.32,1.62,6.32,1.62,5-.73,4.47-1.62S616.64,378,613.7,378Z"/><path d="M595.42,345.55c-2.47,0-4.23.51-3.91,1.11s2.68,1.15,5.17,1.15,4.26-.51,3.88-1.15S597.85,345.55,595.42,345.55Z"/><path d="M642.33,346c-1.53,0-2.56.3-2.24.68s1.88.71,3.41.71,2.59-.32,2.23-.71S643.91,346,642.33,346Z"/><polygon points="528.17 372.24 527.31 372.24 528.2 378.29 502.77 378.29 503.12 397.52 543.33 397.52 547.98 420.93 549.12 420.93 544.3 397.19 504.15 397.19 503.71 378.55 529.11 378.55 528.17 372.24"/><path d="M548.36,419.89c-1.65,0-2.82.45-2.73,1s1.5,1,3.15,1,2.82-.45,2.7-1S550,419.89,548.36,419.89Z"/><path d="M543.65,396.62c-1.47,0-2.56.36-2.47.83s1.32.87,2.82.87,2.56-.38,2.47-.87S545.13,396.62,543.65,396.62Z"/><path d="M527.67,371.77c-1,0-1.85.24-1.82.54s.94.53,2,.53,1.91-.23,1.85-.53S528.72,371.77,527.67,371.77Z"/><path d="M503.62,396.62c-1.47,0-2.62.36-2.62.83s1.17.87,2.64.87,2.65-.38,2.65-.87S505.09,396.62,503.62,396.62Z"/><path d="M503.24,377.63c-1.38,0-2.41.32-2.41.69s1.06.73,2.44.73,2.41-.34,2.38-.73S504.56,377.63,503.24,377.63Z"/><path d="M528.25,377.89c-.82,0-1.44.21-1.41.43s.71.45,1.53.45,1.53-.19,1.47-.45S529.08,377.89,528.25,377.89Z"/><polygon points="720.57 386.61 721.48 386.61 714.57 380.05 740.17 380.05 720.86 363.64 686.86 363.64 672.83 349.55 672.01 349.55 686.18 363.86 720.3 363.86 738.97 379.79 713.43 379.79 720.57 386.61"/><path d="M672.92,350.08c1.17,0,1.85-.24,1.56-.53a4.81,4.81,0,0,0-2.59-.54c-1.18,0-1.82.24-1.53.54A4.85,4.85,0,0,0,672.92,350.08Z"/><path d="M687,364.28c1.26,0,2-.26,1.65-.62a5.41,5.41,0,0,0-2.85-.6c-1.26,0-1.94.28-1.62.6A5,5,0,0,0,687,364.28Z"/><path d="M721.54,387.16c1.18,0,1.82-.26,1.44-.64a5.14,5.14,0,0,0-2.74-.6c-1.09,0-1.73.26-1.38.6A4.75,4.75,0,0,0,721.54,387.16Z"/><path d="M721.24,364.28c1.21,0,1.94-.26,1.5-.62a6.15,6.15,0,0,0-2.94-.6c-1.23,0-1.91.28-1.53.6A5.76,5.76,0,0,0,721.24,364.28Z"/><path d="M740.58,380.75c1.29,0,2-.32,1.56-.73a6.58,6.58,0,0,0-3.26-.71c-1.38,0-2.06.32-1.59.71A6.23,6.23,0,0,0,740.58,380.75Z"/><path d="M714.93,380.49c.82,0,1.23-.21,1-.47a3.5,3.5,0,0,0-1.94-.45c-.88,0-1.32.21-1.06.45A3.45,3.45,0,0,0,714.93,380.49Z"/><polygon points="118.49 508.19 120.81 508.19 148.71 483.62 209.52 483.62 259.11 430.73 186.16 430.73 232.24 393.05 230.66 393.05 183.51 431.39 256.73 431.39 208.29 482.67 147.59 482.67 118.49 508.19"/><path d="M229.89,394.35c2.23,0,4.82-.58,5.7-1.3s-.35-1.3-2.56-1.3-4.76.56-5.64,1.3S227.6,394.35,229.89,394.35Z"/><path d="M183,432.63c2.62,0,5.82-.81,7.05-1.8s-.12-1.77-2.7-1.77-5.73.79-6.94,1.77S180.28,432.63,183,432.63Z"/><path d="M117.35,510.24c2.82,0,6.2-1.07,7.73-2.44s.56-2.4-2.2-2.4-6.35,1.09-7.88,2.4S114.5,510.24,117.35,510.24Z"/><path d="M256.43,432.63c2.67,0,5.58-.81,6.5-1.8s-.53-1.77-3.17-1.77-5.53.79-6.47,1.77S253.73,432.63,256.43,432.63Z"/><path d="M206.14,486.07c3.26,0,6.94-1.17,8.23-2.59s-.18-2.57-3.35-2.57-6.88,1.15-8.26,2.57S202.88,486.07,206.14,486.07Z"/><path d="M146.65,485.09a9.69,9.69,0,0,0,5.44-1.62c1-.86.15-1.58-1.79-1.58a9.55,9.55,0,0,0-5.44,1.58C143.8,484.38,144.56,485.09,146.65,485.09Z"/><polygon points="496.66 391.06 496.66 390.59 461.06 390.59 463.24 378.12 368.8 378.12 356.93 396.68 253.17 396.68 252.61 397.17 358.19 397.17 369.98 378.55 461.68 378.55 459.39 391.06 496.66 391.06"/><path d="M256.05,397.09c.79-.73-.41-1.33-2.7-1.33s-4.85.6-5.67,1.33.35,1.33,2.67,1.33S255.23,397.82,256.05,397.09Z"/><path d="M361.19,396.92c.47-.73-1-1.33-3.35-1.33s-4.5.6-5,1.33,1,1.35,3.32,1.35S360.72,397.65,361.19,396.92Z"/><path d="M499.45,390.84c0-.56-1.47-1-3.29-1s-3.23.47-3.23,1,1.41,1,3.2,1S499.45,391.4,499.45,390.84Z"/><path d="M372.71,378.35c.38-.62-1-1.11-3.12-1.11s-4.14.49-4.53,1.11.94,1.13,3.09,1.13S372.33,379,372.71,378.35Z"/><path d="M466.79,378.35c.12-.62-1.53-1.11-3.64-1.11s-3.91.49-4,1.11,1.5,1.13,3.62,1.13S466.71,379,466.79,378.35Z"/><path d="M463.27,390.69c.09-.45-1-.79-2.35-.79s-2.62.34-2.67.79.94.77,2.41.77S463.21,391.1,463.27,390.69Z"/><polygon points="676.8 363.75 676.45 363.39 645.33 363.39 637.89 353.81 554.71 353.81 559.12 368.01 468.76 368.01 468.7 368.39 560.58 368.39 556.03 354.13 636.83 354.13 644.24 363.75 676.8 363.75"/><path d="M472.35,368.2c.09-.56-1.47-1-3.47-1s-3.67.45-3.76,1,1.41,1,3.44,1S472.29,368.77,472.35,368.2Z"/><path d="M563.06,368.2c-.21-.56-2-1-3.94-1s-3.5.45-3.35,1,1.94,1,4,1S563.23,368.77,563.06,368.2Z"/><path d="M679.09,363.58c-.41-.43-2.06-.79-3.64-.79s-2.56.36-2.14.79,2.06.79,3.61.79S679.51,364,679.09,363.58Z"/><path d="M558.32,354c-.14-.47-1.79-.86-3.61-.86s-3.26.39-3.12.86,1.76.88,3.64.88S558.47,354.45,558.32,354Z"/><path d="M641.12,354c-.38-.47-2.2-.86-4-.86s-3.06.39-2.68.86,2.15.88,4,.88S641.47,354.45,641.12,354Z"/><path d="M647.32,363.45a4.56,4.56,0,0,0-2.65-.6c-1.23,0-2,.28-1.76.6a4.45,4.45,0,0,0,2.7.6C646.82,364.05,647.59,363.79,647.32,363.45Z"/><polygon points="979.05 559.79 977.22 558.3 913.85 558.3 873.09 520.64 712.46 520.64 747.79 577.9 559.09 577.9 559.35 579.53 751.61 579.53 715.6 521.85 871.88 521.85 912.68 559.79 979.05 559.79"/><path d="M566.82,578.72c-.41-2.44-4.11-4.36-8.26-4.36s-7.14,1.92-6.82,4.36,4,4.49,8.14,4.49S567.23,581.18,566.82,578.72Z"/><path d="M756.37,578.72c-1.56-2.44-6.14-4.36-10.31-4.36s-6.35,1.92-4.88,4.36,6.12,4.49,10.38,4.49S757.93,581.18,756.37,578.72Z"/><path d="M983.16,559.06a18.67,18.67,0,0,0-9.94-3.25c-3.18,0-4.06,1.47-1.88,3.25a18.65,18.65,0,0,0,10,3.27C984.57,562.32,985.4,560.84,983.16,559.06Z"/><path d="M718.78,520.23c-1.12-1.78-4.91-3.19-8.46-3.19s-5.59,1.41-4.5,3.19,4.88,3.29,8.52,3.29S720,522.05,718.78,520.23Z"/><path d="M879.76,521.25c-2-1.8-6.41-3.21-9.88-3.21s-4.94,1.41-3.06,3.21,6.41,3.27,10.08,3.27C880.4,524.51,881.76,523,879.76,521.25Z"/><path d="M918.11,558.57a12,12,0,0,0-7.14-2.52c-2.56,0-3.35,1.09-1.85,2.52a12.08,12.08,0,0,0,7.26,2.46C918.82,561,919.59,559.92,918.11,558.57Z"/><polygon points="204.23 451.07 204.58 450.75 185.16 450.75 195.32 441.81 142.45 441.81 124.96 454.9 69.11 454.9 68.58 455.26 125.37 455.26 142.86 442.13 194.12 442.13 183.92 451.07 204.23 451.07"/><path d="M71.11,455.11c.79-.53.29-.9-.91-.9a8,8,0,0,0-3.67.9c-.76.49-.29.88.91.88A8.31,8.31,0,0,0,71.11,455.11Z"/><path d="M127.11,455.11c.68-.53.18-.9-1.06-.9a6.4,6.4,0,0,0-3.38.9c-.68.49-.24.88,1,.88A7,7,0,0,0,127.11,455.11Z"/><path d="M205.91,450.92c.41-.39,0-.75-1-.75a4.46,4.46,0,0,0-2.56.75c-.41.38,0,.69,1,.69A4.42,4.42,0,0,0,205.91,450.92Z"/><path d="M144.51,442c.62-.45.15-.83-1-.83a6.37,6.37,0,0,0-3.2.83c-.62.45-.18.81,1,.81A6.43,6.43,0,0,0,144.51,442Z"/><path d="M197.15,442c.53-.45-.06-.83-1.21-.83a5.78,5.78,0,0,0-3.12.83c-.53.45.06.81,1.23.81A5.7,5.7,0,0,0,197.15,442Z"/><path d="M186.33,450.79c.35-.3.06-.55-.73-.55a3.39,3.39,0,0,0-2,.55c-.35.32-.09.56.76.56A3.3,3.3,0,0,0,186.33,450.79Z"/><polygon points="434.49 435.09 434.55 434.81 416.27 434.81 418.8 426.86 368.89 426.86 362.86 438.49 310.31 438.49 310.07 438.83 363.54 438.83 369.5 427.14 417.92 427.14 415.36 435.09 434.49 435.09"/><path d="M312.34,438.68c.32-.47-.44-.83-1.59-.83a3.94,3.94,0,0,0-2.7.83c-.32.43.44.77,1.59.77A4.17,4.17,0,0,0,312.34,438.68Z"/><path d="M365.07,438.68c.21-.47-.56-.83-1.73-.83s-2.29.36-2.53.83.56.77,1.7.77S364.83,439.11,365.07,438.68Z"/><path d="M436,434.94c.06-.34-.59-.64-1.5-.64s-1.82.3-1.88.64.56.64,1.56.64S435.87,435.3,436,434.94Z"/><path d="M371,427c.21-.41-.56-.73-1.68-.73a3.29,3.29,0,0,0-2.41.73c-.21.39.59.71,1.68.71S370.77,427.41,371,427Z"/><path d="M420.65,427c.12-.41-.71-.73-1.79-.73s-2.15.32-2.29.73.73.71,1.82.71S420.5,427.41,420.65,427Z"/><path d="M417.39,434.86c.09-.3-.35-.51-1.12-.51s-1.35.21-1.47.51.41.49,1.18.49S417.33,435.11,417.39,434.86Z"/><polygon points="715.98 483.58 715.66 483.12 690.88 483.12 683.03 470.5 616.02 470.5 623.4 489.09 551.74 489.09 551.83 489.58 624.69 489.58 617.26 470.93 682.27 470.93 690.09 483.58 715.98 483.58"/><path d="M554.62,489.33c-.15-.73-1.5-1.32-3.06-1.32s-2.79.58-2.67,1.32,1.5,1.31,3.15,1.31S554.74,490,554.62,489.33Z"/><path d="M626.6,489.33c-.32-.73-1.82-1.32-3.44-1.32s-2.59.58-2.29,1.32,1.79,1.31,3.32,1.31S626.87,490,626.6,489.33Z"/><path d="M717.81,483.36a4.13,4.13,0,0,0-3-1c-1.26,0-1.91.47-1.53,1a4.08,4.08,0,0,0,2.94,1C717.54,484.34,718.19,483.9,717.81,483.36Z"/><path d="M619,470.72c-.29-.68-1.67-1.18-3.23-1.18s-2.44.51-2.18,1.18,1.65,1.13,3.12,1.13S619.28,471.32,619,470.72Z"/><path d="M685.65,470.72c-.41-.68-1.94-1.18-3.38-1.18s-2.44.51-2,1.18,1.91,1.13,3.47,1.13S686,471.32,685.65,470.72Z"/><path d="M692.44,483.19a2.84,2.84,0,0,0-2.2-.79c-1,0-1.53.36-1.26.79a3,3,0,0,0,2.26.79C692.24,484,692.71,483.62,692.44,483.19Z"/><polygon points="304.64 400.15 303.84 400.15 298.73 406.09 276.89 406.09 259.08 424.63 293.14 424.63 275.1 446.53 276.01 446.53 294.26 424.31 260.22 424.31 277.39 406.35 299.29 406.35 304.64 400.15"/><path d="M276.36,445.57a5.08,5.08,0,0,0-3.26,1c-.41.53.32,1,1.68,1a4.93,4.93,0,0,0,3.23-1C278.42,446,277.68,445.57,276.36,445.57Z"/><path d="M294.29,423.76a4.61,4.61,0,0,0-2.94.81c-.35.45.35.81,1.62.81a4.53,4.53,0,0,0,2.91-.81C296.23,424.12,295.52,423.76,294.29,423.76Z"/><path d="M304.64,399.7a3.63,3.63,0,0,0-2.18.54c-.26.3.32.53,1.23.53a3.32,3.32,0,0,0,2.09-.53C306,399.95,305.55,399.7,304.64,399.7Z"/><path d="M260.37,423.76a5.11,5.11,0,0,0-3,.81c-.41.45.26.81,1.47.81a5.12,5.12,0,0,0,3-.81C262.25,424.12,261.58,423.76,260.37,423.76Z"/><path d="M277.92,405.45a5,5,0,0,0-2.73.68c-.38.39.26.69,1.41.69a4.63,4.63,0,0,0,2.73-.69C279.68,405.77,279.06,405.45,277.92,405.45Z"/><path d="M299.2,405.71a3.14,3.14,0,0,0-1.73.41c-.21.26.21.45,1,.45a2.51,2.51,0,0,0,1.65-.45C300.26,405.92,299.9,405.71,299.2,405.71Z"/><polygon points="562.91 404.51 563.7 404.51 562.06 398.61 583.16 398.61 577.51 383.64 549.01 383.64 545.86 370.44 545.18 370.44 548.33 383.85 576.87 383.85 582.31 398.37 561.2 398.37 562.91 404.51"/><path d="M545.63,370.94c1,0,1.7-.23,1.65-.51s-.91-.49-1.88-.49-1.71.23-1.62.49S544.65,370.94,545.63,370.94Z"/><path d="M548.8,384.24c1,0,1.82-.24,1.74-.56s-1-.56-2-.56-1.82.24-1.76.56S547.77,384.24,548.8,384.24Z"/><path d="M563.44,404.94c.94,0,1.59-.23,1.5-.54s-.88-.56-1.79-.56-1.59.26-1.5.56S562.5,404.94,563.44,404.94Z"/><path d="M577.37,384.24c1,0,1.79-.24,1.67-.56s-1.06-.56-2.09-.56-1.76.24-1.65.56S576.37,384.24,577.37,384.24Z"/><path d="M583,399.23c1.09,0,1.91-.3,1.76-.66s-1.15-.64-2.26-.64-1.88.28-1.74.64S581.92,399.23,583,399.23Z"/><path d="M562,399c.65,0,1.2-.15,1.12-.39s-.7-.41-1.35-.41-1.23.19-1.18.41S561.32,399,562,399Z"/><polygon points="881.43 516.92 882.35 516.92 871 506.8 895.37 506.8 864.97 481.33 832.35 481.33 808.42 459.32 807.66 459.32 831.94 481.69 864.59 481.69 894.04 506.39 869.65 506.39 881.43 516.92"/><path d="M809,460.15c1.06,0,1.56-.38,1.09-.83a5.29,5.29,0,0,0-2.85-.79c-1.15,0-1.68.36-1.21.79A5.1,5.1,0,0,0,809,460.15Z"/><path d="M833.08,482.33c1.12,0,1.67-.39,1.09-1a5.64,5.64,0,0,0-3.15-.94c-1.26,0-1.76.43-1.23.94A5.45,5.45,0,0,0,833.08,482.33Z"/><path d="M882.73,517.72c1.09,0,1.5-.43.94-.92a5.21,5.21,0,0,0-3.05-1c-1.06,0-1.41.41-.79,1A5.12,5.12,0,0,0,882.73,517.72Z"/><path d="M865.8,482.33c1.17,0,1.65-.39,1-1a6.14,6.14,0,0,0-3.26-.94c-1.23,0-1.59.43-1,.94A5.55,5.55,0,0,0,865.8,482.33Z"/><path d="M896.28,507.87c1.26,0,1.67-.53.91-1.16a6.55,6.55,0,0,0-3.61-1.11c-1.35,0-1.67.51-1,1.11A6.41,6.41,0,0,0,896.28,507.87Z"/><path d="M871.44,507.38c.88,0,1.17-.26.67-.68a3.66,3.66,0,0,0-2.2-.68c-.73,0-1.06.32-.65.68A3.74,3.74,0,0,0,871.44,507.38Z"/><polygon points="411.24 535.63 412.15 535.63 414.86 524.42 440.66 524.42 445.37 496.25 411.04 496.25 417.62 472.17 416.89 472.17 410.13 496.68 444.37 496.68 439.75 523.91 414.12 523.91 411.24 535.63"/><path d="M417.06,473.07c1.12,0,2.17-.41,2.32-.9s-.73-.9-1.82-.9-2.29.39-2.41.9S415.86,473.07,417.06,473.07Z"/><path d="M410.39,497.37c1.21,0,2.35-.49,2.5-1s-.73-1-1.94-1-2.47.45-2.62,1S409.07,497.37,410.39,497.37Z"/><path d="M411.42,536.54c1.18,0,2.23-.47,2.38-1.07s-.71-1-1.88-1-2.06.43-2.2,1S410.3,536.54,411.42,536.54Z"/><path d="M444.72,497.37c1.21,0,2.29-.49,2.41-1s-.88-1-2.06-1-2.29.45-2.41,1S443.49,497.37,444.72,497.37Z"/><path d="M440,525.55c1.32,0,2.53-.51,2.65-1.22s-.94-1.2-2.2-1.2-2.53.54-2.65,1.2S438.64,525.55,440,525.55Z"/><path d="M414.53,525.1c.88,0,1.68-.36,1.76-.77s-.53-.77-1.38-.77-1.65.36-1.76.77S413.68,525.1,414.53,525.1Z"/><polygon points="687.8 450.02 688.76 450.02 683 441.66 708.14 441.66 691.65 420.63 658.14 420.63 646.44 402.56 645.68 402.56 657.49 420.93 691.03 420.93 706.93 441.31 681.8 441.31 687.8 450.02"/><path d="M646.5,403.21c1.12,0,1.85-.28,1.62-.66a3.66,3.66,0,0,0-2.47-.68c-1.12,0-1.85.3-1.62.68S645.38,403.21,646.5,403.21Z"/><path d="M658.26,421.45c1.23,0,2-.36,1.7-.79a3.92,3.92,0,0,0-2.7-.77c-1.21,0-2,.36-1.71.77A3.93,3.93,0,0,0,658.26,421.45Z"/><path d="M688.77,450.72c1.09,0,1.73-.38,1.41-.83a3.62,3.62,0,0,0-2.53-.77c-1.12,0-1.76.34-1.47.77A3.69,3.69,0,0,0,688.77,450.72Z"/><path d="M691.88,421.45c1.21,0,1.94-.36,1.59-.79a4.49,4.49,0,0,0-2.82-.77c-1.2,0-1.94.36-1.59.77A4.36,4.36,0,0,0,691.88,421.45Z"/><path d="M708.34,442.53c1.32,0,2.09-.43,1.71-.92a4.69,4.69,0,0,0-3.15-.92c-1.29,0-2.09.38-1.65.92A4.75,4.75,0,0,0,708.34,442.53Z"/><path d="M683.18,442.17c.85,0,1.35-.28,1.15-.56a2.78,2.78,0,0,0-1.94-.6c-.85,0-1.29.26-1.06.6A2.7,2.7,0,0,0,683.18,442.17Z"/><polygon points="1028.1 529.17 1027.16 528.55 999.24 528.55 976.28 512.32 901.18 512.32 929.81 536.35 848.89 536.35 849.46 536.93 931.78 536.93 903.07 512.89 975.93 512.89 998.88 529.17 1028.1 529.17"/><path d="M852.42,536.67a7.72,7.72,0,0,0-4.85-1.69c-1.79,0-2.5.75-1.62,1.69a7.77,7.77,0,0,0,4.88,1.69C852.63,538.36,853.33,537.59,852.42,536.67Z"/><path d="M933.64,536.67A9.42,9.42,0,0,0,928.4,535c-1.76,0-2.32.75-1.23,1.69a9.5,9.5,0,0,0,5.26,1.69C934.22,538.36,934.75,537.59,933.64,536.67Z"/><path d="M1029.89,528.87a9.46,9.46,0,0,0-4.5-1.31c-1.44,0-1.79.56-.7,1.31a9.59,9.59,0,0,0,4.58,1.3C1030.63,530.17,1031,529.6,1029.89,528.87Z"/><path d="M904.74,512.59a8.92,8.92,0,0,0-4.79-1.47c-1.65,0-2.2.68-1.26,1.47a8.8,8.8,0,0,0,4.79,1.48C905.15,514.07,905.71,513.39,904.74,512.59Z"/><path d="M979.52,512.59a10.58,10.58,0,0,0-5.11-1.47c-1.65,0-2.09.68-.94,1.47a10.33,10.33,0,0,0,5.11,1.48C980.25,514.07,980.66,513.39,979.52,512.59Z"/><path d="M1001.12,528.65a6.67,6.67,0,0,0-3.35-1c-1.12,0-1.35.45-.62,1a6.84,6.84,0,0,0,3.5,1C1001.8,529.68,1001.94,529.25,1001.12,528.65Z"/><polygon points="335.56 396.98 333.41 396.98 288.53 457.22 401.31 457.22 367.54 554.91 262.52 554.91 226.39 612.98 230.74 612.98 265.01 556.97 370.56 556.97 404.45 456.09 292.12 456.09 335.56 396.98"/><path d="M333.09,398.87c3.23,0,6.5-.84,7.23-1.9s-1.26-1.86-4.47-1.86-6.44.85-7.23,1.86S329.85,398.87,333.09,398.87Z"/><path d="M288.35,459.3c4.11,0,8.44-1.33,9.61-3s-1.15-3-5.17-3-8.35,1.3-9.64,3S284.24,459.3,288.35,459.3Z"/><path d="M225.45,618c5.26,0,11.14-2.69,13.08-6s-.65-5.82-5.82-5.82c-4.94,0-10.76,2.65-12.76,5.82S220.37,618,225.45,618Z"/><path d="M402,459.3c4.11,0,7.91-1.33,8.41-3s-2.35-3-6.35-3-7.82,1.3-8.44,3S397.87,459.3,402,459.3Z"/><path d="M366.86,562.27c5.61,0,11-2.54,12-5.6s-2.73-5.46-8.17-5.46-10.76,2.37-11.9,5.46S361.28,562.27,366.86,562.27Z"/><path d="M262.52,560.16c3.44,0,7.29-1.6,8.44-3.49s-.79-3.44-4.2-3.44-7.2,1.5-8.44,3.44S258.93,560.16,262.52,560.16Z"/><polygon points="629.51 556.29 372.65 556.29 372.33 557.33 629.83 557.33 629.51 556.29"/><path d="M640.5,556.86c-1.23-3.32-7-5.88-12.82-5.88s-9.88,2.55-8.85,5.88,6.85,6,12.9,6S641.74,560.16,640.5,556.86Z"/><polygon points="251.14 396.92 250.03 396.92 222.54 421.45 184.92 430.68 185.42 431 223.57 421.62 251.14 396.92"/><polygon points="614.35 379.08 597.74 379.08 607.61 399.48 608.7 399.48 598.88 379.38 614.52 379.38 614.35 379.08"/><polygon points="357.98 396.92 356.37 396.92 343.46 417.06 427.94 417.06 428.14 416.42 345.61 416.42 357.98 396.92"/><polygon points="793.99 435.75 792.11 435.75 804.01 446.36 874.59 446.36 884.43 453.48 886.46 453.48 875.47 445.57 805.13 445.57 793.99 435.75"/><polygon points="685.45 399.93 670.93 399.93 671.34 400.45 684.18 400.45 707.78 429.17 744.26 429.17 743.58 428.48 709.11 428.48 685.45 399.93"/><polygon points="461.53 390.69 459.98 390.69 456.95 407.42 525.43 407.42 526.52 416.72 528.31 416.72 527.14 406.86 458.71 406.86 461.53 390.69"/><polygon points="576.75 403.99 563.17 403.99 563.29 404.36 575.78 404.36 581.31 420.93 548.56 420.93 548.65 421.36 582.69 421.36 576.75 403.99"/><polygon points="42.13 460.48 40.75 460.48 25.23 470.16 110.64 470.16 20.7 538.55 22.56 538.55 112.91 469.54 27.64 469.54 42.13 460.48"/><polygon points="205.79 563.53 31.05 563.53 29.73 564.62 203.03 564.62 166.87 612.25 228.98 612.25 229.8 610.92 170.08 610.92 205.79 563.53"/><polygon points="576.4 516.46 573.84 516.46 578.43 537.38 680.07 537.38 671.19 519.59 712.19 519.59 711.4 518.32 667.96 518.32 676.63 535.95 580.84 535.95 576.4 516.46"/><polygon points="716.66 555.73 633.04 555.73 633.42 556.86 715.43 556.86 724.6 573.01 738.44 573.01 747.14 578.2 748.4 577.58 738.79 571.89 725.92 571.89 716.66 555.73"/><polygon points="209.9 483.47 208.41 483.47 185.54 507.76 118.96 507.76 118.05 508.57 186.42 508.57 209.9 483.47"/><polygon points="498.57 466.29 432.64 466.29 432.52 466.89 497.13 466.89 497.07 475.53 498.54 475.53 498.57 466.29"/><polygon points="978.46 559.06 976.58 559.06 1013.46 588.72 868.56 588.72 848.81 566.59 846.9 566.59 867.59 589.92 1016.99 589.92 978.46 559.06"/><polygon points="916.41 434.69 895.72 434.69 896.45 435.16 915.88 435.16 1001.33 488.51 1002.86 488.51 916.41 434.69"/><polygon points="676.51 363.45 675.13 363.45 678.74 367.3 683.86 367.3 695.62 379.53 697.17 379.53 684.95 366.93 679.77 366.93 676.51 363.45"/><polygon points="404.54 369.5 373.56 369.5 368.01 378.12 369.56 378.12 374.8 369.89 402.89 369.89 401.78 372.17 439.78 372.17 439.9 371.77 403.45 371.77 404.54 369.5"/><polygon points="757.37 480.09 768.98 493.82 800.16 493.82 787.2 480.09 757.37 480.09"/><polygon points="630.28 339.88 633.39 343.8 649.91 343.8 646.38 339.88 630.28 339.88"/><polygon points="452.54 544.93 449.98 565.29 488.13 565.29 488.72 544.93 452.54 544.93"/><polygon points="304.28 422.15 297.26 431.07 322.3 431.07 328.44 422.15 304.28 422.15"/><polygon points="603.91 410.6 607.52 418.71 631.36 418.71 626.95 410.6 603.91 410.6"/><polygon points="370.06 499.48 363.86 515.05 397.16 515.05 401.84 499.48 370.06 499.48"/><polygon points="877.14 431.6 891.34 441.25 917.38 441.25 902.24 431.6 877.14 431.6"/><polygon points="635.98 499.55 642.56 515.16 675.83 515.16 667.75 499.55 635.98 499.55"/><polygon points="223.22 389.5 214.61 396.21 236.24 396.21 244.21 389.5 223.22 389.5"/><polygon points="593.86 363.68 596.44 368.84 615.43 368.84 612.32 363.68 593.86 363.68"/><polygon points="485.96 364.62 485.6 369.82 504.62 369.82 504.48 364.62 485.96 364.62"/><polygon points="741.2 398.61 749.11 405.92 771.71 405.92 763.1 398.61 741.2 398.61"/><polygon points="429.02 437.23 426.7 445.81 449.48 445.81 451.04 437.23 429.02 437.23"/><polygon points="902.33 479.66 920.44 493.35 951.57 493.35 932.14 479.66 902.33 479.66"/><polygon points="515.38 443.88 516 454.47 543.36 454.47 541.66 443.88 515.38 443.88"/><polygon points="945.04 548.03 969.85 568.77 1008.38 568.77 981.57 548.03 945.04 548.03"/><polygon points="424.29 392.54 421.94 399.44 443.9 399.44 445.6 392.54 424.29 392.54"/><polygon points="141.6 528.87 122.84 547.45 159.26 547.45 176.19 528.87 141.6 528.87"/><path d="M772.33,416.1c6.35,0,13.64,1.78,16.31,4s-.38,4.23-6.94,4.23-14-1.9-16.49-4.23S766,416.1,772.33,416.1Zm.62.54c-5.53,0-8.29,1.56-6.17,3.49s8.61,3.66,14.28,3.66,8.38-1.65,6-3.66S778.47,416.64,772.95,416.64Z"/><path d="M875.29,448.57c7.2,0,16.25,2.31,20.43,5.24s1.73,5.45-5.73,5.45-16.87-2.48-20.84-5.45S868.06,448.57,875.29,448.57Zm.94.7c-6.26,0-8.64,2-5.29,4.54s11.55,4.71,18,4.71,8.64-2.14,5-4.71S882.43,449.27,876.23,449.27Z"/><path d="M1015.76,513.17c8.91,0,21.6,3.53,28.66,8,7.29,4.64,5.85,8.47-3.5,8.47s-22.6-3.83-29.45-8.47C1004.82,516.7,1006.85,513.17,1015.76,513.17Zm1.62,1.07c-7.76,0-9.44,3.1-3.7,6.93,6,4,17.43,7.33,25.51,7.33s9.35-3.31,3.06-7.33C1036.22,517.34,1025,514.24,1017.37,514.24Z"/><path d="M991.16,482c8.08,0,19.52,2.95,25.6,6.63,6.26,3.79,4.56,6.95-3.88,6.95s-20.19-3.15-26.1-6.95C981,485,983.07,482,991.16,482Zm1.38.86c-7.05,0-8.76,2.55-3.76,5.77s15.25,6,22.57,6,8.79-2.7,3.41-6S999.56,482.91,992.54,482.91Z"/><path d="M788,381.5c5.44,0,11.79,1.32,14.17,3s-.12,3.08-5.7,3.08-12-1.39-14.31-3.08S782.53,381.5,788,381.5Zm.56.38c-4.73,0-7,1.16-5.09,2.59s7.55,2.67,12.4,2.67,7.05-1.2,4.94-2.67S793.23,381.88,788.52,381.88Z"/><path d="M670.63,347.5c4.56,0,9.23.92,10.43,2.08s-1.59,2.12-6.23,2.12-9.38-1-10.46-2.12S666.1,347.5,670.63,347.5Zm.29.28c-4,0-6.41.81-5.44,1.8s5,1.84,9.05,1.84,6.43-.83,5.41-1.84S674.86,347.79,670.93,347.79Z"/><path d="M635.51,351.69c4.67,0,9.23,1,10.23,2.18s-2.06,2.23-6.82,2.23-9.38-1-10.26-2.23S630.86,351.69,635.51,351.69Zm.23.28c-4.06,0-6.73.84-6,1.9s4.76,1.93,8.91,1.93,6.79-.88,5.91-1.93S639.8,352,635.74,352Z"/><path d="M643.5,360.9c4.88,0,9.76,1.09,10.88,2.42s-2.06,2.48-7.09,2.48-9.94-1.11-10.93-2.48S638.59,360.9,643.5,360.9Zm.23.34c-4.26,0-7,.92-6.17,2.08s5.11,2.16,9.46,2.16,7.11-1,6.14-2.16S648,361.23,643.74,361.23Z"/><path d="M615.46,466.49c5.47,0,10.67,1.86,11.7,4.23S624.52,475,618.9,475s-10.9-2-11.76-4.32S610.08,466.49,615.46,466.49Zm.23.58c-4.73,0-8,1.6-7.2,3.64s5.29,3.72,10.14,3.72,8.05-1.67,7.17-3.72S620.43,467.08,615.7,467.08Z"/><path d="M655.76,418c4.55,0,9.11,1.28,10.2,2.91s-1.7,3-6.41,3-9.26-1.37-10.26-3S651.26,418,655.76,418Zm.23.38c-3.94,0-6.41,1.13-5.56,2.54s4.85,2.57,8.88,2.57,6.47-1.16,5.5-2.57S659.93,418.37,656,418.37Z"/><path d="M705.26,438.06c4.94,0,10.14,1.52,11.7,3.44s-1.21,3.49-6.26,3.49-10.34-1.6-11.79-3.49S700.38,438.06,705.26,438.06Zm.35.47c-4.29,0-6.7,1.31-5.47,3s5.79,3,10.17,3,6.79-1.37,5.41-3S709.9,438.53,705.61,438.53Z"/><path d="M718.25,384.17c3.94,0,8.11,1,9.41,2.18s-.82,2.2-4.82,2.2-8.26-1-9.47-2.2S714.37,384.17,718.25,384.17Zm.33.3c-3.41,0-5.29.83-4.23,1.88s4.7,1.9,8.17,1.9,5.32-.84,4.2-1.9S722,384.47,718.57,384.47Z"/><path d="M826.76,477.09c5.67,0,12.46,2,15.28,4.53s.53,4.66-5.32,4.66-12.79-2.12-15.43-4.66S821.18,477.09,826.76,477.09Zm.65.6c-4.91,0-7,1.73-4.7,3.93s8.29,4,13.32,4,7.09-1.8,4.61-4S832.32,477.69,827.41,477.69Z"/><path d="M718.07,361.57c4.91,0,10.17,1.07,11.81,2.42s-1,2.5-6.05,2.5-10.4-1.13-12-2.5S713.16,361.57,718.07,361.57Zm.38.34c-4.26,0-6.67.92-5.38,2.08s6,2.16,10.38,2.16,6.67-1,5.23-2.16S722.69,361.91,718.45,361.91Z"/><path d="M542.42,394.2c5.76,0,10.82,1.48,11.29,3.34s-4,3.48-9.94,3.48-11-1.58-11.34-3.48S536.63,394.2,542.42,394.2Zm.06.43c-5,0-8.88,1.3-8.61,2.91s4.64,3,9.79,3,9-1.37,8.61-3S547.51,394.63,542.48,394.63Z"/><path d="M576,380.73c5.44,0,10.37,1.31,11.08,2.95s-3.23,3.06-8.85,3.06-10.55-1.39-11.11-3.06S570.55,380.73,576,380.73Zm.15.39c-4.73,0-8.17,1.13-7.67,2.55s4.76,2.63,9.61,2.63,8.26-1.18,7.67-2.63S580.84,381.13,576.11,381.13Z"/><path d="M865.3,513.7c8.91,0,20.22,3.59,25.34,8.1s1.94,8.49-7.41,8.49-21-3.85-25.75-8.49S856.36,513.7,865.3,513.7Zm1.15,1.07c-7.79,0-10.85,3.1-6.76,7s14.2,7.34,22.31,7.34,10.9-3.32,6.4-7.34S874.2,514.77,866.45,514.77Z"/><path d="M439.64,379.21c5.38,0,9.38,1.3,9,2.89s-5.17,3-10.7,3-9.58-1.37-9-3S434.26,379.21,439.64,379.21Zm-.12.39c-4.67,0-8.82,1.13-9.29,2.5s3,2.61,7.82,2.61,8.91-1.16,9.26-2.61S444.13,379.6,439.52,379.6Z"/><path d="M558.62,568.5c10.35,0,19.61,4.79,20.84,10.89C580.72,585.73,573,591,562,591s-20.4-5.26-21.07-11.59C540.33,573.29,548.24,568.5,558.62,568.5Zm.2,1.45c-9,0-15.87,4.21-15.31,9.45.62,5.48,8.79,10,18.28,10s16.14-4.55,15.11-10C575.87,574.16,567.76,570,558.82,570Z"/><path d="M269.75,546.55c9.82,0,15.23,4.24,12.11,9.69-3.17,5.6-14.08,10.27-24.4,10.27s-15.58-4.68-11.85-10.27C249.23,550.79,260,546.55,269.75,546.55ZM269,547.8c-8.52,0-17.9,3.76-21,8.43-3.2,4.84,1.38,8.86,10.29,8.86s18.37-4,21.13-8.86C282.15,551.56,277.42,547.8,269,547.8Z"/><path d="M212.9,477.46c8,0,11.82,2.82,8.61,6.4s-12.67,6.72-21,6.72-12-3.06-8.38-6.72S204.94,477.46,212.9,477.46Zm-.79.84c-6.94,0-15,2.48-18,5.56s.09,5.8,7.29,5.8,15.28-2.63,18.16-5.8S219,478.31,212.11,478.31Z"/><path d="M260.78,426.82c6.64,0,10.2,1.93,8,4.43s-9.61,4.58-16.49,4.58-10.38-2.07-7.91-4.58S254.14,426.82,260.78,426.82Zm-.56.58c-5.76,0-12.14,1.73-14.23,3.85s.91,4,6.82,4,12.34-1.78,14.31-4S265.93,427.41,260.22,427.41Z"/><path d="M365,383.47c5.5,0,9.08,1.35,8.08,3s-6.38,3.12-12.05,3.12-9.26-1.41-8.08-3.12S359.51,383.47,365,383.47Zm-.29.41c-4.73,0-9.41,1.18-10.4,2.63s2.12,2.7,7,2.7,9.55-1.22,10.43-2.7S369.45,383.89,364.71,383.89Z"/><path d="M290.06,496.83c8.49,0,13.4,3.18,11,7.25s-11.7,7.61-20.6,7.61-13.64-3.46-10.73-7.61S281.62,496.83,290.06,496.83Zm-.59.94c-7.38,0-15.28,2.82-17.69,6.31s1.65,6.57,9.32,6.57,15.61-3,17.81-6.57S296.76,497.77,289.47,497.77Z"/><path d="M42.34,556.24c10.05,0,13,4.47,6.38,10.22-6.79,5.9-21,10.84-31.57,10.84s-13.08-4.94-5.73-10.84C18.59,560.71,32.34,556.24,42.34,556.24Zm-1.56,1.33c-8.76,0-20.72,4-26.84,8.88-6.35,5.11-4.17,9.36,5,9.36s21.37-4.24,27.28-9.36C51.92,561.54,49.39,557.57,40.78,557.57Z"/><path d="M190.68,426.51c6.61,0,9.67,1.93,6.76,4.41s-10.93,4.58-17.75,4.58-9.82-2.07-6.64-4.58S184,426.51,190.68,426.51Zm-.71.58c-5.79,0-12.61,1.71-15.31,3.83s-.21,4,5.76,4,12.79-1.8,15.37-4S195.65,427.09,190,427.09Z"/><path d="M256.61,393.77c5.76,0,8.85,1.48,6.88,3.34s-8.44,3.45-14.37,3.45-9-1.58-6.79-3.45S250.85,393.77,256.61,393.77Zm-.47.45c-5,0-10.58,1.28-12.4,2.89s.73,3,5.88,3,10.67-1.35,12.43-3S261.11,394.22,256.14,394.22Z"/><path d="M203.35,396.87c5.88,0,8.61,1.5,6.17,3.42s-9.44,3.55-15.46,3.55-8.7-1.6-6-3.55S197.5,396.87,203.35,396.87Zm-.62.45c-5.06,0-11,1.32-13.26,3s0,3.08,5.2,3.08,11.2-1.39,13.37-3.08S207.76,397.32,202.73,397.32Z"/><path d="M163.26,455c7.38,0,10.49,2.46,7,5.52s-12.76,5.73-20.43,5.73-10.67-2.61-6.79-5.73S155.88,455,163.26,455Zm-.85.73c-6.44,0-14.26,2.12-17.52,4.79s-.79,4.94,5.85,4.94,14.55-2.23,17.66-4.94S168.75,455.77,162.41,455.77Z"/><path d="M33,529.87c9.38,0,12,3.93,5.73,8.88-6.47,5.11-19.81,9.35-29.66,9.35s-12-4.24-5.09-9.35C10.8,533.79,23.73,529.87,33,529.87ZM31.52,531c-8.11,0-19.34,3.42-25.16,7.74-6,4.43-4.06,8.08,4.41,8.08s20.08-3.64,25.72-8.08C42,534.43,39.69,531,31.52,531Z"/><path d="M50,455c7.41,0,9.52,2.46,4.76,5.52S39.69,466.29,32,466.29s-9.61-2.61-4.44-5.73S42.63,455,50,455Zm-1.12.73c-6.47,0-15.14,2.12-19.52,4.79s-2.76,4.94,3.91,4.94,15.43-2.23,19.66-4.94S55.21,455.77,48.89,455.77Z"/><path d="M143.83,396.9c5.85,0,8.23,1.52,5.26,3.46s-10.43,3.53-16.46,3.53-8.29-1.6-5.11-3.53S138,396.9,143.83,396.9Zm-.73.45c-5.06,0-11.37,1.32-14.11,3s-.79,3.06,4.41,3.06S145,402,147.62,400.36,148.18,397.35,143.09,397.35Z"/><path d="M225.39,381.41c5.41,0,8.11,1.3,6,3s-8.41,3.06-14,3.06-8.26-1.37-5.94-3.06S219.93,381.41,225.39,381.41Zm-.53.4c-4.76,0-10.14,1.14-12.08,2.55S213.08,387,218,387s10.23-1.18,12.08-2.65S229.51,381.8,224.86,381.8Z"/><path d="M306,469.37c7.79,0,12.43,2.69,10.38,6.1S306,481.8,297.88,481.8s-12.61-2.87-10.17-6.33S298.29,469.37,306,469.37Zm-.53.79c-6.73,0-13.81,2.35-15.9,5.32s1.88,5.48,8.85,5.48,14.23-2.5,16-5.48S312.28,470.16,305.49,470.16Z"/><path d="M770.18,368.33c5.09,0,10.85,1.14,12.93,2.59s-.29,2.69-5.53,2.69-11.14-1.22-13.14-2.69S765.07,368.33,770.18,368.33Zm.47.34c-4.44,0-6.64,1-5,2.25s6.85,2.31,11.37,2.31,6.64-1,4.79-2.31S775,368.67,770.65,368.67Z"/><path d="M595,344.44c4.47,0,8.61.88,9.29,2s-2.41,2-7,2-8.76-.94-9.35-2S590.51,344.44,595,344.44Zm.15.28c-3.88,0-6.61.77-6.11,1.73s4.14,1.77,8.08,1.77,6.67-.79,6.09-1.77S599,344.72,595.12,344.72Z"/><path d="M612.61,376.39c5.29,0,10.31,1.26,11.29,2.82s-2.59,2.93-8.05,2.93-10.58-1.31-11.4-2.93S607.29,376.39,612.61,376.39Zm.2.38c-4.61,0-7.79,1.09-7.09,2.44s5.14,2.54,9.88,2.54,7.82-1.14,7-2.54S617.37,376.77,612.82,376.77Z"/><path d="M670.13,397.19c5.85,0,11.79,1.52,13.35,3.44s-1.91,3.57-8,3.57-12.11-1.63-13.52-3.57S664.28,397.19,670.13,397.19Zm.35.45c-5.08,0-8.23,1.33-7.05,3s6.5,3.08,11.7,3.08,8.29-1.39,6.91-3.08S675.51,397.64,670.48,397.64Z"/><path d="M739.62,424.4c6.56,0,13.75,1.92,16.22,4.34s-.88,4.53-7.7,4.53-14.23-2-16.46-4.53S733,424.4,739.62,424.4Zm.53.58c-5.7,0-8.79,1.69-6.88,3.76s8.38,3.91,14.29,3.91,8.82-1.75,6.67-3.91S745.79,425,740.15,425Z"/><path d="M525.7,412.53c6.26,0,11.55,1.73,11.9,3.94s-4.56,4.08-11,4.08-11.85-1.84-12-4.08S519.44,412.53,525.7,412.53Zm.06.53c-5.47,0-9.76,1.52-9.64,3.42s4.82,3.53,10.4,3.53,9.85-1.6,9.55-3.53S531.13,413.06,525.76,413.06Z"/><path d="M444.19,420.53c6.47,0,11.32,1.86,10.93,4.19s-6.14,4.38-12.84,4.38-11.58-2-10.93-4.38S437.75,420.53,444.19,420.53Zm-.12.54c-5.61,0-10.61,1.63-11.14,3.64s3.7,3.79,9.49,3.79,10.73-1.73,11.11-3.79S449.63,421.08,444.07,421.08Z"/><path d="M838.17,556.16c10.05,0,22.37,4.54,27.75,10.29,5.53,5.9,1.65,10.84-9,10.84s-23.34-4.94-28.3-10.84C823.8,560.71,828.15,556.16,838.17,556.16Zm1.2,1.37c-8.73,0-12.46,3.93-8.23,8.92s15.34,9.36,24.51,9.36,12.52-4.24,7.76-9.36S848,557.54,839.37,557.54Z"/><path d="M735.24,499.55c8.52,0,17.93,3.29,21.13,7.44s-1.15,7.78-10.08,7.78-18.64-3.53-21.52-7.78S726.65,499.55,735.24,499.55Zm.67,1c-7.43,0-11.52,2.85-9,6.46s10.88,6.71,18.64,6.71,11.58-3,8.76-6.71S743.29,500.53,735.91,500.53Z"/><path d="M520.73,499.44c8.52,0,15.76,3.29,16.23,7.4s-6.29,7.78-15.23,7.78-16.28-3.53-16.37-7.78S512.17,499.44,520.73,499.44Zm.06,1c-7.44,0-13.4,2.85-13.32,6.44s6.47,6.72,14.2,6.72,13.58-3,13.17-6.72S528.14,500.4,520.79,500.4Z"/><path d="M495.83,469.54c7.73,0,14,2.7,14.14,6.12S503.74,482,495.69,482s-14.49-2.87-14.28-6.33S488,469.54,495.83,469.54Zm0,.81c-6.73,0-12.35,2.35-12.49,5.31s5.41,5.49,12.37,5.49,12.49-2.5,12.4-5.49S502.45,470.34,495.8,470.34Z"/></g></g></g></svg>