<svg xmlns="http://www.w3.org/2000/svg" viewBox="0 0 294.68 346.82"><defs><style>.cls-1{fill:#68727e;}.cls-2{fill:#d2d6d9;}.cls-3{fill:#d5d6db;}.cls-4{fill:#fcd462;}.cls-5{fill:#44c4a1;}.cls-6{fill:#e56353;}.cls-7{fill:#d15241;}.cls-8{fill:#64798a;}.cls-9{fill:#4e565f;opacity:0.5;}.cls-10{fill:#868b8f;}.cls-11{fill:#ebf0f3;}.cls-12{fill:#3fc8f2;}.cls-13{fill:#f77935;}.cls-14{fill:#ffdb56;}.cls-15{fill:#00d9c0;}</style></defs><title>i2</title><g id="Capa_2" data-name="Capa 2"><g id="Capa_1-2" data-name="Capa 1"><path class="cls-1" d="M286.36,161.32H117.51a8.33,8.33,0,0,0-8.33,8.33V338.49a8.33,8.33,0,0,0,8.33,8.33H286.36a8.33,8.33,0,0,0,8.33-8.33V169.65A8.33,8.33,0,0,0,286.36,161.32Z"/><rect class="cls-2" x="122.67" y="195.81" width="158.52" height="137.52"/><rect class="cls-2" x="122.67" y="173.28" width="113.35" height="9.59"/><rect class="cls-3" x="122.67" y="328.25" width="158.52" height="5.07"/><circle class="cls-4" cx="246.5" cy="178.08" r="4.79"/><circle class="cls-5" cx="261.46" cy="178.08" r="4.79"/><circle class="cls-6" cx="276.39" cy="178.08" r="4.79"/><path class="cls-6" d="M234,270a32.11,32.11,0,0,1-64.21,0H152.47v6.12a2.13,2.13,0,0,0,2.12,2.13h5.92a42.08,42.08,0,0,0,5.9,14.21l-4.2,4.2a2.12,2.12,0,0,0,0,3l9.48,9.48a2.13,2.13,0,0,0,3,0l4.2-4.2a42.07,42.07,0,0,0,14.21,5.9v5.92a2.13,2.13,0,0,0,2.13,2.13h13.4a2.12,2.12,0,0,0,2.12-2.13V310.8A42.09,42.09,0,0,0,225,304.9l4.2,4.2a2.13,2.13,0,0,0,3,0l9.48-9.48a2.13,2.13,0,0,0,0-3l-4.2-4.2a42.09,42.09,0,0,0,5.9-14.21h5.92a2.12,2.12,0,0,0,2.12-2.13V270Z"/><path class="cls-7" d="M231.94,270a30,30,0,0,1-60,0h-3.38a33.39,33.39,0,0,0,66.77,0Z"/><rect class="cls-8" x="135.01" y="264.56" width="133.87" height="5.41"/><path class="cls-8" d="M159,234.63V228.2l24-11.13v5.82l-18,8.12v.56l18,8.32v5.82Z"/><path class="cls-8" d="M210.48,210.29h5.1l-22.1,47.36h-5.1Z"/><path class="cls-8" d="M244.83,228.2v6.43l-24,11.07v-5.82l18-8.32V231l-18-8.12v-5.82Z"/><path class="cls-7" d="M184.58,270a17.36,17.36,0,0,0,34.71,0Z"/><path class="cls-9" d="M117.51,161.32a8.33,8.33,0,0,0-8.33,8.33v21.56h73.9a8.33,8.33,0,0,0,8.33-8.33V161.32Z"/><path class="cls-10" d="M177.17,0H8.33A8.33,8.33,0,0,0,0,8.33V177.17a8.33,8.33,0,0,0,8.33,8.33H177.17a8.33,8.33,0,0,0,8.33-8.33V8.33A8.33,8.33,0,0,0,177.17,0Z"/><rect class="cls-11" x="13.49" y="34.48" width="158.52" height="137.52"/><rect class="cls-11" x="13.49" y="11.97" width="113.35" height="9.59"/><circle class="cls-4" cx="137.31" cy="16.76" r="4.79"/><circle class="cls-5" cx="152.27" cy="16.76" r="4.79"/><circle class="cls-6" cx="167.21" cy="16.76" r="4.79"/><rect class="cls-12" x="109.13" y="137.25" width="32.58" height="19.58"/><rect class="cls-13" x="43.78" y="137.25" width="32.58" height="19.58"/><polygon class="cls-14" points="92.75 81.93 116.98 98.09 92.75 114.24 68.52 98.09 92.75 81.93"/><rect class="cls-15" x="70.72" y="49.14" width="44.06" height="19.58"/><path class="cls-8" d="M141.72,135.41H127.26V125a1.84,1.84,0,0,0-1.84-1.84H94.59v-8L118,99.62a1.84,1.84,0,0,0,0-3.05L94.59,81V70.55h20.19a1.84,1.84,0,0,0,1.84-1.84V49.14a1.84,1.84,0,0,0-1.84-1.84H70.72a1.84,1.84,0,0,0-1.84,1.84V68.72a1.84,1.84,0,0,0,1.84,1.84H90.92V81L80.7,87.76a1.84,1.84,0,1,0,2,3.05l10-6.68,20.92,13.95L92.75,112,71.83,98.09l4.52-3a1.84,1.84,0,0,0-2-3.05L67.5,96.56a1.84,1.84,0,0,0,0,3.05l23.41,15.61v8H60.08A1.84,1.84,0,0,0,58.24,125v10.4H43.78a1.84,1.84,0,0,0-1.84,1.84v19.58a1.84,1.84,0,0,0,1.84,1.84H76.37a1.84,1.84,0,0,0,1.84-1.84V137.25a1.84,1.84,0,0,0-1.84-1.84H61.91v-8.57h61.68v8.57H109.13a1.84,1.84,0,0,0-1.84,1.84v19.58a1.84,1.84,0,0,0,1.84,1.84h18.63a1.84,1.84,0,1,0,0-3.67H111V139.09h28.91V155h-4.56a1.84,1.84,0,1,0,0,3.67h6.39a1.84,1.84,0,0,0,1.84-1.84V137.25A1.84,1.84,0,0,0,141.72,135.41ZM72.56,51h40.39V66.88H72.56V51Zm2,104H45.62V139.09H74.53V155Z"/></g></g></svg>