<?xml version="1.0" encoding="utf-8"?>
<!-- Generator: Adobe Illustrator 19.0.0, SVG Export Plug-In . SVG Version: 6.00 Build 0)  -->
<svg version="1.1" id="Capa_1" xmlns="http://www.w3.org/2000/svg" xmlns:xlink="http://www.w3.org/1999/xlink" x="0px" y="0px"
	 viewBox="-347 30.9 97.9 111.2" style="enable-background:new -347 30.9 97.9 111.2;" xml:space="preserve">
<style type="text/css">
	.st0{fill:#CCC7C7;}
	.st1{fill:#FFFFFF;}
	.st2{fill:#BFBEB9;}
	.st3{fill:#64798A;}
</style>
<title>img1</title>
<g id="Capa_2">
	<g id="Capa_1-2">
		<path class="st0" d="M-268.6,33.8h-69.7c-3.5,0-6.3,2.8-6.3,6.3v96.4c0,3.1,2.5,5.6,5.6,5.6l0,0h84.2c3.1,0,5.6-2.5,5.6-5.6l0,0
			V53L-268.6,33.8z"/>
		<path class="st1" d="M-271,30.9h-69.7c-3.5,0-6.3,2.8-6.3,6.3v96.4c0,3.1,2.5,5.6,5.6,5.6l0,0h84.2c3.1,0,5.6-2.5,5.6-5.6l0,0V50
			L-271,30.9z"/>
		<path class="st2" d="M-264.4,50h12.9l-19.2-19.1v12.9C-270.7,47.2-267.9,50-264.4,50z"/>
		<path class="st3" d="M-270.3,105.7h-8.5v-6.2c0-0.6-0.5-1.1-1.1-1.1c0,0,0,0,0,0h-18.2v-4.7l13.8-9.2c0.5-0.3,0.6-1,0.3-1.5
			c-0.1-0.1-0.2-0.2-0.3-0.3l-13.8-9.2v-6.2h11.9c0.6,0,1.1-0.5,1.1-1.1l0,0V54.7c0-0.6-0.5-1.1-1.1-1.1l0,0h-26
			c-0.6,0-1.1,0.5-1.1,1.1l0,0v11.6c0,0.6,0.5,1.1,1.1,1.1l0,0h11.9v6.2l-6,4c-0.5,0.4-0.5,1.1-0.2,1.5c0.3,0.4,0.9,0.5,1.4,0.3
			l5.9-4l12.3,8.3l-12.4,8.3l-12.4-8.3l2.6-1.8c0.5-0.4,0.5-1.1,0.2-1.5c-0.3-0.4-0.9-0.5-1.4-0.3l-4,2.7c-0.5,0.3-0.6,1-0.3,1.5
			c0.1,0.1,0.2,0.2,0.3,0.3l13.8,9.2v4.7h-18.2c-0.6,0-1.1,0.5-1.1,1.1v6.2h-8.5c-0.6,0-1.1,0.5-1.1,1.1v11.6c0,0.6,0.5,1.1,1.1,1.1
			h19.2c0.6,0,1.1-0.5,1.1-1.1v-11.6c0-0.6-0.5-1.1-1.1-1.1l0,0h-8.5v-5.1h36.5v5.1h-8.6c-0.6,0-1.1,0.5-1.1,1.1v11.6
			c0,0.6,0.5,1.1,1.1,1.1h11c0.6-0.1,1-0.6,1-1.2c0-0.5-0.5-0.9-1-1h-9.9v-9.4h17.1v9.4h-2.7c-0.6,0.1-1,0.6-1,1.2
			c0,0.5,0.5,0.9,1,1h3.8c0.6,0,1.1-0.5,1.1-1.1v-11.6C-269.2,106.1-269.7,105.7-270.3,105.7L-270.3,105.7z M-311.2,55.7h23.9v9.4
			h-23.9V55.7z M-310,117.2h-17.1v-9.4h17.1V117.2L-310,117.2z"/>
	</g>
</g>
</svg>
