<svg xmlns="http://www.w3.org/2000/svg" viewBox="0 0 224.52 105.26"><defs><style>.cls-1{fill:#ff9600;}.cls-1,.cls-2{stroke:#000;stroke-miterlimit:10;}.cls-2{fill:#fff;stroke-width:0.95px;}.cls-3{font-size:10px;font-family:Tahoma, Tahoma;}.cls-4{letter-spacing:-0.01em;}.cls-5{letter-spacing:-0.02em;}.cls-6{letter-spacing:-0.02em;}</style></defs><title>img11</title><g id="Capa_2" data-name="Capa 2"><g id="Capa_1-2" data-name="Capa 1"><rect class="cls-1" x="0.5" y="0.5" width="116.76" height="20.86"/><rect class="cls-1" x="117.26" y="0.5" width="106.76" height="20.86"/><rect class="cls-2" x="0.5" y="21.36" width="116.76" height="20.86"/><rect class="cls-2" x="117.26" y="21.36" width="106.76" height="20.86"/><rect class="cls-2" x="0.5" y="42.21" width="116.76" height="20.86"/><rect class="cls-2" x="117.26" y="42.21" width="106.76" height="20.86"/><rect class="cls-2" x="0.5" y="63.07" width="116.76" height="20.86"/><rect class="cls-2" x="117.26" y="63.07" width="106.76" height="20.86"/><rect class="cls-2" x="0.5" y="83.92" width="116.76" height="20.86"/><rect class="cls-2" x="117.26" y="83.92" width="106.76" height="20.86"/><text class="cls-3" transform="translate(10.5 14.98)">NUMERO DE KI<tspan class="cls-4" x="68.08" y="0">L</tspan><tspan x="72.97" y="0">OS</tspan></text><text class="cls-3" transform="translate(128.35 14.98)">% DE DESCUEN<tspan class="cls-5" x="71.22" y="0">T</tspan><tspan x="76.83" y="0">O</tspan></text><text class="cls-3" transform="translate(169.28 34.59)">0%</text><text class="cls-3" transform="translate(162.17 55.77)">10%</text><text class="cls-3" transform="translate(162.17 76.95)">15%</text><text class="cls-3" transform="translate(162.17 98.14)">20%</text><text class="cls-3" transform="translate(13.54 98.14)">10.01 EN ADE<tspan class="cls-6" x="61.79" y="0">L</tspan><tspan x="66.56" y="0">ANTE</tspan></text><text class="cls-3" transform="translate(38.78 77.35)">5,01 - 10</text><text class="cls-3" transform="translate(41.51 56.56)">2,01 - 5</text><text class="cls-3" transform="translate(51.6 35.77)">0-2</text></g></g></svg>