<svg xmlns="http://www.w3.org/2000/svg" xmlns:xlink="http://www.w3.org/1999/xlink" viewBox="0 0 406.33 286.04"><defs><style>.cls-1,.cls-32,.cls-5,.cls-7{fill:#efefef;}.cls-1,.cls-13,.cls-16,.cls-27,.cls-3,.cls-32,.cls-34,.cls-7{stroke:#9c9e9d;}.cls-1,.cls-13,.cls-16,.cls-27,.cls-3,.cls-7{stroke-miterlimit:10;}.cls-2,.cls-34,.cls-9{fill:#9c9e9d;}.cls-16,.cls-3{fill:none;}.cls-4{fill:#d6e8fb;}.cls-6{clip-path:url(#clip-path);}.cls-13,.cls-16,.cls-7,.cls-9{opacity:0;}.cls-8{clip-path:url(#clip-path-2);}.cls-10{clip-path:url(#clip-path-3);}.cls-11{fill:url(#linear-gradient);}.cls-12{clip-path:url(#clip-path-4);}.cls-13{fill:#fff;}.cls-14{clip-path:url(#clip-path-5);}.cls-15{clip-path:url(#clip-path-6);}.cls-17{font-size:14px;font-family:Tahoma, Tahoma;}.cls-18{letter-spacing:0em;}.cls-19{letter-spacing:0em;}.cls-20{letter-spacing:0.06em;}.cls-21{letter-spacing:-0.02em;}.cls-22{letter-spacing:0.06em;}.cls-23{letter-spacing:-0.02em;}.cls-24{letter-spacing:0em;}.cls-25{letter-spacing:0.07em;}.cls-26{letter-spacing:0.07em;}.cls-27{fill:#878988;}.cls-28{clip-path:url(#clip-path-7);}.cls-29{clip-path:url(#clip-path-8);}.cls-30{clip-path:url(#clip-path-9);}.cls-31{letter-spacing:-0.02em;}.cls-32,.cls-33,.cls-34{stroke-linecap:round;stroke-linejoin:round;}.cls-33{fill:#ddd;stroke:#8a8c8b;}.cls-35{fill:#5064bb;}.cls-36{fill:#50f72e;}</style><clipPath id="clip-path"><rect class="cls-1" x="8.42" y="33.03" width="389" height="245.31"/></clipPath><clipPath id="clip-path-2"><rect class="cls-2" x="211.83" y="227.65" width="169.08" height="24.67"/></clipPath><clipPath id="clip-path-3"><rect class="cls-2" x="27.59" y="227.65" width="154.25" height="24.67"/></clipPath><linearGradient id="linear-gradient" x1="370.5" y1="21.17" x2="370.5" y2="0.5" gradientUnits="userSpaceOnUse"><stop offset="0.03" stop-color="#dfa695"/><stop offset="0.28" stop-color="#c25433"/><stop offset="0.78" stop-color="#d2826a"/><stop offset="1" stop-color="#fff"/></linearGradient><clipPath id="clip-path-4"><rect class="cls-3" x="26.25" y="116.36" width="353.33" height="80.8"/></clipPath><clipPath id="clip-path-5"><rect class="cls-3" x="360.5" y="116.36" width="19.08" height="80.8"/></clipPath><clipPath id="clip-path-6"><rect class="cls-3" x="360.5" y="116.36" width="19.08" height="20.22"/></clipPath><clipPath id="clip-path-7"><rect class="cls-3" x="360.5" y="176.95" width="19.08" height="20.22"/></clipPath><clipPath id="clip-path-8"><rect class="cls-1" x="210.5" y="226.5" width="169.08" height="24.67"/></clipPath><clipPath id="clip-path-9"><rect class="cls-1" x="26.25" y="226.5" width="154.25" height="24.67"/></clipPath></defs><title>img12</title><g id="Capa_2" data-name="Capa 2"><g id="Capa_1-2" data-name="Capa 1"><rect class="cls-4" x="0.5" y="0.5" width="405.33" height="285.04" rx="5.67" ry="5.67"/><rect class="cls-3" x="0.5" y="0.5" width="405.33" height="285.04" rx="5.67" ry="5.67"/><rect class="cls-5" x="8.42" y="33.03" width="389" height="245.31"/><g class="cls-6"><rect class="cls-7" x="8.42" y="33.03" width="389" height="245.31"/></g><rect class="cls-3" x="8.42" y="33.03" width="389" height="245.31"/><rect class="cls-2" x="211.83" y="227.65" width="169.08" height="24.67"/><g class="cls-8"><rect class="cls-9" x="211.83" y="227.65" width="169.08" height="24.67"/></g><rect class="cls-2" x="27.59" y="227.65" width="154.25" height="24.67"/><g class="cls-10"><rect class="cls-9" x="27.59" y="227.65" width="154.25" height="24.67"/></g><rect class="cls-11" x="343.17" y="0.5" width="54.67" height="20.67" rx="5.67" ry="5.67"/><rect class="cls-3" x="343.17" y="0.5" width="54.67" height="20.67" rx="5.67" ry="5.67"/><g class="cls-12"><rect class="cls-13" x="26.25" y="116.36" width="353.33" height="80.8"/></g><rect class="cls-3" x="26.25" y="116.36" width="353.33" height="80.8"/><g class="cls-14"><rect class="cls-13" x="360.5" y="116.36" width="19.08" height="80.8"/></g><rect class="cls-3" x="360.5" y="116.36" width="19.08" height="80.8"/><g class="cls-15"><rect class="cls-16" x="360.5" y="116.36" width="19.08" height="20.22"/></g><rect class="cls-3" x="360.5" y="116.36" width="19.08" height="20.22"/><text class="cls-17" transform="translate(9.42 20.58)">Sa<tspan class="cls-18" x="15.15" y="0">l</tspan><tspan x="18.36" y="0">ida por panta</tspan><tspan class="cls-19" x="100.71" y="0">l</tspan><tspan x="103.95" y="0">la</tspan></text><text class="cls-17" transform="translate(23.75 104.91)">Sa<tspan class="cls-18" x="15.15" y="0">l</tspan><tspan x="18.36" y="0">ida:</tspan></text><text class="cls-17" transform="translate(34.5 135.81)">La<tspan class="cls-20" x="14.31" y="0"> </tspan><tspan x="19.49" y="0">comp</tspan><tspan class="cls-21" x="53.04" y="0">r</tspan><tspan x="57.85" y="0">a</tspan><tspan class="cls-20" x="65.2" y="0"> </tspan><tspan x="70.37" y="0">de</tspan><tspan class="cls-20" x="85.48" y="0"> </tspan><tspan x="90.65" y="0">5</tspan><tspan class="cls-20" x="98.29" y="0"> </tspan><tspan x="103.46" y="0">k</tspan><tspan class="cls-18" x="110.43" y="0">i</tspan><tspan x="113.65" y="0">los</tspan><tspan class="cls-22" x="130.69" y="0"> </tspan><tspan x="135.87" y="0">tiene</tspan><tspan class="cls-20" x="166.29" y="0"> </tspan><tspan x="171.46" y="0">un</tspan><tspan class="cls-20" x="187.08" y="0"> </tspan><tspan class="cls-23" x="192.25" y="0">v</tspan><tspan x="198.95" y="0">alor</tspan><tspan class="cls-20" x="222.15" y="0"> </tspan><tspan x="227.32" y="0">de</tspan><tspan class="cls-20" x="242.43" y="0"> </tspan><tspan x="247.6" y="0">21000</tspan><tspan class="cls-20" x="285.81" y="0"> </tspan><tspan x="290.98" y="0">pe</tspan><tspan class="cls-24" x="306.09" y="0">r</tspan><tspan x="311.07" y="0">o </tspan><tspan x="0" y="16.8">usted</tspan><tspan class="cls-25" x="33.84" y="16.8"> </tspan><tspan x="39.24" y="16.8">tiene</tspan><tspan class="cls-25" x="69.67" y="16.8"> </tspan><tspan x="75.06" y="16.8">un</tspan><tspan class="cls-25" x="90.67" y="16.8"> </tspan><tspan x="96.07" y="16.8">descuento</tspan><tspan class="cls-25" x="159.15" y="16.8"> </tspan><tspan x="164.54" y="16.8">por</tspan><tspan class="cls-26" x="184.93" y="16.8"> </tspan><tspan class="cls-23" x="190.33" y="16.8">v</tspan><tspan x="197.03" y="16.8">alor</tspan><tspan class="cls-25" x="220.23" y="16.8"> </tspan><tspan x="225.62" y="16.8">de</tspan><tspan class="cls-25" x="240.73" y="16.8"> </tspan><tspan x="246.12" y="16.8">2100</tspan><tspan class="cls-25" x="276.69" y="16.8"> </tspan><tspan x="282.09" y="16.8">por</tspan><tspan class="cls-25" x="302.47" y="16.8"> </tspan><tspan x="307.87" y="16.8">lo </tspan><tspan x="0" y="33.6">tanto el </tspan><tspan class="cls-23" x="51.44" y="33.6">v</tspan><tspan x="58.15" y="33.6">alor a pagar es: 18900</tspan></text><polygon class="cls-27" points="370.04 126.18 365.96 129.84 374.12 129.84 370.04 126.18"/><g class="cls-28"><rect class="cls-16" x="360.5" y="176.95" width="19.08" height="20.22"/></g><rect class="cls-3" x="360.5" y="176.95" width="19.08" height="20.22"/><polygon class="cls-27" points="370.04 187.35 374.12 183.69 365.96 183.69 370.04 187.35"/><rect class="cls-5" x="210.5" y="226.5" width="169.08" height="24.67"/><g class="cls-29"><rect class="cls-7" x="210.5" y="226.5" width="169.08" height="24.67"/></g><rect class="cls-3" x="210.5" y="226.5" width="169.08" height="24.67"/><rect class="cls-5" x="26.25" y="226.5" width="154.25" height="24.67"/><g class="cls-30"><rect class="cls-7" x="26.25" y="226.5" width="154.25" height="24.67"/></g><rect class="cls-3" x="26.25" y="226.5" width="154.25" height="24.67"/><text class="cls-17" transform="translate(74.33 242.99)">Continuar</text><text class="cls-17" transform="translate(278.12 242.99)"><tspan class="cls-31">P</tspan><tspan x="7.4" y="0">ausa</tspan></text><path class="cls-1" d="M377.17,17.14h-4.34l-2.86-4-2.92,4h-4.14l4.83-6.35L363.1,4.53h4.33l2.68,3.8,2.75-3.8H377l-4.67,6.13Z"/><polygon class="cls-32" points="45.25 81.5 26.25 74 26.25 66.5 45.25 74 45.25 81.5"/><polygon class="cls-33" points="45.25 81.5 58.25 76 58.25 68.5 45.25 74 45.25 81.5"/><polygon class="cls-34" points="26.25 66.5 45.25 74 58.25 68.5 39.25 61.83 26.25 66.5"/><polygon class="cls-32" points="43.42 73.13 28.83 67.5 28.83 51 43.42 56.63 43.42 73.13"/><polygon class="cls-35" points="31.21 64.29 31.21 54.51 41.04 58.3 41.04 68.08 31.21 64.29"/><polygon class="cls-36" points="28.11 73.02 28.11 70.75 30.39 71.63 30.39 73.9 28.11 73.02"/><polygon class="cls-33" points="48.73 69.04 56.98 65.29 56.98 55.1 48.73 55.1 48.73 69.04"/><polygon class="cls-33" points="49.04 51 56.98 55.1 48.73 55.1 37.23 50.6 49.04 51"/><polygon class="cls-33" points="43.42 73 48.73 70.17 48.73 53.96 43.42 56.79 43.42 73"/><polygon class="cls-33" points="28.83 51 43.42 56.79 48.73 53.96 36.13 49.04 28.83 51"/></g></g></svg>