<?xml version="1.0" encoding="utf-8"?>
<!-- Generator: Adobe Illustrator 19.0.0, SVG Export Plug-In . SVG Version: 6.00 Build 0)  -->
<svg version="1.1" id="Capa_1" xmlns="http://www.w3.org/2000/svg" xmlns:xlink="http://www.w3.org/1999/xlink" x="0px" y="0px"
	 viewBox="-290 -21.3 212.4 212.4" style="enable-background:new -290 -21.3 212.4 212.4;" xml:space="preserve">
<style type="text/css">
	.st0{fill:#B2ABAB;}
	.st1{fill:#334A5E;}
	.st2{fill:#FFFFFF;}
	.st3{fill:#E6E6E6;}
	.st4{fill:#BFBEB9;}
	.st5{fill:#89D6F7;}
	.st6{fill:#55BFE9;}
	.st7{fill:#64798A;}
</style>
<title>img2</title>
<g id="Capa_2">
	<g id="Capa_1-2">
		<path class="st0" d="M-77.6,129.1V10.3c0.1-3.8-3-6.9-6.8-7c-0.1,0-0.1,0-0.2,0h-193.9c-4.8,0-8.7,3.9-8.7,8.8v133.6
			c0,4.8,3.9,8.7,8.7,8.7h55.9V178H-244v13.1h122.8V178h-21v-23.6h55.9c4.8,0,8.7-3.9,8.7-8.7L-77.6,129.1L-77.6,129.1z"/>
		<path class="st1" d="M-87.4,0.6h-193.9c-4.8,0-8.7,3.9-8.7,8.7v117h209.6V7.5c0-3.8-3-6.9-6.8-7C-87.2,0.6-87.3,0.6-87.4,0.6z"/>
		<path class="st2" d="M-290,126.3v16.6c0,4.8,3.9,8.7,8.7,8.7h192.2c4.8,0,8.7-3.9,8.7-8.7v-16.6H-290z"/>
		<circle class="st3" cx="-185.2" cy="139" r="4.8"/>
		<rect x="-225.4" y="151.7" class="st3" width="80.4" height="23.6"/>
		<rect x="-246.8" y="175.3" class="st2" width="122.7" height="13.1"/>
		<path class="st2" d="M-145.9-21.3h-97c-4.8,0-8.7,3.9-8.7,8.7v128.8h132.8V5.4L-145.9-21.3z"/>
		<path class="st4" d="M-137.1,5.4h17.9l-26.7-26.6v17.9C-145.9,1.5-142,5.4-137.1,5.4z"/>
		<polygon class="st5" points="-105.7,13.7 -118.8,116.3 -94.3,116.3 -94.3,13.7 		"/>
		<polygon class="st5" points="-276,13.7 -276,116.3 -251.6,116.3 -264.7,13.7 		"/>
		<polygon class="st1" points="-103.9,0.6 -118.8,0.6 -118.8,13.7 -105.7,13.7 		"/>
		<polygon class="st5" points="-118.8,13.7 -118.8,116.3 -105.7,13.7 		"/>
		<polygon class="st6" points="-118.8,13.7 -118.8,116.3 -105.7,13.7 		"/>
		<polygon class="st1" points="-251.6,0.6 -266.4,0.6 -264.7,13.7 -251.6,13.7 		"/>
		<polygon class="st5" points="-264.7,13.7 -251.6,116.3 -251.6,13.7 		"/>
		<polygon class="st6" points="-264.7,13.7 -251.6,116.3 -251.6,13.7 		"/>
		<path class="st7" d="M-144.9,75.7h-11.9v-8.5c0-0.8-0.7-1.5-1.5-1.5h-25.4v-6.5l19.3-12.8c0.7-0.5,0.9-1.4,0.4-2.1
			c-0.1-0.2-0.3-0.3-0.4-0.4L-183.7,31v-8.6h16.6c0.8,0,1.5-0.7,1.5-1.5l0,0V4.8c0-0.8-0.7-1.5-1.5-1.5l0,0h-36.2
			c-0.8,0-1.5,0.7-1.5,1.5v0v16.1c0,0.8,0.7,1.5,1.5,1.5l0,0h16.6v8.5l-8.4,5.6c-0.7,0.5-0.8,1.4-0.3,2.1c0.5,0.6,1.3,0.8,2,0.4
			l8.2-5.5L-168,45l-17.2,11.5L-202.4,45l3.7-2.5c0.7-0.5,0.8-1.4,0.3-2.1c-0.5-0.6-1.3-0.8-2-0.4l-5.6,3.7
			c-0.7,0.5-0.9,1.4-0.4,2.1c0.1,0.2,0.3,0.3,0.4,0.4l19.3,12.8v6.5h-25.4c-0.8,0-1.5,0.7-1.5,1.5c0,0,0,0,0,0v8.5h-11.9
			c-0.8,0-1.5,0.6-1.5,1.5c0,0,0,0,0,0.1v16.1c0,0.8,0.7,1.5,1.5,1.5c0,0,0,0,0,0h26.8c0.8,0,1.5-0.7,1.5-1.5c0,0,0,0,0,0V77.2
			c0-0.8-0.7-1.5-1.5-1.5h-11.9v-7h50.7v7h-11.9c-0.8,0-1.5,0.7-1.5,1.5c0,0,0,0,0,0v16.1c0,0.8,0.7,1.5,1.5,1.5c0,0,0,0,0,0h15.3
			c0.8-0.1,1.4-0.8,1.3-1.7c-0.1-0.7-0.6-1.2-1.3-1.3h-13.8V78.7h23.8v13.1h-3.8c-0.8-0.1-1.6,0.5-1.7,1.3c-0.1,0.8,0.5,1.6,1.3,1.7
			c0.1,0,0.2,0,0.3,0h5.3c0.8,0,1.5-0.7,1.5-1.5V77.2C-143.4,76.4-144.1,75.7-144.9,75.7C-144.9,75.7-144.9,75.7-144.9,75.7z
			 M-201.8,6.3h33.2v13.1h-33.2V6.3z M-200.2,91.8h-23.8V78.7h23.8V91.8L-200.2,91.8z"/>
	</g>
</g>
</svg>
