<svg xmlns="http://www.w3.org/2000/svg" viewBox="0 0 61.09 62.08"><defs><style>.cls-1{fill:#66c6b9;}.cls-2{fill:#f2f2f2;}.cls-3{fill:#6ed467;}</style></defs><title>img3</title><g id="Capa_2" data-name="Capa 2"><g id="Capa_1-2" data-name="Capa 1"><path class="cls-1" d="M59.76,0H1.33A1.33,1.33,0,0,0,0,1.33V52.22a1.33,1.33,0,0,0,1.33,1.33H23.88a1.33,1.33,0,0,1,1.14.64l4.39,7.25a1.33,1.33,0,0,0,2.27,0l4.39-7.25a1.33,1.33,0,0,1,1.14-.64H59.76a1.33,1.33,0,0,0,1.33-1.33V1.33A1.33,1.33,0,0,0,59.76,0Z"/><path class="cls-2" d="M29.29,51.6a6.36,6.36,0,0,0-5.41-3H5V5H56.09V48.55H37.21A6.36,6.36,0,0,0,31.8,51.6l-1.25,2.07Z"/><polygon class="cls-3" points="24.7 41.33 15.97 27.77 18.54 27.77 25.2 33.01 44.12 13.2 47.47 13.2 24.7 41.33"/></g></g></svg>