<?xml version="1.0" encoding="utf-8"?>
<!-- Generator: Adobe Illustrator 19.0.0, SVG Export Plug-In . SVG Version: 6.00 Build 0)  -->
<svg version="1.1" id="Capa_1" xmlns="http://www.w3.org/2000/svg" xmlns:xlink="http://www.w3.org/1999/xlink" x="0px" y="0px"
	 viewBox="-140 -156 531.3 482.2" style="enable-background:new -140 -156 531.3 482.2;" xml:space="preserve">
<style type="text/css">
	.st0{fill:#B2A9A9;}
	.st1{fill:#FFFFFF;}
	.st2{fill:#C1E8E6;}
	.st3{fill:#66C6B9;}
	.st4{fill:#6DA8D6;}
	.st5{fill:#F2EBD9;}
	.st6{fill:#FBFBFB;}
	.st7{fill:#87F062;}
	.st8{fill:#FF8C78;}
	.st9{fill:#FFD15C;}
	.st10{fill:#68727E;}
</style>
<path class="st0" d="M344.5-80.8L122.3-58.3L-100-80.8h-33.8V281H89.9c2.4,0,3.8,1.6,4.2,2.3l10,11.7h36.2l10-11.7
	c0.5-0.7,1.8-2.3,4.2-2.3h223.7V-80.8H344.5z"/>
<path class="st1" d="M148.3-156c-13.5,0-25.4,6.9-32.3,17.4c-7-10.5-18.8-17.4-32.3-17.4h-189.9v361.8H83.7
	c13.5,0,25.4,6.9,32.3,17.3c7-10.5,18.8-17.3,32.3-17.3h189.9V-156H148.3z"/>
<path class="st2" d="M116,223.1v33.8c-7-10.5-18.8-17.3-32.3-17.3h-189.9v-33.8H83.7C97.2,205.8,109,212.7,116,223.1z"/>
<path class="st2" d="M338.2,205.8v33.8H148.3c-13.5,0-25.4,6.9-32.3,17.3v-33.8c7-10.5,18.8-17.3,32.3-17.3H338.2z"/>
<path class="st3" d="M338.2-88.5v328.1H148.3c-13.5,0-25.4,6.9-32.3,17.3c-7-10.5-18.8-17.3-32.3-17.3h-189.9V-88.5H-140v361.8H83.7
	c2.4,0,3.8,1.6,4.2,2.3l10,11.7h36.2l10-11.7c0.5-0.7,1.8-2.3,4.2-2.3H372V-88.5H338.2z"/>
<path class="st2" d="M-106.2,205.8v33.8H83.7c13.5,0,25.4,6.9,32.3,17.3l11.3-78.8L-106.2,205.8z"/>
<path class="st4" d="M116,178.1v78.8c7-10.5,18.8-17.3,32.3-17.3h189.9v-33.8L116,178.1z"/>
<rect x="21.8" y="41.8" class="st5" width="60.5" height="62.8"/>
<rect x="-72.5" y="41.8" class="st5" width="60.5" height="62.8"/>
<rect x="21.8" y="-122.2" class="st5" width="60.5" height="62.7"/>
<rect x="-72.5" y="-122.2" class="st5" width="60.5" height="62.7"/>
<path class="st6" d="M83.7-156h-189.9v361.8H83.7c13.5,0,25.4,6.9,32.3,17.3l22.5-180.9L116-138.7C109-149.1,97.2-156,83.7-156z"/>
<path class="st1" d="M148.3-156c-13.5,0-25.4,6.9-32.3,17.4v361.8c7-10.5,18.8-17.3,32.3-17.3h189.9V-156H148.3z"/>
<path class="st7" d="M68.1,152.4H54.1v-29.1c0-4.7-3.8-8.4-8.4-8.4s-8.4,3.8-8.4,8.4v29.1H18.4V89.5c0-4.7-3.8-8.4-8.4-8.4
	s-8.4,3.8-8.4,8.4v62.9h-18.7v-29.1c0-4.7-3.8-8.4-8.4-8.4s-8.4,3.8-8.4,8.4v29.1h-18.7V89.5c0-4.7-3.8-8.4-8.4-8.4
	s-8.4,3.8-8.4,8.4v71.3c0,4.7,3.8,8.4,8.4,8.4H68.1c4.7,0,8.4-3.8,8.4-8.4S72.8,152.4,68.1,152.4z"/>
<path class="st4" d="M-61.2-102.6H68.1c4.7,0,8.4-3.8,8.4-8.4c0-4.7-3.8-8.4-8.4-8.4H-61.2c-4.7,0-8.4,3.8-8.4,8.4
	C-69.7-106.3-65.9-102.6-61.2-102.6z"/>
<path class="st4" d="M68.1-79.3H-61.2c-4.7,0-8.4,3.8-8.4,8.4s3.8,8.4,8.4,8.4H68.1c4.7,0,8.4-3.8,8.4-8.4S72.8-79.3,68.1-79.3z"/>
<path class="st4" d="M-61.2-22.4H3.5c4.7,0,8.4-3.8,8.4-8.4s-3.8-8.4-8.4-8.4h-64.7c-4.7,0-8.4,3.8-8.4,8.4S-65.9-22.4-61.2-22.4z"
	/>
<path class="st4" d="M68.1,0.8H-61.2c-4.7,0-8.4,3.8-8.4,8.4s3.8,8.4,8.4,8.4H68.1c4.7,0,8.4-3.8,8.4-8.4S72.8,0.8,68.1,0.8z"/>
<path class="st4" d="M68.1,40.9H-61.2c-4.7,0-8.4,3.8-8.4,8.4s3.8,8.4,8.4,8.4H68.1c4.7,0,8.4-3.8,8.4-8.4S72.8,40.9,68.1,40.9z"/>
<path class="st8" d="M204.6,312.7V289l22.5-11.3l22.5,11.3v23.6c0,7.4-6.1,13.5-13.5,13.5h-18C210.7,326.2,204.6,320.1,204.6,312.7z
	"/>
<polygon class="st2" points="204.6,255.3 227.1,244 249.6,255.3 249.6,289 204.6,289 "/>
<path class="st5" d="M231.3-89.6L248-49.7c0.9,2.2,0,4.8-2.2,5.9l-16.6,8.3c-1.3,0.6-2.8,0.6-4.1,0l-16.6-8.3
	c-2.2-1.1-3.1-3.6-2.2-5.9l16.6-39.9C224.5-93.4,229.8-93.4,231.3-89.6z"/>
<rect x="204.6" y="-45.7" class="st9" width="45" height="301"/>
<path class="st10" d="M222.9-89.6l-7.8,18.7h24l-7.8-18.7C229.8-93.4,224.5-93.4,222.9-89.6z"/>
</svg>
