<?xml version="1.0" encoding="utf-8"?>
<!-- Generator: Adobe Illustrator 19.0.0, SVG Export Plug-In . SVG Version: 6.00 Build 0)  -->
<svg version="1.1" id="Layer_1" xmlns="http://www.w3.org/2000/svg" xmlns:xlink="http://www.w3.org/1999/xlink" x="0px" y="0px"
	 viewBox="-145 -166.3 502.4 502.4" style="enable-background:new -145 -166.3 502.4 502.4;" xml:space="preserve">
<style type="text/css">
	.st0{fill:#D9C48F;}
	.st1{fill:#FFFFFF;}
	.st2{fill:#D6EEFA;}
	.st3{fill:#BFBEB9;}
	.st4{fill:#4CDBC4;}
	.st5{fill:#40596B;}
	.st6{fill:#F2EBD9;}
	.st7{fill:#334A5E;}
	.st8{fill:#FF8C78;}
	.st9{fill:#FFD15C;}
</style>
<path class="st0" d="M203.4-135h-327.1c-11.5,0-20.9,9.4-20.9,20.9v428.4c0,11.5,9.4,20.9,20.9,20.9h327.1
	c11.5,0,20.9-9.4,20.9-20.9v-428.4C224.3-125.6,214.9-135,203.4-135z"/>
<rect x="-116.9" y="-107.1" class="st1" width="312.4" height="413.8"/>
<path class="st2" d="M110.4-166.3H-30.7c-12.5,0-23,10.4-23,21.9v57.5h186v-57.5C133.4-155.9,122.9-166.3,110.4-166.3z"/>
<g>
	<rect x="-7.7" y="-38.9" class="st3" width="181.8" height="24"/>
	<rect x="-7.7" y="45.8" class="st3" width="181.8" height="24"/>
	<rect x="-7.7" y="130.4" class="st3" width="181.8" height="24"/>
	<rect x="-7.7" y="215" class="st3" width="181.8" height="24"/>
</g>
<g>
	<rect x="-95.5" y="198.3" class="st4" width="57.5" height="57.5"/>
	<rect x="-95.5" y="113.7" class="st4" width="57.5" height="57.5"/>
	<rect x="-95.5" y="29.1" class="st4" width="57.5" height="57.5"/>
	<rect x="-95.5" y="-55.6" class="st4" width="57.5" height="57.5"/>
</g>
<g>
	<polygon class="st5" points="-74.6,-8.6 -88.1,-23.2 -80.8,-30.5 -74.6,-24.2 -53.7,-44.1 -46.3,-36.8 	"/>
	<polygon class="st5" points="-73.5,75 -87.1,61.4 -79.8,54.1 -73.5,60.4 -52.6,40.5 -45.3,47.9 	"/>
</g>
<path class="st6" d="M322.5-52.4l-48.1-48.1L151.1,24.9l-16.7,62.7l65.8-17.8L322.5-52.4z"/>
<polygon class="st7" points="158.5,81.3 140.7,63.5 133.4,88.6 "/>
<path class="st8" d="M349.7-108.9l-18.8-18.8c-8.4-8.4-21.9-8.4-29.3,0l-27.2,27.2l48.1,48.1l27.2-27.2
	C358-86.9,358-100.5,349.7-108.9z"/>
<polygon class="st9" points="274.4,-100.5 151.1,24.9 200.3,69.8 322.5,-52.4 "/>
</svg>
