<?xml version="1.0" encoding="utf-8"?>
<!-- Generator: Adobe Illustrator 21.1.0, SVG Export Plug-In . SVG Version: 6.00 Build 0)  -->
<svg version="1.1" id="Layer_1" xmlns="http://www.w3.org/2000/svg" xmlns:xlink="http://www.w3.org/1999/xlink" x="0px" y="0px"
	 viewBox="0 0 502.4 502.4" style="enable-background:new 0 0 502.4 502.4;" xml:space="preserve">
<style type="text/css">
	.st0{fill:#D9C48F;}
	.st1{fill:#FFFFFF;}
	.st2{fill:#D6EEFA;}
	.st3{fill:#F2EBD9;}
	.st4{fill:#FF8C78;}
	.st5{fill:#FFD15C;}
	.st6{fill:#BFBEB9;}
	.st7{fill:#4CDBC4;}
	.st8{fill:#40596B;}
	.st9{fill:#334A5E;}
</style>
<path class="st0" d="M348.9,31.7H21.8c-11.5,0-20.9,9.4-20.9,20.9V481c0,11.5,9.4,20.9,20.9,20.9h327.1c11.5,0,20.9-9.4,20.9-20.9
	V52.6C369.8,41.1,360.4,31.7,348.9,31.7z"/>
<rect x="28.6" y="59.6" class="st1" width="312.4" height="413.8"/>
<path class="st2" d="M255.9,0.4H114.8c-12.5,0-23,10.4-23,21.9v57.5h186V22.3C278.9,10.8,268.4,0.4,255.9,0.4z"/>
<path class="st3" d="M468,114.3l-48.1-48.1L296.6,191.6l-16.7,62.7l65.8-17.8L468,114.3z"/>
<path class="st4" d="M495.2,57.8L476.4,39c-8.4-8.4-21.9-8.4-29.3,0l-27.2,27.2l48.1,48.1l27.2-27.2
	C503.5,79.8,503.5,66.2,495.2,57.8z"/>
<polygon class="st5" points="419.9,66.2 296.6,191.6 345.8,236.5 468,114.3 "/>
<path class="st6" d="M321.2,343.5h-35.7v-26c0-2.5-2.1-4.6-4.6-4.6l0,0h-76.3v-19.7l57.9-38.6c2.1-1.3,2.5-4.2,1.3-6.3
	c-0.4-0.4-0.8-0.8-1.3-1.3l-57.9-38.6v-26h49.9c2.5,0,4.6-2.1,4.6-4.6l0,0v-48.2c0-2.5-2.1-4.6-4.6-4.6l0,0H145.4
	c-2.5,0-4.6,2.1-4.6,4.6l0,0v48.7c0,2.5,2.1,4.6,4.6,4.6l0,0h49.9v26l-25.1,16.7c-2.1,1.7-2.1,4.6-0.8,6.3c1.3,1.7,3.8,2.1,5.9,1.3
	l24.7-16.9l51.6,34.8l-52,34.8l-52-34.8l10.9-7.6c2.1-1.7,2.1-4.6,0.8-6.3c-1.3-1.7-3.8-2.1-5.9-1.3l-16.8,11.5
	c-2.1,1.3-2.5,4.2-1.3,6.3c0.4,0.4,0.8,0.8,1.3,1.3l57.9,38.6v19.7h-76.4c-2.5,0-4.6,2.1-4.6,4.6v26H77.8c-2.5,0-4.6,2.1-4.6,4.6
	v48.7c0,2.5,2.1,4.6,4.6,4.6h80.6c2.5,0,4.6-2.1,4.6-4.6v-48.7c0-2.5-2.1-4.6-4.6-4.6l0,0h-35.7v-21.4h153.1v21.4h-36
	c-2.5,0-4.6,2.1-4.6,4.6v48.7c0,2.5,2.1,4.6,4.6,4.6H286c2.5-0.4,4.2-2.5,4.2-5c0-2.1-2.1-3.8-4.2-4.2h-41.5v-39.4h71.7v39.4h-11.3
	c-2.5,0.4-4.2,2.5-4.2,5c0,2.1,2.1,3.8,4.2,4.2h15.9c2.5,0,4.6-2.1,4.6-4.6v-48.7C325.9,345.1,323.8,343.5,321.2,343.5L321.2,343.5z
	 M149.6,133.7h100.3v39.4H149.6V133.7z M154.7,391.7H83v-39.4h71.7V391.7L154.7,391.7z"/>
<rect x="53.1" y="124.6" class="st7" width="57.5" height="57.5"/>
<polygon class="st8" points="74,171.7 60.4,157 67.7,149.7 74,156 94.9,136.1 102.2,143.5 "/>
<rect x="53.1" y="222.4" class="st7" width="57.5" height="57.5"/>
<polygon class="st8" points="74,269.5 60.4,254.8 67.7,247.5 74,253.8 94.9,233.9 102.2,241.3 "/>
<polygon class="st9" points="304,248 286.2,230.2 278.9,255.3 "/>
</svg>
