<?xml version="1.0" encoding="utf-8"?>
<!-- Generator: Adobe Illustrator 19.0.0, SVG Export Plug-In . SVG Version: 6.00 Build 0)  -->
<svg version="1.1" id="Layer_1" xmlns="http://www.w3.org/2000/svg" xmlns:xlink="http://www.w3.org/1999/xlink" x="0px" y="0px"
	 viewBox="-145 -166.3 502.4 502.4" style="enable-background:new -145 -166.3 502.4 502.4;" xml:space="preserve">
<style type="text/css">
	.st0{fill:#334A5E;}
	.st1{fill:#FFFFFF;}
	.st2{fill:#E6E6E6;}
	.st3{fill:#E8E8E8;}
	.st4{fill:#89D6F7;}
	.st5{fill:#BFBEB9;}
	.st6{fill:#F2EBD9;}
	.st7{fill:#FF8C78;}
	.st8{fill:#FFD15C;}
</style>
<g id="Capa_1-2">
	<path class="st0" d="M339.8-112.5h-463.2c-11.5,0-20.8,9.3-20.8,20.8v279.5h500.7V-96c0-9.1-7.2-16.5-16.2-16.7
		C340.3-112.5,340-112.5,339.8-112.5z"/>
	<path class="st1" d="M-144.1,187.7v39.7c0,11.5,9.3,20.8,20.8,20.8h459.1c11.5,0,20.8-9.3,20.8-20.8v-39.7
		C356.5,187.7-144.1,187.7-144.1,187.7z"/>
	<circle class="st2" cx="106.2" cy="218.1" r="11.5"/>
	<rect x="10.2" y="248.4" class="st2" width="192" height="56.4"/>
	<rect x="-40.9" y="304.8" class="st1" width="293.1" height="31.3"/>
	<path class="st1" d="M200.1-164.8H-31.6c-11.5,0-20.8,9.3-20.8,20.8v307.7h317.2V-101L200.1-164.8z"/>
	<path class="st3" d="M221.1-101h42.8l-63.8-63.5v42.8C200.1-110.4,209.4-101,221.1-101z"/>
	<polygon class="st4" points="264.8,-81.2 264.8,163.9 323.3,163.9 323.3,-81.2 	"/>
	<polygon class="st4" points="-110.7,-81.2 -110.7,163.9 -52.4,163.9 -52.4,-81.2 	"/>
	<path class="st5" d="M202.5,66.9H174V46.6c0-1.9-1.7-3.6-3.6-3.6h-60.7V27.5l46.1-30.6c1.7-1.2,2.1-3.3,1-5c-0.2-0.5-0.7-0.7-1-1
		l-46.1-30.8v-20.5h39.7c1.9,0,3.6-1.7,3.6-3.6l0,0v-38.5c0-1.9-1.7-3.6-3.6-3.6l0,0H63c-1.9,0-3.6,1.7-3.6,3.6l0,0V-64
		c0,1.9,1.7,3.6,3.6,3.6l0,0h39.7v20.3L82.6-26.8c-1.7,1.2-1.9,3.3-0.7,5c1.2,1.4,3.1,1.9,4.8,1l19.6-13.1l41.1,27.5L106.2,21
		L65.1-6.5l8.8-6c1.7-1.2,1.9-3.3,0.7-5c-1.2-1.4-3.1-1.9-4.8-1L56.5-9.6c-1.7,1.2-2.1,3.3-1,5c0.2,0.5,0.7,0.7,1,1L102.6,27v15.5
		H41.9c-1.9,0-3.6,1.7-3.6,3.6l0,0v20.3H9.9c-1.9,0-3.6,1.4-3.6,3.6c0,0,0,0,0,0.2v38.5c0,1.9,1.7,3.6,3.6,3.6l0,0h64
		c1.9,0,3.6-1.7,3.6-3.6l0,0V70.5c0-1.9-1.7-3.6-3.6-3.6H45.5V50.2h121.1v16.7h-28.4c-1.9,0-3.6,1.7-3.6,3.6l0,0v38.5
		c0,1.9,1.7,3.6,3.6,3.6l0,0h36.5c1.9-0.2,3.3-1.9,3.1-4.1c-0.2-1.7-1.4-2.9-3.1-3.1h-33V74h56.8v31.3h-9.1
		c-1.9-0.2-3.8,1.2-4.1,3.1c-0.2,1.9,1.2,3.8,3.1,4.1c0.2,0,0.5,0,0.7,0H202c1.9,0,3.6-1.7,3.6-3.6V70.5
		C206,68.6,204.4,66.9,202.5,66.9L202.5,66.9z M66.5-98.9h79.3v31.3H66.5V-98.9z M70.4,105.3H13.5V74h56.8V105.3L70.4,105.3z"/>
</g>
<path class="st6" d="M323-52l-48.1-48.1L151.6,25.3L134.9,88l65.8-17.8L323-52z"/>
<polygon class="st0" points="159,81.7 141.2,63.9 133.9,89 "/>
<path class="st7" d="M350.2-108.5l-18.8-18.8c-8.4-8.4-21.9-8.4-29.3,0l-27.2,27.2L323-52l27.2-27.2
	C358.5-86.5,358.5-100.1,350.2-108.5z"/>
<polygon class="st8" points="274.9,-100.1 151.6,25.3 200.8,70.2 323,-52 "/>
</svg>
