<svg xmlns="http://www.w3.org/2000/svg" viewBox="0 0 471.3 607.75"><defs><style>.cls-1{fill:#b6c700;}.cls-1,.cls-10,.cls-11{stroke:#000;stroke-miterlimit:10;}.cls-2{font-size:10px;}.cls-12,.cls-2{font-family:Tahoma, Tahoma;}.cls-3{letter-spacing:0em;}.cls-4{letter-spacing:-0.02em;}.cls-5{letter-spacing:-0.02em;}.cls-6{letter-spacing:0em;}.cls-7{letter-spacing:-0.02em;}.cls-8{letter-spacing:0em;}.cls-9{letter-spacing:-0.01em;}.cls-10{fill:#ff9600;}.cls-11{fill:none;}.cls-12{font-size:14px;}</style></defs><title>img8</title><g id="Capa_2" data-name="Capa 2"><g id="Capa_1-2" data-name="Capa 1"><rect class="cls-1" x="152.01" y="186.94" width="156.17" height="29.6"/><text class="cls-2" transform="translate(169.9 204.45)">Asignar nomb<tspan class="cls-3" x="60.76" y="0">r</tspan><tspan x="64.31" y="0">e a los datos</tspan></text><rect class="cls-1" x="152.01" y="233.18" width="156.17" height="29.6"/><rect class="cls-1" x="22" y="158.53" width="96.22" height="29.6"/><rect class="cls-1" x="152.01" y="280.27" width="156.17" height="29.6"/><text class="cls-2" transform="translate(171.61 292.87)">Definir que ope<tspan class="cls-4" x="67.82" y="0">r</tspan><tspan x="71.25" y="0">aciones se</tspan><tspan class="cls-3" x="37.56" y="10">r</tspan><tspan x="41.11" y="10">equie</tspan><tspan class="cls-3" x="65.03" y="10">r</tspan><tspan x="68.58" y="10">en</tspan></text><rect class="cls-1" x="152.01" y="326.51" width="156.17" height="29.6"/><text class="cls-2" transform="translate(184.75 339.11)">Definir como se <tspan class="cls-5" x="71.95" y="0">v</tspan><tspan x="76.74" y="0">an </tspan><tspan x="-7.6" y="10">a most</tspan><tspan class="cls-4" x="22.41" y="10">r</tspan><tspan x="25.84" y="10">ar los </tspan><tspan class="cls-3" x="53.12" y="10">r</tspan><tspan x="56.67" y="10">esu</tspan><tspan class="cls-6" x="71.98" y="10">l</tspan><tspan x="74.28" y="10">tados</tspan></text><rect class="cls-1" x="152.01" y="372.76" width="156.17" height="42.09"/><text class="cls-2" transform="translate(164.9 386.6)"><tspan class="cls-7">R</tspan><tspan x="6.03" y="0">ea</tspan><tspan class="cls-8" x="16.54" y="0">l</tspan><tspan x="18.83" y="0">ice el algor</tspan><tspan class="cls-6" x="66.89" y="0">i</tspan><tspan x="69.19" y="0">tmo mediante</tspan><tspan x="-0.74" y="10">un Diag</tspan><tspan class="cls-4" x="33.38" y="10">r</tspan><tspan x="36.82" y="10">ama de Flujo de Dtos</tspan><tspan x="-0.86" y="20">ut</tspan><tspan class="cls-8" x="8.06" y="20">il</tspan><tspan x="12.65" y="20">izando la Her</tspan><tspan class="cls-4" x="70.56" y="20">r</tspan><tspan x="73.99" y="20">amienta DFD</tspan></text><rect class="cls-1" x="152.01" y="431.49" width="156.17" height="42.09"/><text class="cls-2" transform="translate(165.97 445.34)">Ut<tspan class="cls-8" x="9.9" y="0">il</tspan><tspan x="14.49" y="0">ice los Objetos p</tspan><tspan class="cls-3" x="87.66" y="0">r</tspan><tspan x="91.21" y="0">opios de</tspan><tspan x="-0.44" y="10">las Her</tspan><tspan class="cls-4" x="30.3" y="10">r</tspan><tspan x="33.73" y="10">amientas DFD pa</tspan><tspan class="cls-4" x="109.37" y="10">r</tspan><tspan x="112.8" y="10">a la</tspan><tspan x="15.48" y="20">solución del Algor</tspan><tspan class="cls-6" x="93.31" y="20">i</tspan><tspan x="95.61" y="20">tmo</tspan></text><rect class="cls-1" x="152.01" y="490.23" width="156.17" height="29.6"/><text class="cls-2" transform="translate(165.91 502.83)">Ejecute el Algor<tspan class="cls-6" x="69.13" y="0">i</tspan><tspan x="71.44" y="0">tmo y </tspan><tspan class="cls-3" x="99.84" y="0">r</tspan><tspan x="103.39" y="0">ea</tspan><tspan class="cls-8" x="113.91" y="0">l</tspan><tspan x="116.2" y="0">ice</tspan><tspan class="cls-5" x="32.2" y="10">v</tspan><tspan x="36.99" y="10">arias pruebas</tspan></text><rect class="cls-1" x="152.01" y="536.47" width="156.17" height="29.6"/><text class="cls-2" transform="translate(168.9 549.07)">Gua<tspan class="cls-3" x="17.5" y="0">r</tspan><tspan x="21.05" y="0">de el A</tspan><tspan class="cls-3" x="51.64" y="0">r</tspan><tspan x="55.2" y="0">chi</tspan><tspan class="cls-9" x="67.67" y="0">v</tspan><tspan x="72.57" y="0">o gene</tspan><tspan class="cls-4" x="102.76" y="0">r</tspan><tspan x="106.19" y="0">ado</tspan><tspan x="9.45" y="10">por la her</tspan><tspan class="cls-4" x="52.24" y="10">r</tspan><tspan x="55.67" y="10">amienta DFD</tspan></text><path class="cls-1" d="M230.1,170.29l-70.72-36.41L230.1,97.48l70.72,36.41Z"/><rect class="cls-1" x="308.57" y="96.24" width="59.96" height="20.96"/><rect class="cls-1" x="92.05" y="96.24" width="59.96" height="20.96"/><rect class="cls-1" x="152.01" y="49.96" width="156.17" height="29.6"/><text class="cls-2" transform="translate(165.58 62.56)">Leer el Enunciado y entender<tspan x="25.45" y="10">¿que se </tspan><tspan class="cls-3" x="62.53" y="10">r</tspan><tspan x="66.08" y="10">equie</tspan><tspan class="cls-3" x="90" y="10">r</tspan><tspan x="93.55" y="10">e?</tspan></text><path class="cls-10" d="M266.51,12.77A12.27,12.27,0,0,1,254.24,25H206a12.27,12.27,0,0,1-12.27-12.27h0A12.27,12.27,0,0,1,206,.5h48.29a12.27,12.27,0,0,1,12.27,12.27Z"/><text class="cls-2" transform="translate(218.16 15.57)"><tspan class="cls-3">I</tspan><tspan x="3.68" y="0">nicio</tspan></text><text class="cls-2" transform="translate(115.16 109.52)">NO</text><text class="cls-2" transform="translate(333.89 109.52)">SI</text><text class="cls-2" transform="translate(192.43 129.52)">¿Los datos están <tspan x="4.79" y="10">definidos en el </tspan><tspan x="13.35" y="20">Enunciado?</tspan></text><text class="cls-2" transform="translate(32.3 171.13)">Definir qué datos<tspan x="0.68" y="10">se </tspan><tspan class="cls-3" x="13.53" y="10">r</tspan><tspan x="17.08" y="10">equie</tspan><tspan class="cls-3" x="41" y="10">r</tspan><tspan x="44.55" y="10">en leer</tspan></text><rect class="cls-10" x="374.58" y="233.18" width="96.22" height="29.6"/><rect class="cls-10" x="374.58" y="280.27" width="96.22" height="29.6"/><text class="cls-2" transform="translate(170.35 245.78)">Definir Estructu<tspan class="cls-4" x="68.24" y="0">r</tspan><tspan x="71.67" y="0">as básicas </tspan><tspan x="2.35" y="10">de p</tspan><tspan class="cls-3" x="21.79" y="10">r</tspan><tspan x="25.35" y="10">og</tspan><tspan class="cls-4" x="36.31" y="10">r</tspan><tspan x="39.74" y="10">amación a ut</tspan><tspan class="cls-8" x="96.96" y="10">il</tspan><tspan x="101.55" y="10">izar</tspan></text><text class="cls-2" transform="translate(394.71 245.78)"><tspan class="cls-6">S</tspan><tspan x="5.59" y="0">ecuenciales</tspan><tspan x="0" y="10">Condicionales</tspan></text><text class="cls-2" transform="translate(394.71 292.87)">Lógicas<tspan x="0" y="10">Matemáticas</tspan></text><path class="cls-10" d="M266.51,595a12.27,12.27,0,0,1-12.27,12.27H206A12.27,12.27,0,0,1,193.68,595h0A12.27,12.27,0,0,1,206,582.72h48.29A12.27,12.27,0,0,1,266.51,595Z"/><text class="cls-2" transform="translate(222.29 597.79)">FIN</text><polyline class="cls-11" points="70.11 188.13 70.11 202.04 152.01 202.04"/><polyline class="cls-11" points="160.13 133.57 70.11 133.57 70.11 158.53"/><polyline class="cls-11" points="308.18 202.04 391.62 202.04 391.62 133.57 301.6 133.57"/><line class="cls-11" x1="308.18" y1="247.98" x2="374.58" y2="247.98"/><line class="cls-11" x1="308.18" y1="295.07" x2="374.58" y2="295.07"/><path d="M230.1,50l-5.84-5.67h11.69Z"/><path d="M230.1,97.48l-5.84-5.67h11.69Z"/><path d="M70.11,158.53l-5.84-5.67H76Z"/><path d="M152,202l-5.67,5.84V196.2Z"/><path d="M308.18,202l5.67-5.84v11.69Z"/><path d="M230.1,233.18l-5.84-5.67h11.69Z"/><path d="M374.58,248l-5.67,5.84V242.14Z"/><path d="M374.58,295.07l-5.67,5.84V289.22Z"/><path d="M230.1,280.27l-5.84-5.67h11.69Z"/><path d="M230.1,326.75l-5.84-5.67h11.69Z"/><path d="M230.1,372.31l-5.84-5.67h11.69Z"/><path d="M230.1,431.49l-5.84-5.67h11.69Z"/><path d="M230.1,490.23l-5.84-5.67h11.69Z"/><path d="M230.1,536.47l-5.84-5.67h11.69Z"/><path d="M230.1,582.72,224.25,577h11.69Z"/><text class="cls-12" transform="translate(130.64 68.68)">1</text><text class="cls-12" transform="translate(130.64 253.82)">5</text><text class="cls-12" transform="translate(130.64 298.99)">6</text><text class="cls-12" transform="translate(130.64 397.72)">8</text><text class="cls-12" transform="translate(130.64 456.46)">9</text><text class="cls-12" transform="translate(130.64 508.95)">10</text><text class="cls-12" transform="translate(130.64 555.19)">11</text><text class="cls-12" transform="translate(130.64 345.23)">7</text><text class="cls-12" transform="translate(225.65 183.83)">4</text><text class="cls-12" transform="translate(0 177.25)">3</text><line class="cls-11" x1="230.1" y1="47.12" x2="230.1" y2="25.03"/><line class="cls-11" x1="230.1" y1="94.64" x2="230.1" y2="79.56"/><line class="cls-11" x1="230.1" y1="231.62" x2="230.1" y2="216.53"/><line class="cls-11" x1="230.1" y1="277.86" x2="230.1" y2="262.78"/><line class="cls-11" x1="230.1" y1="324.95" x2="230.1" y2="309.86"/><line class="cls-11" x1="230.1" y1="371.19" x2="230.1" y2="356.11"/><line class="cls-11" x1="230.1" y1="429.93" x2="230.1" y2="414.84"/><line class="cls-11" x1="230.1" y1="488.66" x2="230.1" y2="473.58"/><line class="cls-11" x1="230.1" y1="534.91" x2="230.1" y2="519.82"/><line class="cls-11" x1="230.1" y1="581.15" x2="230.1" y2="566.07"/></g></g></svg>