<svg xmlns="http://www.w3.org/2000/svg" viewBox="0 0 125.27 158.63"><defs><style>.cls-1{fill:#519c4c;}.cls-1,.cls-2,.cls-3{fill-rule:evenodd;}.cls-2{fill:#fff;}</style></defs><title>logo</title><g id="Capa_2" data-name="Capa 2"><g id="Capa_1-2" data-name="Capa 1"><path id="_Trazado_" data-name="&lt;Trazado&gt;" class="cls-1" d="M125.27,79.32C125.27,29.84,96.73,0,96.73,0H.17V158.63H96.73S125.27,128.79,125.27,79.32Z"/><g id="_Grupo_" data-name="&lt;Grupo&gt;"><path class="cls-2" d="M125.11,79.32C125.11,49.84,111.6,22.5,88.56,0H0V158.63H88.56C111.6,136.13,125.11,108.8,125.11,79.32Z"/></g><g id="_Grupo_2" data-name="&lt;Grupo&gt;"><path id="_Trazado_2" data-name="&lt;Trazado&gt;" class="cls-3" d="M59.28,42a8.27,8.27,0,1,1-8.23,8.27A8.27,8.27,0,0,1,59.28,42"/><path id="_Trazado_compuesto_" data-name="&lt;Trazado compuesto&gt;" class="cls-3" d="M29.32,68.72v0l0,.3A1,1,0,0,0,30,70a6.13,6.13,0,0,0,2.26.31,5.24,5.24,0,0,0,1.82-.26q.66-.26.66-.7c0-.45-.87-.82-2.62-1.1l-.45-.07-.49-.08q-4.15-.68-5.33-1.47a2.74,2.74,0,0,1-.87-.92,2.47,2.47,0,0,1-.29-1.19,2.69,2.69,0,0,1,1.91-2.47,14.29,14.29,0,0,1,5.58-.85,13.71,13.71,0,0,1,5.38.79,2.6,2.6,0,0,1,1.75,2.45v.13H34.73v0a.93.93,0,0,0-.69-.86,5.46,5.46,0,0,0-2-.29,4.81,4.81,0,0,0-1.6.21c-.38.14-.57.34-.57.59,0,.46,1,.85,3,1.17l.9.14q2.13.36,3,.61a8,8,0,0,1,1.56.61,3.06,3.06,0,0,1,1.13,1,2.4,2.4,0,0,1,.4,1.34q0,1.67-2.08,2.57a15.57,15.57,0,0,1-6,.9,13.25,13.25,0,0,1-5.58-.87,2.9,2.9,0,0,1-1.72-2.78v-.16Zm12.55,3.62v-11H54.92v2.36H46.77v1.75h7.54v2.33H46.77v2.13h8.46v2.39Zm15.41,0v-11h6.21l6.64,7.36V61.37h4.71v11H68.4L62,65v7.38ZM87.5,68l-2.35-4-2.48,4ZM80,72.34H75.12l7.59-11h5.44l7.24,11H89.93l-1.11-2H81.22Z"/><path id="_Trazado_3" data-name="&lt;Trazado&gt;" class="cls-3" d="M35.35,111,31,106.89,44.3,83.75a1.89,1.89,0,0,0-1.64-2.84H20.83V75.12H56Z"/><path id="_Trazado_4" data-name="&lt;Trazado&gt;" class="cls-3" d="M82.83,111l4.38-4.12L73.87,83.75a1.89,1.89,0,0,1,1.64-2.84H97.34V75.12H62.21Z"/><path id="_Trazado_5" data-name="&lt;Trazado&gt;" class="cls-3" d="M59,81.24l0-.08,19.8,32.72-5.26,2.73L60.87,95.25a1.93,1.93,0,0,0-3.32,0L44.87,116.62l-5.15-2.54L59,81.24"/></g></g></g></svg>