<svg xmlns="http://www.w3.org/2000/svg" xmlns:xlink="http://www.w3.org/1999/xlink" viewBox="0 0 274.43 543.87"><defs><style>.cls-1,.cls-13,.cls-14,.cls-45{fill:none;}.cls-18,.cls-2,.cls-40,.cls-43{fill:#ecba97;}.cls-18,.cls-2,.cls-40,.cls-45{stroke:#9f7557;}.cls-18,.cls-19,.cls-2,.cls-26,.cls-28,.cls-3,.cls-40,.cls-45{stroke-linecap:round;stroke-linejoin:round;}.cls-2{stroke-width:1.54px;}.cls-3{fill:#767f84;}.cls-19,.cls-24,.cls-3{stroke:#8fa5aa;}.cls-17,.cls-19,.cls-22,.cls-24,.cls-25,.cls-3{stroke-width:1.18px;}.cls-4{fill:#0c0c0c;}.cls-10,.cls-22,.cls-4,.cls-5,.cls-6,.cls-7,.cls-8,.cls-9{stroke:#1d1d1b;}.cls-10,.cls-13,.cls-14,.cls-17,.cls-22,.cls-24,.cls-25,.cls-37,.cls-38,.cls-4,.cls-42,.cls-5,.cls-6,.cls-7,.cls-8,.cls-9{stroke-miterlimit:10;}.cls-10,.cls-4,.cls-5,.cls-9{stroke-width:1.33px;}.cls-5{fill:#272727;}.cls-6,.cls-9{fill:#191919;}.cls-6{stroke-width:0.98px;}.cls-10,.cls-7,.cls-8{fill:#7f8080;}.cls-7{stroke-width:1.43px;}.cls-8{stroke-width:1.56px;}.cls-11{fill:#79695c;}.cls-12{fill:#56564a;}.cls-13,.cls-14{stroke:#5e5249;}.cls-13{stroke-width:1.31px;}.cls-14{stroke-width:1.32px;}.cls-15{fill:#5e5249;}.cls-16{fill:#5b4c42;}.cls-17,.cls-22,.cls-26{fill:#c1da9d;}.cls-17,.cls-26{stroke:#a4b586;}.cls-18{stroke-width:1.39px;}.cls-19,.cls-24,.cls-25{fill:#eaf6fe;}.cls-20{fill:#c2d7e2;}.cls-21{fill:#f5fbff;}.cls-23{fill:#98a580;}.cls-25{stroke:#65787f;}.cls-26{stroke-width:0.98px;}.cls-27{fill:#cda285;}.cls-28{fill:#ffa96a;stroke:#6b4429;stroke-width:1.12px;}.cls-29{fill:#f9cdaf;}.cls-30{fill:#452109;}.cls-31{fill:#fff;}.cls-32{clip-path:url(#clip-path);}.cls-33{fill:#a85715;}.cls-34{fill:#3d1800;}.cls-35{clip-path:url(#clip-path-2);}.cls-36{fill:#595455;}.cls-37,.cls-38{fill:#564f4c;stroke:#473f3d;}.cls-37{stroke-width:1.29px;}.cls-38{stroke-width:1.27px;}.cls-39{opacity:0.3;}.cls-40{stroke-width:1.47px;}.cls-41{fill:#545454;opacity:0.4;}.cls-42{fill:#9db2aa;stroke:#6f7b7f;stroke-width:0.97px;}.cls-44{fill:#c99979;}.cls-45{stroke-width:0.69px;}</style><clipPath id="clip-path"><path class="cls-1" d="M184.41,48.94c.52.25-.29,6.28-5.47,6.21-2,0-9.43.11-9.63-5.68C169,47.78,178.58,46.59,184.41,48.94Z"/></clipPath><clipPath id="clip-path-2"><path class="cls-1" d="M148.09,46.24s-.78,5.82,3.91,6.5,9.28-.79,9.87-3.89C162.36,47.34,153.77,44.9,148.09,46.24Z"/></clipPath></defs><title>pj1</title><g id="Capa_2" data-name="Capa 2"><g id="Capa_1-2" data-name="Capa 1"><path class="cls-2" d="M194.87,134.85l-33.48,3.63c4.69-23.67,1.07-37.74,1.07-37.74l30.92-25.59C190.25,95.46,192.8,114.65,194.87,134.85Z"/><path class="cls-3" d="M68.49,153.79c1.35,1.89,0,6.55-3.33,13.7S57.69,178.4,54.36,176s1.38-10.42,3.87-14.52S67.38,152.23,68.49,153.79Z"/><path class="cls-4" d="M190.95,509.37c-.76,2.55-2.34,11-4.63,16.33S185,536,185.37,538.33s9.62,5,20.94,4.87,17.76-1.15,19.49-3.9.7-9.62-2.26-12.91-6.44-18.25-7.24-20.59-23.86-3.48-24.43-1.71A35,35,0,0,0,190.95,509.37Z"/><path class="cls-5" d="M190.91,505.14c-.76,2.55-1.64,12.12-3.93,17.42a19.58,19.58,0,0,0-1.64,11.54c.41,2.34,9.62,5,20.94,4.87s17.76-1.15,19.49-3.9-.87-8.58-3.83-11.87-4.88-19.28-5.68-21.62-23.86-3.48-24.43-1.71A35,35,0,0,0,190.91,505.14Z"/><path class="cls-6" d="M214.13,499.29c-.25,2.62-.81,10.15.92,13.64s3.73,9.87,2.38,10.61-8.58-.46-12.1-.15h-.1c-3.52-.24-10.73,1.1-12.09.39s-.06-7.36,1.83-10.76c2-3.65,1.3-10.93,1-13.55C196.21,496,214,495.32,214.13,499.29Z"/><path class="cls-7" d="M215.33,520.19a77.64,77.64,0,0,0-20.73.2c-1.09,0-.15-4.36,1-4.72a49.18,49.18,0,0,1,18.59-.18C215.29,515.77,216.55,520,215.33,520.19Z"/><path class="cls-8" d="M213.78,513.47a65.48,65.48,0,0,0-17.75.17c-.93,0-.25-3.83.76-4.15a41.46,41.46,0,0,1,16.16-.16C213.86,509.58,214.83,513.28,213.78,513.47Z"/><path class="cls-8" d="M212.58,506.56a65.26,65.26,0,0,0-15.48.15c-.81,0-.3-2.95.58-3.19a41.25,41.25,0,0,1,14.26-.14C212.74,503.57,213.5,506.41,212.58,506.56Z"/><path class="cls-4" d="M124.65,498.76c-.67.37-3.83,7.1-10.12,9.95s-10.72,6.24-13.67,7.94-1.2,10.23.49,12.26,16.42,6.9,24.93,3.1,11.81-8.48,17.55-10.76,12-5.91,11.59-8.51-1.6-9-1.45-12.2S131.48,495,124.65,498.76Z"/><path class="cls-5" d="M124.61,495.23c-.67.37-3.83,7.1-10.12,9.95s-11.27,6.61-14.23,8.32-1.75,10.61-.06,12.64,17.53,6.15,26,2.35S138,520,143.78,517.72s11.65-5.5,11.26-8.1a91.72,91.72,0,0,1-.68-12.63C154.51,493.83,131.45,491.45,124.61,495.23Z"/><path class="cls-9" d="M117.9,512.57c2.41,2.37,5,2.08,7.31.39s11.56-6.16,13.71-10.23a19.81,19.81,0,0,0,2-9.32c-6.28-.38-13.06,0-16.27,1.81-.67.37-3.83,7.1-10.12,9.95a70.74,70.74,0,0,0-8.58,4.73c.13.12.15.12.15.12C108.18,510.28,115.48,510.2,117.9,512.57Z"/><path class="cls-10" d="M108.48,508.44c3.29-.37,8,.37,13.57,2.7.95.4,3.69-1.07,3.26-1.74-1.55-2.42-11.22-3.54-13.14-3.19a12.53,12.53,0,0,0-2.66.78C108.17,507.62,107.67,508.53,108.48,508.44Z"/><path class="cls-10" d="M115.22,504.87c3.28-.43,8.05.23,13.62,2.47,1,.38,3.67-1.13,3.23-1.8-1.59-2.39-11.28-3.35-13.2-3a12.53,12.53,0,0,0-2.64.83C114.89,504.05,114.41,505,115.22,504.87Z"/><path class="cls-10" d="M120.17,501.06c3.27-.49,7.72.27,13.54,1.74,1,.25,3.49-1.62,3-2.22-1.9-2.15-12.35-2.55-14.26-2.13a3.62,3.62,0,0,0-1.93,1.06C119.46,500.6,119.36,501.18,120.17,501.06Z"/><path class="cls-11" d="M201.48,505.22a37.7,37.7,0,0,1-10.77-1.78,16,16,0,0,0-3.7-.8l-.33,0a4.66,4.66,0,0,1-.59,0,1.67,1.67,0,0,1-1.5-.66c-.6-.91,0-2.27.86-4.33s2.11-5,2-7.69c-.34-6.1-3.18-30.84-5.92-54.77-2.2-19.19-4.48-39-5.44-49-2-21-2.65-73.14-2.72-79.86l-4.15.34c.05,3.48.29,20.88.25,34.65,0,8.1-2,29.37-3.93,49.95-1.76,18.88-3.58,38.41-3.92,48-.57,16.14-.33,52.14.82,56,1.79,4.52-1.32,6-1.35,6a30.37,30.37,0,0,1-10.05,1.53,29.62,29.62,0,0,1-12.18-2.31c-4.87-2.28-10.08-2.38-14.69-2.47-1.67,0-3.25-.06-4.7-.2H119l-.22-.38c-.53-1,3.18-6.48,3.22-6.53.82-1.17.86-11.29.9-19.42,0-5.62.05-11.42.27-15.83.43-8.63-.24-22.45-.88-35.82s-1.31-27.25-.88-35.95c.84-17.11,1.74-98.26,1.75-99.08v-.06l5-26.27.49-.05c.45,0,45.56-4.68,69.59-4.68,12.61,0,14.89,1.26,15.48,2.36,1.63,3.07,2.56,12.1,3.63,22.57,1,9.49,2,19.31,3.6,24.89,3.39,11.67,3,88.74.74,108-1.7,14.63-3.36,75.21-1.76,78.64,2.08,2.06,3,3.85,2.91,5.47-.14,1.88-1.7,3-2.73,3.75-.26.19-.5.36-.68.52l-.05,0-.06,0C213.2,503.5,207.37,505.22,201.48,505.22Z"/><path class="cls-12" d="M198.24,254.38c8.28,0,14.11.54,14.89,2,3,5.74,3.81,35.7,7.18,47.33s2.94,88.59.72,107.72c-1.59,13.72-3.51,76.36-1.63,79.12,5.77,5.66,1,7.56-.41,8.84-6.89,4-12.72,5.16-17.51,5.16-7.07,0-11.87-2.58-14.46-2.58l-.41,0a4,4,0,0,1-.51,0c-3.37,0,2.27-6,2-12-.62-11-9.2-81.4-11.36-103.85-2.17-22.61-2.73-80.52-2.73-80.52l-5.48.45s.3,19.8.26,35.25-7.14,77.85-7.85,97.89c-.53,15-.37,52.1.85,56.21,1.59,4-1,5.17-1,5.17a29.91,29.91,0,0,1-9.78,1.48,29.22,29.22,0,0,1-11.9-2.25c-6.85-3.21-14.36-2.21-19.72-2.74l0,0c-.31,0,1.32-3.25,3.15-5.86,1.49-2.13.7-23.84,1.28-35.59.85-17.32-2.62-54.45-1.77-71.77s1.75-99.1,1.75-99.1l4.93-25.73s45.24-4.68,69.52-4.68m0-1.33c-24.06,0-69.2,4.64-69.65,4.69l-1,.1-.19,1-4.93,25.73,0,.12v.12c0,.82-.9,82-1.75,99.05-.43,8.73.24,22.6.89,36s1.31,27.16.89,35.75c-.22,4.42-.24,10.24-.27,15.86,0,7.88-.08,17.68-.8,19.07a38.83,38.83,0,0,0-2.36,3.86c-1.13,2.13-1.21,2.7-.89,3.32l.37.72.84,0h.11c1.45.13,3,.16,4.68.2,4.54.09,9.68.19,14.42,2.41a30.27,30.27,0,0,0,12.46,2.37,31.06,31.06,0,0,0,10.24-1.56l0,0,0,0c1.29-.57,3.29-2.72,1.71-6.81-1.09-4-1.33-40.1-.78-55.74.33-9.54,2.15-29,3.91-47.92,1.92-20.59,3.91-41.88,3.93-50,0-13.08-.17-29.45-.24-34l2.82-.23c.1,9.07.76,58.78,2.72,79.2,1,10,3.24,29.88,5.44,49.09,2.74,23.9,5.57,48.62,5.91,54.71.1,2.56-1,5.23-2,7.38s-1.6,3.75-.8,5a2.28,2.28,0,0,0,2.05,1,5.24,5.24,0,0,0,.68,0H187a16.15,16.15,0,0,1,3.51.77,38.25,38.25,0,0,0,10.95,1.81c6,0,11.95-1.75,18.17-5.34l.12-.07.1-.09c.14-.13.38-.3.62-.48,1.13-.82,2.84-2.06,3-4.24.13-1.8-.84-3.72-3-5.88-1.51-4.87.17-63.87,1.84-78.2,2.24-19.27,2.64-96.53-.76-108.24C220,297.81,219,288,218,278.57c-1.08-10.53-2-19.62-3.7-22.81-.7-1.31-2.57-2.71-16.06-2.71Z"/><path class="cls-13" d="M203.92,494.83c-4.54-7.26-3.63-86.73-4.54-104s-.91-106.9-.91-106.9"/><path class="cls-14" d="M146.73,303.93s-2.61,72.61-5.45,89.65c-2.72,16.34-4.54,94,0,101.25"/><path class="cls-11" d="M150.65,490.82c9.88.62,6.23-2.12,7.75-3.72.11,2.62,2.93,4.8,3.09,6.33C157.37,493.32,150.65,490.82,150.65,490.82Z"/><path class="cls-15" d="M160.84,500.6c-5.7,2.07-15.56,2.1-21.68-.77-6.85-3.21-14.36-2.21-19.72-2.74-.5.29,1.2-3.13,3.1-5.85a5.42,5.42,0,0,0,.57-2.09,14.85,14.85,0,0,0,11.07-.79c4.89-2.44-1,6.92,7.1,7.33s5.12-4.07,10-7.33,5.29-17.38,4.48-35.71-2-13.88.41-29.76,4.07-26,4.89-44.75,8.14-57.16,4.48-66.53-2.67-10.18-6.75-15.07-5.7-6.52,11.81-4.07,20.39,2.44,12.65,5.29-6.52,4.07-5.29,11-2.44,19.17-.81,32.2,8.55,44.1,7.33,58.76-4.89,24.39-.41,38.64,3.26,32.89,3.67,41.85c.44,9.77.41,9.77,6.52,12.62a11.17,11.17,0,0,1,2.63,1.76,9.27,9.27,0,0,1-6.3.69c-4.48-1.22-3.29-.81-3.7,4.07a2.71,2.71,0,0,1-1.8,2.39c-1.64-1.23,1.24-6.48,1-11.77-.62-11-7.2-81.4-9.35-103.85-2.17-22.61-4.73-80.52-4.73-80.52l-3.48.45s.3,19.8.26,35.25-7.14,77.85-7.85,97.89c-.39,11.06-.41,36.23.1,47.87-1.92,2-4.6,3.92-7.75,3.72a19,19,0,0,0,8.17,2.61,13,13,0,0,0,.33,2C163.42,499.46,160.84,500.6,160.84,500.6Z"/><path class="cls-15" d="M122.54,491.25c1.49-2.13.7-23.84,1.28-35.59.85-17.32-2.62-54.45-1.77-71.77.38-7.81-1.35-42.84-.44-60.06l3,.86.81,3.67S123.6,372,126,391.59s6.52,28.46,2.44,32.53-3.67,51.62-1.63,58.14c1.86,5.95-3.47,7.38-3.77,14.91-.33,0-2.66,0-3-.08C119.61,497.38,120.63,494,122.54,491.25Z"/><path class="cls-15" d="M217.35,495.7c-.05-.87-.08-1.57-.1-2.13a23.41,23.41,0,0,1-9.51-.8c3.82-1.67,8.18-7.64,8-8.46-2-8.55,2.12-40.19,2.12-40.19s.41-28.49,1.63-45.6,0-20-1.22-26.88.81-36,.81-36l3.61-.53c.36,22.58-.33,64.91-1.64,76.27-1.24,10.69-4.19,60.57-2.45,75.68.09,1.58-3.88,3.46-8.15,5.33a17.52,17.52,0,0,0,9.82-1l.19.27h0c4.07,4.79-.13,6.52-1.46,7.71-3.67,2.12-3.83,3.44-7.13,4.21l.08-.23C219.07,500.18,217.76,502.63,217.35,495.7Z"/><path class="cls-16" d="M214.21,326.64l-.27,3.94c-11.45,2.66-25.18,4.49-35,1.74l-.64-3.3Z"/><path class="cls-17" d="M166.29,136.77s-6-14.79-7.21-19c-9.15,3.15-20.85,8-23.64,13.28-4.73,8.89-13.12,103.52-13.35,120.8s15.07,11.79,31.15,12,49-5.7,57-9.8,2.47-33.38,3.52-49.06,19.46-64.08,11.75-72-20.93-17.34-27.66-20.76S166.29,136.77,166.29,136.77Z"/><path class="cls-18" d="M54.21,138.74c-6.72-12-17.14-10.9-25.26-13.32-6.11-1.82-9.12,15.26-8.65,20.31s13.56,7.45,13.56,7.45,4.16-1.13,9.66,4.12c1.34,1.28,31.14,30.46,31.14,30.46l8.21-22S55.74,152.06,54.21,138.74Z"/><path class="cls-18" d="M54.78,142.72c-1-2.5-.58-4-.18-7.52s-4.22-7.37-3.4-12.73.77-10.48,0-12.54-5.24-.6-6.28,4.21-1.33,9.28-.54,12.11c0,0-6.79,7.81-3.67,15.52"/><path class="cls-18" d="M23.83,142.53s-9.39-1.11-11.91-2.06-9.75-4.59-10.85-5.56-.07-6.87,6.4-4,8.22,4.17,8.55,4.17,7.45.91,8.35,1.2"/><path class="cls-18" d="M28.76,125.34s-7.44-1.66-9.29-2.56a47.16,47.16,0,0,1-9.11-5.47c-2.42-1.94-7.84,1.71-5.09,3.87a119.11,119.11,0,0,0,11.41,7.1s6,1.78,9,2.95a17.5,17.5,0,0,1-1.24,7"/><path class="cls-18" d="M24.37,138s-9.6-2.9-11.92-4.27-8.83-6.18-9.75-7.32.6-6.7,6.48-2.76,7.89,5.43,8.21,5.47c1.33.16,7.4,2,8.22,2.22"/><path class="cls-18" d="M38.17,144.07c-3.29-1.49-9.84-2.19-12.23-1.41,0,0-4.27-1.59-5.27-3.11a15.26,15.26,0,0,1-1.81-6.2c-.36-3.38-5.43-8.45-4.92-1.7s-.37,7.09,1.19,9.8,6.3,8.12,7.74,10.39,12.89,2.06,15.82.39"/><path class="cls-19" d="M122.92,129.65s-27.38,41.12-29,44.93c0,0-20.39-16.66-25.06-20.4,0,0-4.45,19.43-14.11,22.05,0,0,25.22,36,35.77,37.58s34.43-30.25,36.08-33.64C126.56,180.16,127.63,137.61,122.92,129.65Z"/><path class="cls-20" d="M90.48,213.54C79.93,212,54.71,176,54.71,176a13,13,0,0,0,6.54-4.88c1.7,3.42,3.28,7.46,7.86,11.53C76.7,189.35,86,203.68,91,203.68s21.51-21.51,29.52-29.52a66.91,66.91,0,0,0,5.58-6.5c.33,7.07.43,12.24.43,12.24C124.91,183.29,101,215.12,90.48,213.54Z"/><path class="cls-21" d="M101.7,174.84c-5.9,4.64-.42,2.11-.42,6.32s-2.11-2.11-7.16-2.95c0,0,4.21,3.79,4.21,7.16a10.26,10.26,0,0,0-4.64-5.06c-3.37-1.69-5.48-1.69-13.49-9.69a81.84,81.84,0,0,0-12.69-9.91,58.91,58.91,0,0,0,1.87-6.15c4.67,3.75,25.06,20.4,25.06,20.4,1.65-3.81,29-44.93,29-44.93a23,23,0,0,1,2,6.51C123.79,145.44,107.58,170.22,101.7,174.84Z"/><path class="cls-22" d="M146.32,122.87c-3.26,2.37-7.52,5.39-10.07,6.93C138.2,127.34,142,125,146.32,122.87Z"/><path class="cls-23" d="M150.83,119.55l2.06.46c-2.23.88-4.47,1.84-6.57,2.86C148.89,121,150.83,119.55,150.83,119.55Z"/><path class="cls-16" d="M124,255.67c-.17-3.55-.15,1.3,0-3.86.21.47.41-8.43.62-8l0,.08c.25,13.63,9,18.38,20.32,19.81-.38,11.28-.26,21.2-.59,27.44-1.21,22.86,5.76,34.74,5.43,33.83-9.14,6.12-28.58,4.07-27.64-5S125.29,282,124,255.67Z"/><path class="cls-23" d="M122.09,251.51c.23-17.24,8.62-111.66,13.35-120.53a8.05,8.05,0,0,1,.8-1.2c2.55-1.54,6.81-4.55,10.07-6.92,2.1-1,4.34-2,6.57-2.85l4.35,1c-3.66,10.54-13,56.54-12.33,84.93.43,17.8,1,38.48.29,57.09C132.42,261.56,121.9,265.83,122.09,251.51Z"/><path class="cls-24" d="M151.5,114.87s-23.21,10.24-27.33,12.54-3.31,7.93-4.37,14.71-1.86,86.7-.47,113-1.37,52.68-2.41,61.71,20.42,11.08,30.52,5c0,0-6.54-14.61-5.57-31.17s3.19-56,1-84.52,8.67-74.56,12.33-85.13Z"/><path class="cls-19" d="M148.25,117.42s-7.21,4.45-9.44,7.11.15,15.8-.91,21.83-2.91,10.18-.3,7.9,4.84-.95,4.84-.95-10,7.39-8.11,13.39,6.61,74.59,8.25,81.38c.08,8.65.89-65.36,2.29-76.28s6.77-43.63,8.24-46.65S151.25,117,148.25,117.42Z"/><path class="cls-25" d="M206.05,112.92s25.53,12.28,30.78,18c-11.53,17-6.92,39.72-13,68.37s-5.78,60.49-.3,82.63,4.83,31.93,6.77,38.68c0,0-20.93,14.12-52.2,8.41,0,0-7.35-59.36-8-83.43s15.2-97.83,23-112.2S206.05,112.92,206.05,112.92Z"/><path class="cls-20" d="M191.47,329.23a58.64,58.64,0,0,0,9.25-1.83c6.15-1.6,14.13-4.2,18.21-9.44a2,2,0,0,0,.32-.59l.25-.23c5.95-5.55,5.55-9.52.79-20.63s-4.36-30.14-7.14-52.36,4.36-41.63,5.16-49.16-7.93-4-10.31-15.47,5.16-23,5.16-23,5.16,11.11,6.74,17.85c.62,2.65,3.26,6.33,6.24,9.83-.73,5-1.63,10-2.68,15-6.11,28.65-5.78,60.49-.3,82.63s4.83,31.93,6.77,38.68c0,0-16.84,11.07-42.84,9.31Z"/><path class="cls-20" d="M210.82,121.85c2.87,6-10.12,33.45-8,43.47s-7.61,2.08-10.06-1.91c0,0,2.13,12.44,5.77,15.21s-21.86,22.32-25.36,75c0,0,4.78,59.76,11.54,76-2.34,0-4.6-.72-6.22-.9-1.26-10.38-7.47-61.61-8-83.1-.61-24.07,15.2-97.83,23-112.2,6.13-11.36,10.69-15.89,12.33-17.29A18.37,18.37,0,0,1,210.82,121.85Z"/><path class="cls-21" d="M144.48,124.94a34.75,34.75,0,0,0,2.78,10.31,116.13,116.13,0,0,1-2,15.87c-1.59,7.54-1.84,7-2.24,17.06s-.8,19.29-.8,19.29-5.22-4-3.62-14.87-1.21-9.24,1.61-13.66,1.61-12.05,1.61-12.05-3.21-13.26-1.21-18.48S144.48,124.94,144.48,124.94Z"/><path class="cls-15" d="M166.69,300.28l-.11-4.21S166.9,296.07,166.69,300.28Z"/><path class="cls-19" d="M170.79,250.41c-2.4-13.37-3.32-62.62,6.77-86.46,10.55-24.92,21.79-45.08,22.07-50.58s6-.73,8.82,5.27-10.12,33.45-8,43.47-7.61,2.08-10.06-1.91c0,0,2.13,12.44,5.77,15.21S174.29,197.73,170.79,250.41Z"/><path class="cls-21" d="M202.79,115.42c3.17,4.76,6.35,5.16,3.17,11.11s-6.74,10.71-7.14,18.25-7.14,6.35-7.14,6.35-6.74,2.38-5.16,10.71,5.95,10.71,4,15.07-6.74,5.95-9.12,14.68-5.55-1.19-3.57-12.3,1.59-22.61,10.31-34.11S202.79,115.42,202.79,115.42Z"/><path class="cls-26" d="M166.29,136.77s8.53-11.94,16.21-16.63,9.6-6.4,10.24-9.17c0,0,3,6.4-2.77,12.58S182.07,124.62,166.29,136.77Z"/><path class="cls-17" d="M192.09,99.45c1,5.07.81,8.19-.47,11.6s-1.67,5.88-3.16,7.16,0,3.84,1.28,4.48,5.33,9.38,5.54,16,5.54-5.54,9.17-10.45,5.33-9.6,4.05-14.5-8.53-9-11.52-13.86S192.09,99.45,192.09,99.45Z"/><path class="cls-26" d="M163.09,103.72c.82,1-2,20,3.2,33.05,0,0-9.17-12.79-10.24-17.27s3.63-14.29,5.12-17.49S163.09,103.72,163.09,103.72Z"/><path class="cls-26" d="M149,111.18c-2.36,2.24.43,10.66-1.71,18.55,0,0,5.33-10.24,8.74-10.24a24.7,24.7,0,0,1,2.35-10,25.85,25.85,0,0,0,2.77-7.46S153.07,107.34,149,111.18Z"/><path class="cls-27" d="M177,105.32c1-1.84,9.47-9.22,14.44-17.52.2-4.18.58-8.39,1.22-12.65l-29.79,25.59a47.75,47.75,0,0,1,.93,6.41C169.05,107.46,176.1,107.08,177,105.32Z"/><path class="cls-18" d="M175.79,8.45c-7.51-.3-22.55-.29-23.7,10.12s-3.76,29.19-7.8,34.4-4.34,13.3-.58,19.66,8.38,16.48,9.25,20.52-.29,9,3.18,10.12,16.76,1.45,18.21-1.16,17.92-15.9,19.37-27.75,13-46,5.78-54.92S183,8.74,175.79,8.45Z"/><path class="cls-27" d="M199.5,19.43c-7.23-9-16.48-10.69-23.7-11-6.27-.25-17.76-.28-22.07,5.76,3.64.41,6.56-2.16,12.43-2.6,6.43-.48,9,6.27,16.07,6.43s6.59,3.86,8.19,6.91-3.21,5.3-4.82,7.87,1.12,4,4.82,7.71S193,51.77,192.66,56.1a19.48,19.48,0,0,1-1.39,6.53l4.47-1.56C199.23,46,205.17,26.47,199.5,19.43Z"/><path class="cls-28" d="M197.68,57"/><path class="cls-28" d="M193.81,74.35"/><path class="cls-27" d="M169.41,90.63c-1.89-1-6-3.12-9.69-1.45"/><path class="cls-29" d="M159.27,103.21c-5.7-1.27-4.09-6.11-4.94-10.08s-4.8-14.16-8.55-20.52S143,55.38,147.05,50.18c1.57-2,1.49-7.46,4-12.84,3.53-7.65,3.07-17.16,3.76-23.64a9,9,0,0,0-2,4.87C151.61,29,149,47.76,145,53s-4.34,13.3-.58,19.66,8.38,16.48,9.25,20.52-.56,8.62,2.91,9.77A9.45,9.45,0,0,0,159.27,103.21Z"/><path class="cls-30" d="M184.34,48.57c.42.5-.2,5.85-5.37,5.76s-9.16-1.38-9.73-5.58C169,47.05,178.3,45.58,184.34,48.57Z"/><path class="cls-31" d="M184.41,49c.58.29-.26,6.12-5.47,6.21-5.91.1-9.51-2.27-9.63-5.68C169,47.84,178.57,46.65,184.41,49Z"/><g class="cls-32"><circle class="cls-33" cx="176.37" cy="51.42" r="4.1" transform="matrix(0.2, -0.98, 0.98, 0.2, 90.97, 214.08)"/><circle class="cls-34" cx="176.37" cy="51.42" r="2.08" transform="translate(90.97 214.08) rotate(-78.55)"/><circle class="cls-31" cx="174" cy="50.68" r="1.06" transform="translate(89.8 211.16) rotate(-78.55)"/></g><path class="cls-30" d="M148.27,45.85c-.6.32-1.25,5.21,3.62,5.89,4.66.65,8.9,1.46,10.15-3.67C162,46.46,153.13,42.89,148.27,45.85Z"/><path class="cls-31" d="M148.09,46.24c-.54.16-1,5.93,3.91,6.5,4.71.56,9.28-.79,9.87-3.89C162.36,47.34,153.77,44.9,148.09,46.24Z"/><g class="cls-35"><circle class="cls-33" cx="154.87" cy="49.98" r="3.81" transform="matrix(0.3, -0.95, 0.95, 0.3, 60.08, 182.26)"/><circle class="cls-34" cx="154.87" cy="49.98" r="1.97" transform="translate(60.08 182.26) rotate(-72.26)"/><circle class="cls-31" cx="152.92" cy="47.75" r="0.98" transform="translate(60.84 178.85) rotate(-72.26)"/></g><path class="cls-36" d="M205.56,56.21l-8.84,7.23-5.46-.8a17.53,17.53,0,0,0,2.09-7.23c.32-4.34,1.45-11.89-2.25-15.58s-6.43-5.14-4.82-7.71,6.43-4.82,4.82-7.87-1.12-6.75-8.19-6.91-9.64-6.91-16.07-6.43-9.32,3.53-13.5,2.41S149,5.92,155.11,4.48s15.26-5.62,22-4.18,9.32,4.34,16.23,4.18S209.58,9,212,15.4s-.64,12.69-2.89,16.23S208.94,50.59,205.56,56.21Z"/><path class="cls-37" d="M163.22,40.53c-.29-1.65-2.06-2.62-5.69-2.84-6.29-.38-8.85,3.05-8.49,3.39s.93.71,2.82.2,5.55-1.43,7.53-.47S163.52,42.18,163.22,40.53Z"/><path class="cls-38" d="M169.9,41.4c.48-1.58,1.14-3.19,7.36-2.58s8.88,4.68,8.49,5-1,.59-2.82-.11-7.2-2.33-9.27-1.6S169.42,43,169.9,41.4Z"/><path class="cls-39" d="M251.44,311.38a8.6,8.6,0,0,0-.13-1.14c-1-5.45-2-9.71-1.84-13a50.32,50.32,0,0,0-.36-7.38l-16.2.92s.8,3.12-2.68,9c-2.24,2.32-7.27,2.64-8.65,5.5-1.59,3.29-1.51,5.33-8,11.75-4.88,4.85,5.17,4.8,9-.23a26.06,26.06,0,0,1,3.14-3.43c.08.81.22,1.61.38,2.43h0s-.43,9.58-1.14,11.78-4.55,5.89-5.93,8.3-1.28,8.62.74,7.11c3.8-2.83,9.28-9.34,11.3-10.63,1.56-1,2.05-6.19,2.44-10.44h.3c-.11,2.77-.33,6.15-.42,6.86-.28,2.17-4.37,6.75-5.24,9.23s.29,8.23,1.91,6.48c1.77-1.91,4.25-5.25,6.34-8-.26,2.88.79,6.94,2.25,5.4a46.15,46.15,0,0,0,5.55-8.24c0,2.43,1.9,6.38,2.9,4.69,2-3.42,5-10.86,6.19-12.51C253.88,324.86,252.4,316.21,251.44,311.38Zm-10.38,14.38a5.39,5.39,0,0,1-.28,1.06c.11-2.17.12-4.68.12-6.9l.13-.06A39.47,39.47,0,0,1,241.06,325.77Z"/><path class="cls-40" d="M248.11,289.82a45.92,45.92,0,0,1,.38,7.21c-.16,3.33.83,7.75,1.82,13.21s-3.2,6.11-10.1,9.54-13.61,2.68-14.75-2.31-1.85-9.25,2.78-16.16,3.67-10.58,3.67-10.58Z"/><path class="cls-40" d="M230,298.55c-1.45,3.47-7.86,3.4-9.45,6.69s-1.51,5.33-8,11.75c-4.88,4.85,5.17,4.8,9-.23a25.51,25.51,0,0,1,3.93-4.12"/><path class="cls-41" d="M202.24,325.89l7.65,34.87a3.32,3.32,0,0,0,4.25,2.46l58-18.36a3.32,3.32,0,0,0,2.24-3.87l-6.54-30.06a3.32,3.32,0,0,0-4-2.53l-59.08,13.56A3.32,3.32,0,0,0,202.24,325.89Z"/><path class="cls-42" d="M200.43,325.34l7.65,34.87a3.32,3.32,0,0,0,4.25,2.46l58-18.36a3.32,3.32,0,0,0,2.24-3.87L266,310.36a3.32,3.32,0,0,0-4-2.53l-59.08,13.56A3.32,3.32,0,0,0,200.43,325.34Z"/><path class="cls-39" d="M251.44,311.38a9,9,0,0,0-.09-.9,95.57,95.57,0,0,0-25.3,5.37c0,1-.47,9.61-1.13,11.68s-4.55,5.89-5.93,8.3-1.28,8.62.74,7.11c3.8-2.83,9.28-9.34,11.3-10.63,1.56-1,2.05-6.19,2.44-10.44h.3c-.11,2.77-.33,6.15-.42,6.86-.28,2.17-4.37,6.75-5.24,9.23s.29,8.23,1.91,6.48c1.77-1.91,4.25-5.25,6.34-8-.26,2.88.79,6.94,2.25,5.4a46.15,46.15,0,0,0,5.55-8.24c0,2.43,1.9,6.38,2.9,4.69,2-3.42,5-10.86,6.19-12.51C253.88,324.86,252.4,316.21,251.44,311.38Zm-10.38,14.38a5.39,5.39,0,0,1-.28,1.06c.11-2.17.12-4.68.12-6.9l.13-.06A39.47,39.47,0,0,1,241.06,325.77Z"/><path class="cls-43" d="M247.9,290.14a48.55,48.55,0,0,1,.31,7c-.15,3.26.89,7.66,1.85,13s-3.13,6-9.9,9.35-13.33,2.63-14.45-2.26-1.81-9.06,2.72-15.83,3.91-10.28,3.91-10.28Z"/><path class="cls-40" d="M250.08,309.64c.88,4.05,2.89,15.1,2.17,16.14-1.14,1.65-4.17,9.09-6.19,12.51-1.08,1.82-3.16-2.94-2.87-5.25s3-7,2.8-9-.39-6.54-.39-6.54"/><path class="cls-40" d="M246.41,316c0,5.37.41,11.56-.84,13.39s-4.71,9-8,12.41c-1.73,1.84-2.9-4.26-2-6.87s4.09-6.91,4.41-9.2a50.05,50.05,0,0,0-.13-7.35"/><path class="cls-40" d="M239.88,317.66c0,4.93.09,13.41-1,14.46-1.66,1.55-6.78,9-9.83,12.32-1.62,1.75-2.78-4-1.91-6.48s5-7.06,5.24-9.23c.14-1.08.58-8.42.46-10.26"/><path class="cls-40" d="M232.81,318.48c-.53,4.2-.76,12.55-2.78,13.84s-7.5,7.79-11.3,10.63c-2,1.51-2.12-4.7-.74-7.11s5.22-6.1,5.93-8.3,1.14-11.78,1.14-11.78"/><path class="cls-25" d="M238.37,132.87s3.3,8,6.13,22.15,3.3,65.52,5.19,78.72,5.34,38.17,1.57,56.55c-.89,6-20.38,3.54-22.82.89,0,0-3.73-40.47-6.09-59.33s-11.78-62.22-9.9-74.48S229.41,125.33,238.37,132.87Z"/><path class="cls-27" d="M193.93,70.86c-1.45,11.85-22.88,27.69-24.32,30.29-.67,1.2-3.84,2.2-7.42,2.37,5.06.23,10.93-.1,11.89-1.82,1.45-2.6,18.2-16.44,19.64-28.3.22-1.83.69-4.2,1.29-6.93A24.12,24.12,0,0,0,193.93,70.86Z"/><path class="cls-18" d="M195.6,56.35c4.11-4.83,10.8-6.87,12-1.19S205.52,65,202,67.42s0,9.92-4.68,10.12-4.22-3.89-4.22-3.89"/><path class="cls-18" d="M200.81,56.9c2.94-1.66,5,3.45.64,6.14s-5,4.6-5,6.65"/><path class="cls-44" d="M155.47,80.49s3.94-1.58,6.5-.65c2.39.87,2.78.91,3.76.43s7.27-.31,8.72,0-6.78,4.36-10.93,4.18S155.47,80.49,155.47,80.49Z"/><path class="cls-18" d="M163.42,49.78c-1,1.76-3.11,10.24-3.24,11.8-2.59.5-4.23,6.61-3.36,8.1s4.44,1.22,6.7,1.4"/><path class="cls-18" d="M173.76,71.67a20.76,20.76,0,0,0,3.2,3c.91.44,1.19,4.11-.18,7"/><path class="cls-18" d="M153.13,83.67c-.57-1.58-1.3-3.36-.73-4.65s2.52-1.88,2.6-3.66"/><path class="cls-45" d="M174.47,80.2c-7.36,3.35-17.67.72-18.82.58"/></g></g></svg>